<?xml version="1.0" encoding="UTF-8"?>
<svg width="64px" height="64px" viewBox="0 0 64 64" version="1.1" xmlns="http://www.w3.org/2000/svg" xmlns:xlink="http://www.w3.org/1999/xlink">
    <title>ico_quote</title>
        <g id="ico_budget" transform="translate(-28.000000, -508.000000)" fill="#BB162B">
            <g id="budget" transform="translate(15.000000, 496.000000)">
                <path d="M45,12 C62.673112,12 77,26.326888 77,44 C77,61.673112 62.673112,76 45,76 C27.326888,76 13,61.673112 13,44 C13,26.326888 27.326888,12 45,12 Z M55.5813599,26 L32.912445,26 L32.8212099,26.0073628 C32.5539529,26.0509601 32.349945,26.2829254 32.349945,26.5625 L32.349945,26.5625 L32.349945,29.375 L24.193695,29.375 L24.1022657,29.3824628 C23.9524307,29.4071121 23.8175049,29.491684 23.730072,29.6191711 C23.6251526,29.7718811 23.6020812,29.9666138 23.6688232,30.1396484 L23.6688232,30.1396484 L25.9968948,36.1864204 L25.8414143,36.2281323 C24.9218565,36.5105566 24.25,37.3640807 24.25,38.375 L24.25,38.375 L24.25,38.9375 L24.2564238,39.1081314 C24.3202729,39.9529483 24.854233,40.6669798 25.5955849,40.9943809 L25.5955849,40.9943809 L23.2216797,46.1033325 L23.0705886,46.4242547 C22.3410965,48.0404539 22,49.8355599 22,52.038147 L22,52.038147 L22,54.2431031 L22.0037441,54.4978501 C22.1282513,58.7249042 25.3432042,62 29.4251099,62 L29.4251099,62 L32.6929931,62 L32.7896814,61.9984121 L32.7896814,61.9984121 L32.8863182,61.9947128 L32.912445,62 L60.8125,62 L60.9037351,61.9926447 C61.1709921,61.9490894 61.375,61.7173218 61.375,61.4375 L61.375,61.4375 L61.375,58.6106148 L64.155365,61.3908081 L64.2250974,61.4501343 C64.3227966,61.5204468 64.4379334,61.5556031 64.5530701,61.5556031 C64.696991,61.5556031 64.8409119,61.5006714 64.9507752,61.3908081 L64.9507752,61.3908081 L66.8352052,59.5066528 L66.8928438,59.4391352 C66.9620313,59.3437915 67,59.228479 67,59.1089478 C67,58.9595337 66.9406739,58.8167114 66.8352051,58.7112427 L66.8352051,58.7112427 L62.3144684,54.1902656 L62.4322462,53.9509212 C63.4799076,51.7016289 63.0843637,49.0351668 61.375,47.1547241 L61.375,47.1547241 L61.375,31.7936401 L61.3700948,31.7650971 L61.3700948,31.7650971 L61.3636703,31.7367859 C61.3714638,31.6994667 61.386261,31.6646538 61.386261,31.625 C61.386261,31.4354858 61.2926025,31.2679444 61.1489563,31.1660461 L61.1489563,31.1660461 L56.147705,26.1647949 L56.07731,26.1053683 C55.953454,26.0176239 55.7993068,25.9864959 55.6503334,26.0137329 C55.6268844,26.010746 55.6052551,26 55.5813599,26 L55.5813599,26 Z M32.3499451,41.1875 L32.3499451,50.0012817 L32.3220673,49.9931321 L32.3220673,49.9931321 L32.2940864,49.9852142 C32.1648254,49.9368057 32.0306892,49.9032974 31.8959007,49.8706474 C31.8278885,49.8542023 31.7624511,49.8305817 31.6932029,49.818222 C31.4871406,49.7813491 31.2766838,49.7601318 31.0617981,49.7601318 C29.1295776,49.7601318 27.557434,51.3322754 27.557434,53.2642212 C27.557434,55.1967163 29.1295776,56.7688599 31.0617981,56.7688599 C31.2764091,56.7688599 31.4866256,56.7476768 31.6924819,56.7108383 C31.7633438,56.6982041 31.8303261,56.6740684 31.8999175,56.6571426 C32.0325431,56.6248016 32.1647224,56.5920143 32.2920608,56.5443611 C32.3108406,56.537323 32.3312682,56.5350571 32.3499451,56.5277099 L32.3499451,56.5277099 L32.3499451,60.875 L29.4251099,60.875 L29.1921393,60.8709777 C25.7169278,60.7506061 23.125,57.9418534 23.125,54.243103 L23.125,54.243103 L23.125,52.0381469 L23.1297044,51.6096893 C23.1736914,49.6370678 23.5272461,48.0351684 24.2368164,46.5878296 L24.2368164,46.5878296 L26.7463684,41.1875 L32.3499451,41.1875 Z M55.1875,27.125 L55.1875,31.625 L55.1948628,31.7162351 C55.2384601,31.9834921 55.4704254,32.1875 55.75,32.1875 L55.75,32.1875 L60.25,32.1875 L60.25,46.1763916 L60.2463608,46.1741256 L60.2427215,46.1718598 L60.2100029,46.1516037 L59.9933619,46.0153733 L59.9933619,46.0153733 L59.7717514,45.8885155 C59.7247505,45.862732 59.6769943,45.8387337 59.6293754,45.8142205 C59.5081825,45.7518044 59.3852043,45.6936112 59.2602691,45.6394692 C59.2127189,45.6188698 59.1656837,45.5974121 59.1176528,45.5780144 C58.948532,45.5097276 58.777317,45.4467965 58.6024971,45.3937188 C58.5975189,45.3922082 58.592369,45.3912125 58.5873909,45.3897019 C58.4180298,45.3387872 58.2456817,45.2970734 58.0717201,45.2607499 L58.0717201,45.2607499 L57.9112854,45.2308808 L57.7105574,45.1978532 L57.7105574,45.1978532 L57.5082588,45.1713143 C57.4538078,45.1650659 57.3997001,45.1580621 57.3449402,45.1532212 C57.1606102,45.1369477 56.9751816,45.1260987 56.7879333,45.1260987 C55.1259766,45.1260987 53.5631713,45.7737428 52.3879089,46.9492799 C49.9662475,49.3706666 49.9662475,53.3153077 52.3879089,55.7432862 C53.5639953,56.9193727 55.1284485,57.5670167 56.7931519,57.5670167 C57.0627975,57.5670167 57.3302803,57.5464173 57.5952911,57.5121537 C57.6820832,57.5009614 57.7666092,57.4806024 57.8526802,57.4657708 C58.0299378,57.4352494 58.2060967,57.4018098 58.3795776,57.3561478 C58.4786606,57.3300553 58.5751343,57.2973023 58.6727409,57.2663346 C58.8301544,57.2164498 58.985611,57.1627198 59.1385613,57.1003724 C59.2369919,57.060238 59.3333282,57.0168076 59.4296646,56.9715577 C59.4997711,56.9386674 59.5730019,56.9131928 59.6419067,56.8776246 L59.6419067,56.8776246 L59.6622314,56.8979493 L60.25,57.4856491 L60.25,60.875 L33.474945,60.875 L33.474945,27.125 L55.1875,27.125 Z M61.6974487,55.1643067 L65.6420898,59.1089478 L64.55307,60.1976929 L60.6114502,56.2557984 L60.6191578,56.2489105 L60.6191578,56.2489105 C60.8304558,56.0814591 61.0260811,55.9078751 61.2137756,55.716919 C61.386055,55.5414811 61.5467644,55.3577347 61.6974487,55.1643067 L61.6974487,55.1643067 Z M50.125,55.8125 L37.1875,55.8125 L37.0962649,55.8198553 C36.8290079,55.8634106 36.625,56.0951782 36.625,56.375 C36.625,56.6859131 36.8768616,56.9375 37.1875,56.9375 L37.1875,56.9375 L50.125,56.9375 L50.2162351,56.9301447 C50.4834921,56.8865894 50.6875,56.6548218 50.6875,56.375 C50.6875,56.0640869 50.4356384,55.8125 50.125,55.8125 L50.125,55.8125 Z M56.7879333,46.2510987 C57.156868,46.2510987 57.5189018,46.2933961 57.8715973,46.3697854 C58.657669,46.5400735 59.393856,46.8931466 60.0315094,47.4188424 C60.1629677,47.5272637 60.2902374,47.6428948 60.4128723,47.765564 C62.0654907,49.4327393 62.3634949,51.9942017 61.1346741,53.9986573 C60.9366455,54.3287965 60.6932983,54.6413575 60.3887024,54.9511719 C60.1123962,55.2329712 59.7946167,55.4840088 59.4444275,55.6987915 C58.6498413,56.1849365 57.7333069,56.4420166 56.7931519,56.4420166 C55.4289246,56.4420166 54.1470947,55.911377 53.1838684,54.9484254 C51.2002869,52.9598999 51.2000122,49.7282716 53.1833191,47.74469 C54.1462708,46.7817383 55.4264526,46.2510987 56.7879333,46.2510987 Z M31.0617981,50.8851319 C31.1906814,50.8851319 31.3169555,50.8971825 31.4411353,50.9166489 C31.4804801,50.9227944 31.5184173,50.9335404 31.5572128,50.9416085 C31.6413955,50.9591523 31.7247543,50.9793396 31.8059158,51.0058098 C31.8491745,51.0199204 31.8913688,51.0368118 31.9336662,51.0534287 C32.0082359,51.0827141 32.0813293,51.1155358 32.1526718,51.1525117 C32.1939392,51.1739007 32.2349663,51.1958047 32.275032,51.2196999 C32.3008156,51.2350808 32.3246422,51.2542039 32.349945,51.2706147 L32.349945,51.2706147 L32.349945,55.2584114 L32.3128018,55.2841348 L32.3128018,55.2841348 L32.2752723,55.3090858 C32.2348976,55.3331527 32.1935959,55.3552285 32.1520195,55.3767205 C32.0809516,55.413456 32.0082015,55.4461403 31.9339752,55.4753228 C31.8913345,55.4920769 31.8488311,55.5091057 31.8052635,55.5232849 C31.7243423,55.5496521 31.6413612,55.5697365 31.5574874,55.587246 C31.518486,55.5953827 31.4803428,55.6061287 31.4407577,55.6123429 C31.3166809,55.6318093 31.1905098,55.6438599 31.0617981,55.6438599 C29.7497558,55.6438599 28.682434,54.5765382 28.682434,53.2642212 C28.682434,51.9524536 29.7497558,50.8851319 31.0617981,50.8851319 Z M43.9375,50.1875 L37.1875,50.1875 L37.0962649,50.1948553 C36.8290079,50.2384106 36.625,50.4701782 36.625,50.75 C36.625,51.0609131 36.8768616,51.3125 37.1875,51.3125 L37.1875,51.3125 L43.9375,51.3125 L44.0287351,51.3051447 C44.2959921,51.2615894 44.5,51.0298218 44.5,50.75 C44.5,50.4390869 44.2481384,50.1875 43.9375,50.1875 L43.9375,50.1875 Z M59.4377997,48.3904627 C57.8808893,46.9938464 55.4764771,47.0437256 53.9801025,48.5401001 C53.760376,48.7598267 53.760376,49.1157837 53.9801025,49.3355103 C54.0899658,49.4453736 54.2338867,49.5003052 54.3778076,49.5003052 C54.5217285,49.5003052 54.6656495,49.4453736 54.7755127,49.3355103 C55.8854065,48.2258911 57.6910096,48.2264404 58.814087,49.3492432 L58.814087,49.3492432 L59.5957642,48.5401001 Z M47.3125,44.5625 L37.1875,44.5625 L37.0962649,44.5698553 C36.8290079,44.6134106 36.625,44.8451782 36.625,45.125 C36.625,45.4359131 36.8768616,45.6875 37.1875,45.6875 L37.1875,45.6875 L47.3125,45.6875 L47.4037351,45.6801447 C47.6709921,45.6365894 47.875,45.4048218 47.875,45.125 C47.875,44.8140869 47.6231384,44.5625 47.3125,44.5625 L47.3125,44.5625 Z M32.349945,37.25 L32.349945,40.0625 L26.5,40.0625 L26.37757,40.0558879 C25.8145166,39.9947119 25.375,39.5165893 25.375,38.9375 L25.375,38.9375 L25.375,38.375 L25.3816121,38.25257 C25.4427881,37.6895166 25.9209107,37.25 26.5,37.25 L26.5,37.25 L32.349945,37.25 Z M44.5,38.9375 L37.1875,38.9375 L37.0962649,38.9448628 C36.8290079,38.9884601 36.625,39.2204254 36.625,39.5 C36.625,39.8106384 36.8768616,40.0625 37.1875,40.0625 L37.1875,40.0625 L44.5,40.0625 L44.5912351,40.0551372 C44.8584921,40.0115399 45.0625,39.7795746 45.0625,39.5 C45.0625,39.1893616 44.8106384,38.9375 44.5,38.9375 L44.5,38.9375 Z M32.349945,30.5 L32.349945,36.125 L27.1786804,36.125 L25.0130005,30.5 L32.349945,30.5 Z M50.125,33.3125 L37.1875,33.3125 L37.0962649,33.3198628 C36.8290079,33.3634601 36.625,33.5954254 36.625,33.875 C36.625,34.1856384 36.8768616,34.4375 37.1875,34.4375 L37.1875,34.4375 L50.125,34.4375 L50.2162351,34.4301372 C50.4834921,34.3865399 50.6875,34.1545746 50.6875,33.875 C50.6875,33.5643616 50.4356384,33.3125 50.125,33.3125 L50.125,33.3125 Z M56.3125,28.0890503 L59.2859497,31.0625 L56.3125,31.0625 L56.3125,28.0890503 Z" id="ico_quote"></path>
            </g>
        </g>
</svg>