<?xml version="1.0" encoding="UTF-8"?>
<svg width="48px" height="37px" viewBox="0 0 48 37" version="1.1" xmlns="http://www.w3.org/2000/svg" xmlns:xlink="http://www.w3.org/1999/xlink">
    <title>ico_transmission</title>
    <g id="Page-1" stroke="none" stroke-width="1" fill="none" fill-rule="evenodd">
        <g id="2" transform="translate(-556.000000, -2105.000000)" fill="#333333" fill-rule="nonzero">
            <g id="final" transform="translate(0.000000, 2062.000000)">
                <g id="transmission" transform="translate(499.000000, 43.000000)">
                    <path d="M64.392,-5.68434189e-14 C65.112,-5.68434189e-14 65.736,0.624 65.736,1.344 L65.736,7.392 C65.736,8.112 65.112,8.736 64.392,8.736 L61.895,8.735 L61.895,17.375 L73.895,17.375 L73.895,8.735 L71.448,8.736 C70.728,8.736 70.104,8.112 70.104,7.392 L70.104,1.344 C70.104,0.624 70.728,-5.68434189e-14 71.448,-5.68434189e-14 L77.496,-5.68434189e-14 C78.216,-5.68434189e-14 78.84,0.624 78.84,1.344 L78.84,7.392 C78.792,8.112 78.216,8.736 77.448,8.736 L74.999,8.735 L74.999,17.375 L86.999,17.375 L86.999,8.735 L84.552,8.736 C83.832,8.736 83.208,8.112 83.208,7.392 L83.208,1.344 C83.208,0.624 83.832,-5.68434189e-14 84.552,-5.68434189e-14 L90.6,-5.68434189e-14 C91.32,-5.68434189e-14 91.944,0.624 91.944,1.344 L91.944,7.392 C91.896,8.112 91.32,8.736 90.552,8.736 L88.103,8.735 L88.103,17.375 L98.232,17.376 C99.864,17.376 101.16,18.72 101.16,20.304 L101.159,27.839 L103.656,27.84 C104.376,27.84 105,28.464 105,29.184 L105,35.232 C105,35.952 104.376,36.576 103.656,36.576 L97.608,36.576 C96.888,36.576 96.264,35.952 96.264,35.232 L96.264,29.184 C96.264,28.464 96.888,27.84 97.608,27.84 L100.103,27.839 L100.104,20.352 C100.104,19.344 99.288,18.48 98.232,18.48 L88.103,18.479 L88.103,27.839 L90.6,27.84 C91.32,27.84 91.944,28.464 91.944,29.184 L91.944,35.232 C91.896,35.952 91.32,36.576 90.552,36.576 L84.552,36.576 C83.832,36.576 83.208,35.952 83.208,35.232 L83.208,29.184 C83.208,28.464 83.832,27.84 84.552,27.84 L86.999,27.839 L86.999,18.479 L74.999,18.479 L74.999,27.839 L77.496,27.84 C78.216,27.84 78.84,28.464 78.84,29.184 L78.84,35.232 C78.792,35.952 78.216,36.576 77.448,36.576 L71.448,36.576 C70.728,36.576 70.104,35.952 70.104,35.232 L70.104,29.184 C70.104,28.464 70.728,27.84 71.448,27.84 L73.895,27.839 L73.895,18.479 L61.895,18.479 L61.895,27.839 L64.392,27.84 C65.112,27.84 65.736,28.464 65.736,29.184 L65.736,35.232 C65.736,35.952 65.112,36.576 64.392,36.576 L58.344,36.576 C57.624,36.576 57,35.952 57,35.232 L57,29.184 C57,28.464 57.624,27.84 58.344,27.84 L60.791,27.839 L60.791,8.735 L58.344,8.736 C57.624,8.736 57,8.112 57,7.392 L57,1.344 C57,0.624 57.624,-5.68434189e-14 58.344,-5.68434189e-14 L64.392,-5.68434189e-14 Z M64.392,28.944 L58.344,28.944 C58.2,28.944 58.104,29.04 58.104,29.184 L58.104,35.232 C58.104,35.376 58.2,35.472 58.344,35.472 L64.392,35.472 C64.536,35.472 64.632,35.376 64.632,35.232 L64.632,29.184 C64.632,29.04 64.536,28.944 64.392,28.944 Z M77.496,28.944 L71.448,28.944 C71.304,28.944 71.208,29.04 71.208,29.184 L71.208,35.232 C71.208,35.376 71.304,35.472 71.448,35.472 L77.496,35.472 C77.64,35.472 77.736,35.376 77.736,35.232 L77.736,29.184 C77.736,29.04 77.64,28.944 77.496,28.944 Z M90.6,28.944 L84.552,28.944 C84.408,28.944 84.312,29.04 84.312,29.184 L84.312,35.232 C84.312,35.376 84.408,35.472 84.552,35.472 L90.6,35.472 C90.744,35.472 90.84,35.376 90.84,35.232 L90.84,29.184 C90.84,29.04 90.744,28.944 90.6,28.944 Z M103.656,28.944 L97.608,28.944 C97.464,28.944 97.368,29.04 97.368,29.184 L97.368,35.232 C97.368,35.376 97.464,35.472 97.608,35.472 L103.656,35.472 C103.8,35.472 103.896,35.376 103.896,35.232 L103.896,29.184 C103.896,29.04 103.8,28.944 103.656,28.944 Z M64.392,1.104 L58.344,1.104 C58.2,1.104 58.104,1.2 58.104,1.344 L58.104,7.392 C58.104,7.536 58.2,7.632 58.344,7.632 L64.392,7.632 C64.536,7.632 64.632,7.536 64.632,7.392 L64.632,1.344 C64.632,1.2 64.536,1.104 64.392,1.104 Z M77.496,1.104 L71.448,1.104 C71.304,1.104 71.208,1.2 71.208,1.344 L71.208,7.392 C71.208,7.536 71.304,7.632 71.448,7.632 L77.496,7.632 C77.64,7.632 77.736,7.536 77.736,7.392 L77.736,1.344 C77.736,1.2 77.64,1.104 77.496,1.104 Z M90.6,1.104 L84.552,1.104 C84.408,1.104 84.312,1.2 84.312,1.344 L84.312,7.392 C84.312,7.536 84.408,7.632 84.552,7.632 L90.6,7.632 C90.744,7.632 90.84,7.536 90.84,7.392 L90.84,1.344 C90.84,1.2 90.744,1.104 90.6,1.104 Z" id="ico_transmission"></path>
                </g>
            </g>
        </g>
    </g>
</svg>