<?xml version="1.0" encoding="UTF-8"?>
<svg width="33px" height="32px" viewBox="0 0 33 32" version="1.1" xmlns="http://www.w3.org/2000/svg" xmlns:xlink="http://www.w3.org/1999/xlink">
    <title>ico_whatsapp</title>
    <g id="Page-2" stroke="none" stroke-width="1" fill="none" fill-rule="evenodd">
        <g id="1" transform="translate(-1387.000000, -329.000000)" fill="#F1F2F2" fill-rule="nonzero">
            <g id="contact" transform="translate(1368.000000, 236.000000)">
                <path d="M34.6618403,93.7681595 C37.5077693,93.4140885 40.4205042,93.9284936 43.0058904,95.1510405 C48.1365793,97.5694121 51.5236357,102.873796 51.663928,108.525571 C51.8175814,114.224109 48.6309426,119.688828 43.5937819,122.361061 C41.0083956,123.737262 38.0221743,124.365237 35.0960783,124.091333 C31.9738403,123.802464 29.0438535,122.580612 26.6442538,120.592243 L26.4732987,120.447498 L26.2509844,120.503859 C25.3691472,120.727658 24.4856399,120.951458 23.6021326,121.175258 L20.9532808,121.846656 C20.0848048,122.067116 19.4234269,121.151876 19.824262,120.376928 C19.9511931,120.136427 20.0714436,119.902606 20.1983748,119.662105 C21.0601702,118.00532 21.9219656,116.355216 22.783761,114.698431 L22.5342987,115.174498 L22.3385668,114.722 C22.2001451,114.388826 22.0724123,114.051162 21.9575063,113.709865 L21.7950345,113.195299 C20.0848048,107.389871 22.0822996,100.86294 26.818834,97.0750489 C29.0902328,95.2512493 31.7691472,94.1222305 34.6618403,93.7681595 Z M22.6132987,119.354498 L21.1670595,119.722231 L21.1670595,119.722231 C20.9198779,119.782356 20.6660157,119.849162 20.418834,119.909287 C20.7929468,120.39697 21.1737401,120.891333 21.5478528,121.379015 L22.3255224,119.90706 L22.3255224,119.90706 L22.6132987,119.354498 Z M26.4647631,118.379433 L26.4322987,118.386498 L26.3408697,118.419994 C26.2312193,118.467111 26.1281644,118.535656 26.0372057,118.626615 C25.6630929,119.014089 25.62969,119.688828 26.0305251,120.05626 L26.3342982,120.328557 L26.3342982,120.328557 L26.4732987,120.447498 L26.6250971,120.410331 C26.7503581,120.378598 26.875619,120.346865 26.9992098,120.316803 C27.526976,120.183191 27.8409635,119.595299 27.7006712,119.080894 C27.5536983,118.546448 26.9925292,118.245821 26.4647631,118.379433 Z M22.783761,114.698431 L22.5342987,115.174498 L22.5539489,115.218287 C22.628237,115.382523 22.7049301,115.545529 22.783761,115.707199 L22.783761,114.698431 L22.783761,114.698431 Z M25.9303163,100.822857 L25.9505918,100.794187 L25.9505918,100.794187 C25.9419051,100.803769 25.914092,100.841944 25.9102745,100.849579 L25.9182987,100.838498 L25.6706821,101.175592 C25.4160716,101.532335 25.1768532,101.901103 24.955913,102.281896 L24.7411722,102.666698 C24.567477,102.994047 24.4004624,103.328076 24.2534896,103.662105 C24.2267672,103.71555 24.2000449,103.768995 24.1800031,103.822439 L24.1962987,103.781498 L24.1932987,103.788498 L24.1932987,103.789498 L24.1922987,103.790498 L24.1872987,103.802498 L24.1862987,103.805498 L24.1849503,103.810773 L24.1832987,103.813498 L24.1432599,103.912627 L24.1432599,103.912627 L24.0931555,104.036218 C24.0330303,104.203233 23.972905,104.370247 23.9127798,104.537262 C23.6655981,105.265446 23.4718612,106.013671 23.3449301,106.768577 C23.3315689,106.868786 23.3115272,106.975675 23.298166,107.082565 L23.298166,107.082565 L23.2962987,107.096498 L23.3022987,107.058498 L23.3011849,107.077306 C23.3001721,107.085447 23.2990619,107.093978 23.2980102,107.10173 L23.2952987,107.112498 L23.2952987,107.103498 L23.2948257,107.112627 L23.2848048,107.182773 C23.2647631,107.36983 23.2447213,107.550205 23.2313601,107.737262 C23.1979572,108.124736 23.184596,108.51889 23.184596,108.906364 C23.184596,110.783608 23.5921117,112.727658 24.3670595,114.391124 C24.5541159,114.791959 24.7478528,115.14603 24.567477,115.593629 C24.5407547,115.660435 24.5273935,115.687157 24.5006712,115.740602 C24.4605877,115.814089 24.4205042,115.894256 24.3804207,115.967742 C24.2067255,116.295091 24.0397109,116.622439 23.8660157,116.949788 C23.6099266,117.444151 23.3538375,117.937772 23.0972536,118.430651 L22.6132987,119.354498 L23.8159113,119.050832 L23.8159113,119.050832 L26.4322987,118.386498 L26.4525148,118.379983 C26.7550112,118.292141 27.0913697,118.354344 27.3572794,118.547907 L27.4534896,118.626615 C27.6205042,118.780268 27.7875188,118.927241 27.961214,119.074214 C28.041381,119.14102 28.121548,119.207825 28.201715,119.274631 L28.201715,119.274631 L28.2952987,119.352498 L28.2841024,119.345391 C28.2732343,119.338029 28.2699038,119.336802 28.2914647,119.352753 L28.3172987,119.371498 L28.2968403,119.354389 C28.3061503,119.361206 28.3162394,119.369114 28.3219656,119.37484 L28.6584691,119.624001 C28.8846192,119.786809 29.1147283,119.94269 29.3507756,120.089663 C30.8806295,121.051667 32.3637192,121.626197 34.1741576,121.946865 L34.1741576,121.946865 L34.5482704,122.00699 C34.601715,122.020352 34.6551597,122.027032 34.7086044,122.033713 L34.6902987,122.031498 L34.715285,122.033713 C34.8221743,122.043734 34.9307338,122.055425 35.0401284,122.066281 L35.3699823,122.093838 C35.8109008,122.127241 36.2585,122.133922 36.7060992,122.127241 C37.0935731,122.12056 37.481047,122.100519 37.8685209,122.060435 C37.9754102,122.053755 38.0822996,122.040393 38.1891889,122.027032 C38.2142411,122.024527 38.2315689,122.022961 38.2430903,122.022074 L38.2432987,122.021498 L38.2893977,122.013671 C38.3795856,121.99697 38.4697735,121.981938 38.5599614,121.966907 L38.8305251,121.920143 C39.5787505,121.779851 40.3202954,121.572752 41.0417986,121.31221 C41.2221743,121.245404 41.4025501,121.178598 41.5829259,121.105112 C41.5472961,121.118473 41.5291513,121.125236 41.5230664,121.12738 L41.5355661,121.121937 C41.5670904,121.109153 41.640082,121.079874 41.6697735,121.065028 C41.7499405,121.031625 41.8301075,120.998222 41.9102745,120.958139 C42.2443038,120.804485 42.5716524,120.637471 42.8923205,120.457095 C43.2129885,120.276719 43.5202954,120.089663 43.8276023,119.882565 C43.9879363,119.775675 44.1415898,119.668786 44.2952432,119.555216 C44.3687297,119.508452 44.4355355,119.455007 44.5090219,119.401562 L44.4882987,119.416498 L44.4822996,119.421604 C44.4899346,119.417787 44.5281093,119.387792 44.5419769,119.376496 C44.5316541,119.383838 44.5223831,119.391064 44.5090219,119.401562 L44.4972987,119.409498 L44.532404,119.381521 L44.532404,119.381521 L44.5825084,119.341437 C45.1570386,118.880477 45.6914854,118.386114 46.1858487,117.851667 C46.4463915,117.571082 46.6935731,117.283817 46.9273935,116.983191 L46.9273935,116.983191 L46.9392987,116.968498 L46.9741576,116.92056 L46.9741576,116.92056 L47.0142411,116.869621 L47.0142411,116.869621 L47.1678946,116.655842 C47.2747839,116.51555 47.3749927,116.368577 47.4685209,116.221604 C47.8760365,115.613671 48.2301075,114.965654 48.5374144,114.297596 C48.5841785,114.204068 48.624262,114.110539 48.6643455,114.017011 L48.6509844,114.050414 C48.6528931,114.046597 48.6586193,114.033508 48.6647351,114.019251 L48.6582987,114.030498 L48.6643455,114.017011 L48.6643455,114.017011 L48.6752987,113.992498 L48.6802119,113.984443 L48.704429,113.923483 C48.7645543,113.756469 48.8313601,113.589454 48.8914854,113.422439 C49.0184165,113.068368 49.1253059,112.714297 49.2255146,112.353546 C49.3257234,111.992794 49.412571,111.625362 49.4793768,111.251249 C49.5127798,111.057512 49.5461827,110.857095 49.572905,110.663358 L49.5630445,110.728459 L49.5630445,110.728459 L49.5652805,110.715043 L49.5652805,110.715043 L49.5652987,110.707498 L49.5691478,110.689613 C49.573574,110.660086 49.5793199,110.620415 49.5831687,110.589899 L49.5862662,110.563149 C49.5929468,110.469621 49.6063079,110.382773 49.6129885,110.289245 C49.686475,109.494256 49.6998361,108.699266 49.6463915,107.904276 C49.6330303,107.703859 49.6129885,107.503441 49.5929468,107.303024 C49.5795856,107.209496 49.572905,107.122648 49.5595439,107.02912 L49.5671683,107.084141 L49.5671683,107.084141 L49.5694044,107.096989 C49.5689278,107.093406 49.5679473,107.086459 49.5663436,107.075398 L49.5612987,107.041498 L49.5612987,107.045498 L49.5585541,107.026646 C49.5552551,107.004047 49.5518461,106.980019 49.5492801,106.960573 L49.5461827,106.935592 C49.4860574,106.561479 49.412571,106.187366 49.3257234,105.819934 C49.2388758,105.452502 49.1319864,105.09175 49.0184165,104.737679 C48.9582912,104.557304 48.8914854,104.370247 48.8246796,104.189871 C48.7979572,104.109704 48.7645543,104.022857 48.7311514,103.94269 C48.7228006,103.921813 48.6857443,103.827867 48.6672813,103.781547 C48.7111096,103.875884 48.6376232,103.708869 48.6309426,103.688828 C48.6109008,103.648744 48.5975397,103.608661 48.5774979,103.568577 C48.5374144,103.48841 48.5040115,103.408243 48.463928,103.328076 C48.3904416,103.167742 48.3102745,103.014089 48.2301075,102.853755 C48.0564123,102.513045 47.8626754,102.179015 47.6622578,101.858347 C47.4685209,101.54436 47.2681034,101.243734 47.0476441,100.949788 C47.0290869,100.923808 46.9713534,100.848342 46.943174,100.810449 L46.9312987,100.793498 L46.9392152,100.801624 L46.9392152,100.801624 L46.9562987,100.822498 L46.8814645,100.730164 L46.8814645,100.730164 L46.8004624,100.62912 C46.6868925,100.495508 46.5733226,100.361896 46.4597526,100.228285 C45.9854311,99.6804769 45.4576649,99.1660718 44.9031764,98.6984309 C44.82969,98.6316251 44.749523,98.5714998 44.669356,98.504694 C44.6610052,98.4980134 44.6434687,98.4842347 44.6230094,98.4681595 L44.5591263,98.4178464 C44.5190428,98.3861136 44.4923205,98.3644017 44.5290637,98.391124 L44.5290637,98.391124 L44.5392306,98.3979799 C44.511476,98.3769448 44.4126306,98.3033221 44.3887714,98.2842347 C44.315285,98.23079 44.2484791,98.1840259 44.1749927,98.1305812 C43.8743664,97.9168025 43.5670595,97.716385 43.253072,97.5293286 C42.932404,97.3422723 42.6117359,97.1685771 42.2843873,97.0015625 C42.0973309,96.9080343 41.9102745,96.8211867 41.7232182,96.7343391 C41.698166,96.721813 41.6052641,96.6831908 41.5603137,96.6641407 L41.5392987,96.6544976 L41.5562036,96.6608526 C41.6321952,96.6900802 41.4780198,96.6272409 41.4114358,96.6021235 L41.3891889,96.5940468 C40.6944082,96.3201428 39.972905,96.0996835 39.2447213,95.9393495 C39.0509844,95.899266 38.8572474,95.8591825 38.6635105,95.8257796 C38.5766629,95.8057378 38.4898153,95.7923766 38.3962871,95.7790155 L38.3962871,95.7790155 L38.3402215,95.7723257 C38.2960508,95.766864 38.2460152,95.7603758 38.2364479,95.7587263 L37.917017,95.7233439 C37.6606805,95.6981062 37.4053337,95.6788067 37.1470178,95.6654455 C36.37207,95.625362 35.5904416,95.6520844 34.8154938,95.738932 C34.7486879,95.7522931 34.4814645,95.7856961 34.6685209,95.7589737 L34.6342987,95.7634976 L34.3946169,95.7990572 C34.2977484,95.8157587 34.20088,95.8324602 34.1040115,95.8499967 L33.8134061,95.9059466 C33.4459739,95.9861136 33.0785418,96.0729612 32.7177902,96.1798506 C32.3570386,96.2800593 32.0029677,96.4003098 31.6555773,96.5339215 C31.5620491,96.574005 31.4618403,96.607408 31.3683121,96.6474915 C31.3457651,96.6558422 31.3302119,96.6613746 31.319917,96.6648192 L31.3072987,96.6674976 L31.2814645,96.6808944 C31.2012975,96.7176376 31.1211305,96.7543808 31.0409635,96.791124 L30.8004624,96.9013537 C30.1390846,97.2220217 29.504429,97.5894539 28.8964958,98.0036501 C28.7428424,98.1105395 28.5891889,98.2241094 28.4355355,98.3376794 C28.395452,98.3644017 28.3620491,98.391124 28.3286462,98.4178464 L28.3712987,98.3834976 L28.3553685,98.3978046 C28.3186253,98.4278673 28.2835522,98.4562597 28.2493142,98.4838171 L28.1482704,98.5648192 C27.8543246,98.8053203 27.5670595,99.0591825 27.2931555,99.3197253 C27.0259322,99.5735875 26.77207,99.8341303 26.5315689,100.108034 C26.4046378,100.255007 26.2777067,100.395299 26.1574562,100.542272 C26.0973309,100.615759 26.0438862,100.682565 25.9904416,100.74937 C25.9637192,100.782773 25.9369969,100.816176 25.9102745,100.849579 L25.9222987,100.832498 L25.9303163,100.822857 L25.9303163,100.822857 Z M32.5822987,106.778498 L32.5812987,106.777498 L32.5822987,106.780498 L32.582966,106.781514 C32.6109008,106.902189 32.6309426,107.022439 32.6643455,107.136009 C32.6977484,107.25626 32.7445125,107.37651 32.784596,107.496761 C32.7949881,107.533133 32.8417522,107.650332 32.8274471,107.618899 L32.7979572,107.550205 C32.817999,107.60365 32.8447213,107.663775 32.8714436,107.71722 C33.0117359,108.017846 33.17207,108.305112 33.3524457,108.585696 C33.5127798,108.826197 33.7131973,109.113462 33.8401284,109.260435 C34.3211305,109.828285 34.8355355,110.356051 35.4167464,110.817011 C35.5904416,110.950623 35.9177902,111.177763 36.1916942,111.344777 C36.3609356,111.447213 36.5331463,111.54371 36.708326,111.634269 L36.9733226,111.765654 L37.008966,111.782514 L36.9835839,111.775274 C36.9521585,111.768727 37.1315455,111.844018 37.0336683,111.794915 L37.0113819,111.783692 L37.0735313,111.805738 C37.126976,111.82578 37.1871013,111.845821 37.2405459,111.865863 C37.3741576,111.912627 37.5077693,111.952711 37.641381,111.986114 C37.6881451,111.999475 37.7415898,112.006155 37.7950345,112.019517 C37.7994882,112.019517 37.8306642,112.024713 37.8638197,112.030651 L37.8968481,112.037079 C37.9312558,112.041542 37.9678946,112.046239 37.9754102,112.046239 C38.0221743,112.052919 38.0689384,112.052919 38.1157025,112.052919 L38.2159113,112.049579 L38.2159113,112.049579 L38.3161201,112.046239 C38.3413578,112.040672 38.365111,112.033991 38.3887714,112.027032 L38.435966,112.011514 L38.4497317,112.006155 C38.4519586,112.005413 38.4560824,112.003434 38.4614434,112.000639 L38.470966,111.994514 L38.4841785,111.985279 C38.4920073,111.979224 38.4996796,111.97317 38.5064384,111.967585 L38.5232182,111.952711 C38.9374144,111.525153 39.3516107,111.077554 39.7992098,110.6834 C40.520713,110.048744 41.5628841,110.102189 42.2576649,110.743525 L42.4906503,110.9715 L42.4906503,110.9715 L42.7186253,111.204485 L43.6064007,112.080384 L44.041381,112.527241 C44.6893977,113.222022 44.7294812,114.264193 44.1015063,114.985696 C43.9478528,115.159391 43.7741576,115.319725 43.6138236,115.480059 L42.2910679,116.802815 L42.2910679,116.802815 C42.0314361,117.062447 41.4268773,117.340813 41.2210387,117.415372 L41.198966,117.421514 L41.1883511,117.434292 L41.1353267,117.464193 C40.1866837,117.798222 39.0175814,117.818264 38.0622578,117.577763 C36.886475,117.283817 35.7574562,116.736009 34.7286462,116.094673 C32.2301075,114.538097 30.0321952,112.340185 28.4956608,109.828285 C27.8610052,108.792794 27.3131973,107.657095 27.0392933,106.467951 C26.818834,105.512627 26.7319864,104.443734 27.0860574,103.515132 C27.3532808,102.820352 27.8209217,102.33935 28.3353267,101.824944 C28.8163288,101.343942 29.2772892,100.756051 29.8451388,100.368577 C30.5599614,99.8808944 31.4885626,100.014506 32.1031764,100.589036 C32.2768716,100.74937 32.4372057,100.923066 32.6042203,101.09008 C33.0518194,101.537679 33.5328215,101.965237 33.9470178,102.439558 C34.5816733,103.161061 34.5349092,104.203233 33.8868925,104.898013 C33.6998361,105.105112 33.492738,105.292168 33.2990011,105.485905 L32.9875188,105.799892 L32.9875188,105.799892 L32.6710261,106.11388 L32.652966,106.129514 L32.6376232,106.160644 L32.612966,106.198514 L32.6109008,106.214089 C32.6019934,106.231903 32.5960551,106.261595 32.5891271,106.289307 L32.576966,106.327514 L32.5766629,106.431208 L32.5708173,106.581521 L32.5742987,106.686498 L32.5720345,106.667538 C32.5701289,106.659745 32.5737975,106.718292 32.5799997,106.763115 L32.5812987,106.777498 L32.5802987,106.762498 L32.5822987,106.778498 Z" id="ico_whatsapp"></path>
            </g>
        </g>
    </g>
</svg>