<?xml version="1.0" encoding="UTF-8"?>
<svg width="32px" height="32px" viewBox="0 0 32 32" version="1.1" xmlns="http://www.w3.org/2000/svg" xmlns:xlink="http://www.w3.org/1999/xlink">
    <title>ico_facebook</title>
    <g id="Page-1" stroke="none" stroke-width="1" fill="none" fill-rule="evenodd">
        <g id="1" transform="translate(-1240.000000, -3124.000000)" fill="#FFFFFF" fill-rule="nonzero">
            <g id="footer" transform="translate(3.000000, 3072.000000)">
                <path d="M1264.68983,52 L1241.3141,52 C1238.93264,52 1237.002,53.9305601 1237.002,56.3120956 L1237.002,79.6879827 C1237.002,82.0695182 1238.93256,84.0002348 1241.3141,84.0002348 L1252.84289,84.0002348 L1252.86254,72.5649816 L1249.89171,72.5649816 C1249.50563,72.5649816 1249.19227,72.2527979 1249.19078,71.8667172 L1249.17654,68.1807111 C1249.17505,67.7925168 1249.48935,67.4770454 1249.87754,67.4770454 L1252.84297,67.4770454 L1252.84297,63.9154274 C1252.84297,59.7822034 1255.36729,57.5316315 1259.05439,57.5316315 L1262.07995,57.5316315 C1262.46704,57.5316315 1262.78095,57.8454591 1262.78095,58.2326357 L1262.78095,61.340695 C1262.78095,61.7277151 1262.46728,62.0414643 1262.08034,62.0416992 L1260.2236,62.0425603 C1258.21843,62.0425603 1257.83016,62.9953937 1257.83016,64.3937229 L1257.83016,67.4771237 L1262.23619,67.4771237 C1262.65601,67.4771237 1262.98174,67.8437125 1262.93227,68.2606358 L1262.49538,71.9466419 C1262.45358,72.299375 1262.15447,72.5651382 1261.79931,72.5651382 L1257.84981,72.5651382 L1257.83016,84.0002348 L1264.68998,84.0002348 C1267.07144,84.0002348 1269.002,82.0696748 1269.002,79.6882175 L1269.002,56.3120956 C1269.002,53.9305601 1267.07136,52 1264.68983,52 Z" id="ico_facebook"></path>
            </g>
        </g>
    </g>
</svg>