<?xml version="1.0" encoding="UTF-8"?>
<svg width="32px" height="32px" viewBox="0 0 32 32" version="1.1" xmlns="http://www.w3.org/2000/svg" xmlns:xlink="http://www.w3.org/1999/xlink">
    <title>ico_youtube</title>
    <g id="Page-1" stroke="none" stroke-width="1" fill="none" fill-rule="evenodd">
        <g id="1" transform="translate(-1354.000000, -3124.000000)" fill="#FFFFFF" fill-rule="nonzero">
            <g id="footer" transform="translate(3.000000, 3072.000000)">
                <path d="M1376.95801,52 C1378.6078,52 1380.01863,52.5864549 1381.19044,53.7572274 C1382.29305,54.8608163 1382.87709,56.1751584 1382.94199,57.7016983 L1382.94807,57.9904116 L1382.94807,77.9576606 C1382.94807,79.6077401 1382.36191,81.018917 1381.19044,82.1897473 C1380.0875,83.2926294 1378.77294,83.8770455 1377.24667,83.9419841 L1376.95801,83.9480722 L1356.99047,83.9480722 C1355.33999,83.9480722 1353.92916,83.361213 1352.75763,82.1897473 C1351.6547,81.0877893 1351.07094,79.7728781 1351.00608,78.2463619 L1351,77.9576606 L1351,57.9904116 C1351,56.3403321 1351.58576,54.9298484 1352.75763,53.7572274 C1353.86057,52.6553238 1355.17518,52.0710166 1356.70175,52.0060873 L1356.99047,52 L1376.95801,52 Z M1367.46837,65.7068709 L1366.46065,65.7069278 C1362.90409,65.7159739 1360.22583,65.8199908 1358.42596,66.018426 C1357.81583,66.0884332 1357.28523,66.3273935 1356.83486,66.7367509 C1356.38449,67.1461661 1356.08968,67.6555668 1355.9511,68.2650108 C1355.67362,69.4714801 1355.53505,71.2743971 1355.53505,73.6728375 C1355.53505,76.1133863 1355.67362,77.9163032 1355.9511,79.0806643 C1356.08933,79.6781516 1356.38414,80.1833357 1356.83486,80.5993935 C1357.28523,81.0151625 1357.80872,81.2582816 1358.40511,81.3271913 C1360.30449,81.5354224 1363.16075,81.6393357 1366.97435,81.6393357 C1370.78721,81.6393357 1373.64381,81.5351336 1375.5436,81.3271913 C1376.13964,81.2582238 1376.66313,81.0154513 1377.11385,80.5993935 C1377.56422,80.1833357 1377.85909,79.6778051 1377.99801,79.0806643 C1378.27515,77.9163032 1378.41378,76.1133863 1378.41435,73.6728375 C1378.41435,71.2185415 1378.28248,69.4163177 1378.01915,68.2650108 C1377.88058,67.655509 1377.58258,67.1461083 1377.12477,66.7367509 C1376.66735,66.3270469 1376.14027,66.0884332 1375.54394,66.018426 C1373.82201,65.828302 1371.29112,65.7251423 1367.95103,65.7086391 L1367.46837,65.7068709 Z M1368.82539,68.3689242 L1368.82539,71.7179495 C1369.269,71.1633791 1369.74056,70.8861805 1370.23968,70.8861805 C1370.80817,70.8861805 1371.17542,71.1767798 1371.34195,71.7593646 C1371.428,72.0179832 1371.47613,72.4522202 1371.48576,73.0615077 L1371.48757,73.2981949 L1371.48757,76.3350758 C1371.48757,77.0565199 1371.43882,77.5620505 1371.34195,77.8536895 C1371.17542,78.4362744 1370.80817,78.7272202 1370.23968,78.7272202 C1369.80259,78.7272202 1369.37719,78.4970282 1368.96303,78.0363072 L1368.82539,77.8741949 L1368.82539,78.6233069 L1367.43188,78.6233069 L1367.43188,68.3689242 L1368.82539,68.3689242 Z M1374.64892,70.8861805 C1375.35627,70.8861805 1375.89716,71.1502671 1376.2718,71.676361 C1376.5337,72.0260679 1376.67784,72.5440676 1376.70405,73.2299812 L1376.70842,73.4648375 L1376.70842,75.0452563 L1373.94227,75.0452563 L1373.94227,76.3974585 C1373.94227,77.1040578 1374.17765,77.4576173 1374.64927,77.4576173 C1374.98192,77.4576173 1375.19015,77.2783249 1375.27321,76.9174296 C1375.27321,76.9036245 1375.27639,76.8548159 1375.28344,76.7721011 C1375.2879,76.7162262 1375.29098,76.6466939 1375.29254,76.5635042 L1375.29372,76.4284765 L1375.29372,75.9817473 L1376.70807,75.9817473 L1376.70807,76.1686643 C1376.70807,76.5709747 1376.69427,76.8700072 1376.66671,77.0633935 C1376.62501,77.3691264 1376.5211,77.6459783 1376.35457,77.895509 C1375.98016,78.4505415 1375.42559,78.7276245 1374.69063,78.7276245 C1373.96947,78.7276245 1373.40774,78.4646354 1373.00583,77.937213 C1372.74367,77.5999307 1372.5995,77.0837817 1372.57329,76.3875869 L1372.56892,76.148852 L1372.56892,73.4650686 C1372.56892,72.6477401 1372.70749,72.0503682 1372.98498,71.6767076 C1373.38689,71.1502671 1373.94192,70.8861805 1374.64892,70.8861805 Z M1363.64618,70.9900361 L1363.6465,76.7233386 C1363.64797,76.981 1363.65465,77.122491 1363.66703,77.1459928 C1363.68043,77.3542238 1363.78435,77.4581372 1363.97877,77.4581372 C1364.22517,77.4581372 1364.48271,77.2885887 1364.75113,76.9490454 L1364.85271,76.8137473 L1364.85271,70.9900361 L1366.24621,70.9900361 L1366.24621,78.6233069 L1364.85271,78.6233069 L1364.85271,77.7911913 C1364.31183,78.4150758 1363.78475,78.7272202 1363.27183,78.7272202 C1362.81435,78.7272202 1362.52312,78.5338339 1362.3983,78.1446354 C1362.32562,77.950657 1362.2846,77.6403258 1362.27548,77.2124421 L1362.27353,77.0218628 L1362.27353,70.9900361 L1363.64618,70.9900361 Z M1362.0653,68.3689242 L1362.0653,69.8250397 L1360.40142,69.8250397 L1360.40142,78.6233069 L1358.86224,78.6233069 L1358.86224,69.8250397 L1357.24,69.8250397 L1357.24,68.3689242 L1362.0653,68.3689242 Z M1369.51154,72.1340072 C1369.31505,72.1340072 1369.12346,72.2113438 1368.93679,72.365014 L1368.82539,72.4663682 L1368.82539,77.1258917 C1369.04702,77.3474657 1369.27575,77.4581372 1369.51154,77.4581372 C1369.88285,77.4581372 1370.08278,77.1695281 1370.11135,76.5901747 L1370.11492,76.439278 L1370.11492,73.174065 C1370.11492,72.4808087 1369.91344,72.1340072 1369.51154,72.1340072 Z M1374.62807,72.1340072 C1374.20579,72.1340072 1373.97841,72.435019 1373.94592,73.0373151 L1373.94186,73.1941661 L1373.94186,73.9019783 L1375.31457,73.9019783 L1375.31457,73.1941661 C1375.31457,72.4875668 1375.08583,72.1340072 1374.62807,72.1340072 Z M1371.25883,56.6174152 L1369.86504,56.6174152 L1369.86504,62.7117978 C1369.86504,63.2250686 1369.90674,63.6061805 1369.98981,63.8557112 C1370.14212,64.2301227 1370.44012,64.4170975 1370.88413,64.4170975 C1371.33787,64.4170975 1371.82026,64.1591269 1372.33155,63.6434461 L1372.48581,63.4810108 L1372.48581,64.3131264 L1373.87931,64.3131264 L1373.87931,56.6174152 L1372.48581,56.6174152 L1372.48581,62.5035668 C1372.18077,62.9341227 1371.88947,63.1487076 1371.61233,63.1487076 C1371.40445,63.1487076 1371.29343,63.0383827 1371.27968,62.8157112 C1371.2676,62.7915523 1371.2607,62.6502446 1371.25916,62.3922136 L1371.25883,62.2744838 L1371.25883,56.6174152 Z M1366.66192,56.5135018 C1365.95492,56.5135018 1365.41404,56.7775884 1365.03968,57.3039711 C1364.78076,57.661221 1364.63693,58.1779789 1364.60817,58.8527437 L1364.60277,59.1131841 L1364.60277,61.8171264 C1364.60277,62.6220361 1364.74839,63.2251264 1365.03968,63.6263394 C1365.41404,64.1534152 1365.95492,64.4168087 1366.66192,64.4168087 C1367.34097,64.4168087 1367.88179,64.1537617 1368.2841,63.6263394 C1368.546,63.2900968 1368.69014,62.7673612 1368.71635,62.0598169 L1368.72072,61.8171264 L1368.72072,59.1131841 C1368.72072,58.3096606 1368.57539,57.7062238 1368.2841,57.3039711 C1367.88185,56.7775884 1367.34097,56.5135018 1366.66192,56.5135018 Z M1360.85918,53.9760866 L1359.23659,53.9760866 C1359.34726,54.2953357 1359.51379,54.7740072 1359.73577,55.4110036 C1359.9574,56.0493863 1360.11723,56.5280578 1360.21444,56.846556 C1360.65931,58.1559663 1360.9643,59.1853245 1361.12968,59.9353869 L1361.17132,60.1330253 L1361.17132,64.3131841 L1362.71044,64.3131841 L1362.71044,60.1330253 L1364.58227,53.9760866 L1363.02224,53.9760866 L1361.96173,58.0318267 L1360.85918,53.9760866 Z M1366.66227,57.7610397 C1367.10594,57.7610397 1367.32791,58.1215884 1367.32791,58.8423971 L1367.32791,58.8423971 L1367.32791,62.0875668 C1367.32791,62.7945704 1367.10594,63.1487653 1366.66227,63.1487653 C1366.21825,63.1487653 1365.99662,62.7945126 1365.99662,62.0875668 L1365.99662,62.0875668 L1365.99662,58.8423971 C1365.99662,58.1215884 1366.21825,57.7610397 1366.66227,57.7610397 Z" id="ico_youtube"></path>
            </g>
        </g>
    </g>
</svg>