<?xml version="1.0" encoding="UTF-8"?>
<svg width="48px" height="45px" viewBox="0 0 48 45" version="1.1" xmlns="http://www.w3.org/2000/svg" xmlns:xlink="http://www.w3.org/1999/xlink">
    <title>ico_features</title>
        <g id="2" transform="translate(-881.000000, -1384.000000)" fill="#58595B" fill-rule="nonzero">
            <g id="car-name" transform="translate(873.000000, 919.000000)">
                <g id="stantard-equipment" transform="translate(3.000000, 229.000000)">
                    <path d="M37.5714286,266.857143 C40.9189504,266.857143 43.7062214,269.255862 44.3081667,272.428226 L51.7142857,272.428571 C52.4243661,272.428571 53,273.004205 53,273.714286 C53,274.424366 52.4243661,275 51.7142857,275 L44.3080856,275.000773 C43.7059711,278.172925 40.9188001,280.571429 37.5714286,280.571429 C34.224057,280.571429 31.436886,278.172925 30.8347716,275.000773 L6.28571429,275 C5.57563389,275 5,274.424366 5,273.714286 C5,273.004205 5.57563389,272.428571 6.28571429,272.428571 L30.8346905,272.428226 C31.4366358,269.255862 34.2239067,266.857143 37.5714286,266.857143 Z M37.5714286,269.428571 C35.2044939,269.428571 33.2857143,271.347351 33.2857143,273.714286 C33.2857143,276.08122 35.2044939,278 37.5714286,278 C39.9383632,278 41.8571429,276.08122 41.8571429,273.714286 C41.8571429,271.347351 39.9383632,269.428571 37.5714286,269.428571 Z M20.1028571,251.428571 C23.4505794,251.428571 26.2379836,253.827578 26.8397033,257.000224 L51.7142857,257 C52.4243661,257 53,257.575634 53,258.285714 C53,258.995795 52.4243661,259.571429 51.7142857,259.571429 L26.8382707,259.572183 C26.5823147,260.912188 25.9300824,262.155953 24.9515894,263.134446 C23.6656256,264.42041 21.9214845,265.142857 20.1028571,265.142857 C16.7553353,265.142857 13.9680644,262.744138 13.3661191,259.571774 L6.28571429,259.571429 C5.57563389,259.571429 5,258.995795 5,258.285714 C5,257.575634 5.57563389,257 6.28571429,257 L13.366011,257.000224 C13.9677307,253.827578 16.7551349,251.428571 20.1028571,251.428571 Z M20.1028571,254 C17.7359225,254 15.8171429,255.91878 15.8171429,258.285714 C15.8171429,260.652649 17.7359225,262.571429 20.1028571,262.571429 C22.4697918,262.571429 24.3885714,260.652649 24.3885714,258.285714 C24.3885714,257.149072 23.9370421,256.058984 23.1333148,255.255257 C22.3295874,254.451529 21.2394992,254 20.1028571,254 Z M37.5714286,236 C40.9189504,236 43.7062214,238.398719 44.3081667,241.571083 L51.7142857,241.571429 C52.4243661,241.571429 53,242.147062 53,242.857143 C53,243.567223 52.4243661,244.142857 51.7142857,244.142857 L44.3070334,244.14261 C44.0512111,245.482997 43.3988977,246.727138 42.4201608,247.705875 C41.134197,248.991839 39.3900559,249.714286 37.5714286,249.714286 C34.2237063,249.714286 31.4363021,247.315279 30.8345824,244.142633 L6.28571429,244.142857 C5.57563389,244.142857 5,243.567223 5,242.857143 C5,242.147062 5.57563389,241.571429 6.28571429,241.571429 L30.8346905,241.571083 C31.4366358,238.398719 34.2239067,236 37.5714286,236 Z M37.5714286,238.571429 C35.2044939,238.571429 33.2857143,240.490208 33.2857143,242.857143 C33.2857143,245.224077 35.2044939,247.142857 37.5714286,247.142857 C39.9383632,247.142857 41.8571429,245.224077 41.8571429,242.857143 C41.8571429,241.720501 41.4056135,240.630413 40.6018862,239.826685 C39.7981589,239.022958 38.7080707,238.571429 37.5714286,238.571429 Z" id="ico_features"></path>
                </g>
            </g>
        </g>
</svg>