<?xml version="1.0" encoding="UTF-8"?>
<svg width="48px" height="47px" viewBox="0 0 48 47" version="1.1" xmlns="http://www.w3.org/2000/svg" xmlns:xlink="http://www.w3.org/1999/xlink">
    <title>ico_finish</title>
        <g id="2" transform="translate(-881.000000, -1201.000000)" fill="#58595B" fill-rule="nonzero">
            <g id="car-name" transform="translate(873.000000, 919.000000)">
                <g id="stantard-equipment" transform="translate(3.000000, 229.000000)">
                    <path d="M52.952048,53 L52.952048,64.8921079 C52.9040959,73.5234765 52.9040959,82.4905095 53,91.3616384 C53,95.1498501 51.2257742,97.7392607 47.7732268,98.986014 C46.2867133,99.5134865 44.8961039,99.7532468 43.5534466,99.7532468 C42.2587413,99.7532468 41.0599401,99.5134865 39.9090909,99.033966 L39.9090909,99.033966 L5,87.3336663 L12.1928072,76.3046953 C11.4255744,75.6813187 10.6583417,75.00999 9.89110889,74.3866134 C9.12387612,73.7152847 8.35664336,73.0919081 7.54145854,72.4205794 L7.54145854,72.4205794 L6.1028971,71.2217782 L8.98001998,68.4885115 C12.1448551,65.4195804 15.2617383,62.4465534 18.3786214,59.4735265 C18.8101898,59.1378621 19.3856144,58.8981019 19.8651349,58.7062937 C24.4685315,56.9320679 29.1198801,55.1578422 33.7232767,53.3836164 L33.7232767,53.3836164 L33.8191808,53.3356643 C34.2507493,53.1918082 34.6823177,53 35.1138861,53 L35.1138861,53 L52.952048,53 Z M51.5134865,54.3426573 L36.024975,54.3426573 L36.024975,54.3906094 C35.977023,54.5344655 35.977023,54.6303696 35.977023,54.7262737 L35.977023,91.4095904 C35.977023,93.3756244 36.6003996,94.9100899 37.8951049,96.1088911 C40.1968032,98.2187812 43.6493506,98.8901099 46.8141858,97.8351648 C49.9310689,96.7802198 51.5134865,94.6703297 51.5134865,91.5054945 C51.5614386,81.7712288 51.5134865,72.0849151 51.5134865,62.3506494 L51.5134865,62.3506494 L51.5134865,54.3426573 Z M13.2957043,77.3116883 L7.20579421,86.5664336 L35.6413586,96.1088911 C29.6953047,91.1698302 23.7492507,86.1348651 17.9470529,81.2437562 C16.4125874,79.9010989 14.8301698,78.6063936 13.2957043,77.3116883 L13.2957043,77.3116883 Z M43.8891109,88.1488511 C45.8551449,88.1968032 47.5334665,89.7312687 47.5334665,91.4575425 C47.5334665,92.3206793 47.1978022,93.0879121 46.5744256,93.7112887 C45.8551449,94.4305694 44.8481518,94.8141858 43.7932068,94.8141858 L43.7932068,94.8141858 L43.7452547,94.8141858 C42.6903097,94.8141858 41.7312687,94.4305694 41.0599401,93.7112887 C40.4365634,93.0879121 40.1008991,92.2727273 40.1488511,91.3616384 C40.1968032,89.5874126 41.8271728,88.1488511 43.7932068,88.1488511 L43.7932068,88.1488511 Z M18.954046,60.9120879 L8.16483516,71.1738262 L34.7302697,93.5674326 L18.954046,60.9120879 Z M43.8411588,89.4915085 L43.7932068,89.4915085 C42.5464535,89.4915085 41.5874126,90.4025974 41.5874126,91.5534466 C41.5874126,92.0809191 41.7792208,92.5604396 42.1148851,92.8961039 C42.4985015,93.2797203 43.1218781,93.5194805 43.7932068,93.5194805 L43.7932068,93.5194805 L43.8411588,93.5194805 C44.5124875,93.5194805 45.1358641,93.2797203 45.5674326,92.8481518 C45.9030969,92.4645355 46.0949051,91.985015 46.1428571,91.5534466 C46.1428571,91.0739261 45.9030969,90.5944056 45.5194805,90.2107892 C45.03996,89.7312687 44.4645355,89.4915085 43.8411588,89.4915085 L43.8411588,89.4915085 Z M34.3946054,54.5344655 L20.1048951,60.048951 L34.3946054,89.5394605 L34.3946054,54.5344655 Z" id="ico_finish"></path>
                </g>
            </g>
        </g>
</svg>