<?xml version="1.0" encoding="UTF-8"?>
<svg width="32px" height="32px" viewBox="0 0 32 32" version="1.1" xmlns="http://www.w3.org/2000/svg" xmlns:xlink="http://www.w3.org/1999/xlink">
    <title>ico_print</title>
        <g id="print" transform="translate(-741.000000, -947.000000)" fill="#333333" fill-rule="nonzero">
            <g id="budget" transform="translate(180.000000, 915.000000)">
                <path d="M585.106667,46.4 C584.644444,46.4 584.288889,46.7555556 584.288889,47.2177778 C584.288889,47.68 584.644444,48.0355556 585.106667,48.0355556 C585.568889,48.0355556 585.924444,47.68 585.924444,47.2177778 C585.888889,46.7555556 585.533333,46.4 585.106667,46.4 L585.106667,46.4 Z M577,32 C568.146667,32 561,39.1466667 561,48 C561,56.8533333 568.146667,64 577,64 C585.853333,64 593,56.8533333 593,48 C593,39.1466667 585.853333,32 577,32 L577,32 Z M582.44,41.3155556 L579.026667,41.3155556 L579.026667,37.9022222 L582.44,41.3155556 Z M577.426667,37.12 L577.426667,42.0977778 C577.426667,42.56 577.782222,42.9155556 578.244444,42.9155556 L583.257778,42.9155556 L583.257778,43.9822222 L570.564444,43.9822222 L570.564444,37.12 L577.426667,37.12 Z M583.435556,57.5288889 L570.742222,57.5288889 L570.742222,50.1333333 L583.435556,50.1333333 L583.435556,57.5288889 Z M586.671111,54.08 C586.671111,54.5422222 586.315556,54.8977778 585.888889,54.8977778 L585,54.8977778 L585,50.1333333 C585,49.2444444 584.288889,48.5333333 583.4,48.5333333 L570.742222,48.5333333 C569.853333,48.5333333 569.142222,49.2444444 569.142222,50.1333333 L569.142222,54.8622222 L568.288889,54.8622222 C567.826667,54.8622222 567.471111,54.5066667 567.471111,54.0444444 L567.471111,46.1511111 C567.471111,45.6888889 567.826667,45.3688889 568.288889,45.3688889 L585.888889,45.3688889 C586.351111,45.3688889 586.671111,45.7244444 586.671111,46.1511111 L586.671111,54.08 Z M572.911111,52.0177778 L572.911111,53.3333333 L581.266667,53.3333333 L581.266667,52.0177778 L572.911111,52.0177778 Z M572.911111,54.08 L572.911111,55.36 L581.266667,55.36 L581.266667,54.08 L572.911111,54.08 Z" id="ico_print"></path>
            </g>
        </g>
</svg>