<?xml version="1.0" encoding="UTF-8"?>
<svg width="39px" height="48px" viewBox="0 0 39 48" version="1.1" xmlns="http://www.w3.org/2000/svg" xmlns:xlink="http://www.w3.org/1999/xlink">
    <title>ico_gas</title>
    <g id="Page-1" stroke="none" stroke-width="1" fill="none" fill-rule="evenodd">
        <g id="2" transform="translate(-838.000000, -2105.000000)" fill="#333333" fill-rule="nonzero">
            <g id="final" transform="translate(0.000000, 2062.000000)">
                <g id="gas" transform="translate(734.000000, 43.000000)">
                    <path d="M142.3942,17.4264 C142.4806,16.93008 142.32508,16.39632 141.93676,16.04544 L136.63516,11.2728 C136.06252,10.75872 135.10012,10.72608 134.49484,11.20272 L133.82668,11.72976 L134.09068,8.08176 C134.14636,7.31376 133.56172,6.6864 132.79228,6.6864 L130.7566,6.6864 L130.7566,3.50016 C130.7566,1.57488 129.1822,0 127.25644,0 L108.02716,0 C106.10188,0 104.527,1.57488 104.527,3.50016 L104.527,44.5008 C104.527,46.42512 106.10188,48 108.02716,48 L127.25644,48 C129.1822,48 130.7566,46.42512 130.7566,44.5008 L130.7566,33.83136 L130.87228,33.83136 C131.6422,33.83136 132.27148,33.2016 132.27148,32.43168 L132.27148,31.73616 C133.06828,32.16672 133.85068,33.05616 134.07148,34.87248 C134.33692,37.06416 134.03596,38.80512 133.79356,40.20384 C133.64908,41.03616 133.52476,41.75472 133.52476,42.44976 C133.52476,45.70416 135.59692,47.46048 137.54716,47.46048 C138.6166,47.46048 139.63324,46.95216 140.33692,46.06848 C141.05212,45.16752 141.43036,43.9176 141.43036,42.44976 C141.43036,39.79248 141.10876,37.5096 140.79772,35.30064 C140.41996,32.61888 140.05996,30.06624 140.25148,26.91024 C140.9494,26.89824 141.54988,26.36928 141.6214,25.6584 L142.41484,17.79936 C142.42828,17.66976 142.41676,17.54592 142.3942,17.4264 Z M112.43788,16.95216 C111.71212,16.95216 111.12364,16.3632 111.12364,15.6384 C111.12364,14.9112 111.7126,14.32416 112.43788,14.32416 C113.16412,14.32416 113.75212,14.91168 113.75212,15.6384 C113.75212,16.36368 113.16412,16.95216 112.43788,16.95216 Z M117.64252,16.95216 C116.91724,16.95216 116.32876,16.3632 116.32876,15.6384 C116.32876,14.9112 116.91772,14.32416 117.64252,14.32416 C118.36924,14.32416 118.95724,14.91168 118.95724,15.6384 C118.95724,16.36368 118.36876,16.95216 117.64252,16.95216 Z M122.84716,16.95216 C122.1214,16.95216 121.5334,16.3632 121.5334,15.6384 C121.5334,14.9112 122.12188,14.32416 122.84716,14.32416 C123.5734,14.32416 124.16188,14.91168 124.16188,15.6384 C124.16236,16.36368 123.5734,16.95216 122.84716,16.95216 Z M127.91788,9.56976 C127.91788,10.33968 127.28764,10.96944 126.51772,10.96944 L108.76636,10.96944 C107.99644,10.96944 107.36668,10.33968 107.36668,9.56976 L107.36668,4.85376 C107.36668,4.08384 107.99644,3.45408 108.76636,3.45408 L126.51724,3.45408 C127.28716,3.45408 127.9174,4.08384 127.9174,4.85376 L127.9174,9.56976 L127.91788,9.56976 Z M138.4342,44.55552 C137.60188,45.60288 135.95548,44.85744 135.95548,42.44976 C135.95548,41.964 136.06396,41.34048 136.18828,40.61952 C136.44316,39.14592 136.7926,37.12656 136.48396,34.57968 C136.08604,31.30848 134.20252,29.69424 132.27148,29.14512 L132.27148,28.58784 C132.27148,27.81792 131.64172,27.18816 130.87228,27.18816 L130.7566,27.18816 L130.7566,20.91456 L131.76268,20.91456 C132.5326,20.91456 133.20796,20.28672 133.26364,19.5192 L133.42252,17.31744 L136.87756,19.00272 L136.84636,25.18272 C136.84252,25.8144 137.26444,26.38848 137.83852,26.61936 C137.61388,30.09552 138.00652,32.9112 138.39052,35.64192 C138.70396,37.86384 139.00012,39.96336 139.00012,42.45072 C139.00012,43.3488 138.799,44.09664 138.4342,44.55552 Z" id="ico_gas"></path>
                </g>
            </g>
        </g>
    </g>
</svg>