<?xml version="1.0" encoding="UTF-8"?>
<svg width="91px" height="114px" viewBox="0 0 91 114" version="1.1" xmlns="http://www.w3.org/2000/svg" xmlns:xlink="http://www.w3.org/1999/xlink">
    <title>ico_dealer</title>
        <g id="ico-dealer" transform="translate(-890.000000, -700.000000)" fill="#BB162B" fill-rule="nonzero">
            <g id="dealer" transform="translate(874.290000, 699.056000)">
                <path d="M84.0847018,59.5972342 C79.0946413,67.0220398 70.6184097,71.9070873 61,71.9070873 C51.3815903,71.9070873 42.9053587,67.0220398 37.9152982,59.5972342 C38.4105445,59.3055315 38.974503,59.0721694 39.6214347,58.9127053 C46.2165082,57.286949 51.8742437,54.5436474 51.9131374,54.5242005 C52.4524633,53.6348315 52.7350908,52.3513397 52.8764045,51.4360415 C51.1936041,49.2294728 50.411841,46.5834054 50.0643907,44.3107174 C49.4446845,44.2601556 48.6266206,43.3785653 47.7476232,40.2359551 C46.6197061,36.2026793 47.6737252,35.3936906 48.701815,35.3936906 C48.7692308,35.3936906 48.837943,35.3975799 48.9053587,35.4040622 C48.1106309,33.1456353 48.093777,30.9235091 48.6266206,28.8673293 C49.1879862,26.4468453 50.4805532,24.508643 51.9312878,23.008643 C52.8478825,22.0220398 53.886344,21.1598963 54.9870354,20.4533276 C55.8828868,19.8232498 56.8746759,19.2852204 57.9559205,18.9144339 L57.9572169,18.9144339 L57.9572169,18.9144339 C58.8025065,18.6253241 59.7035436,18.4386344 60.6564391,18.3932584 C61.0557476,18.3582541 61.4420916,18.3414002 61.815471,18.3414002 C64.1944685,18.3414002 66.0496975,19.0116681 67.4356093,19.8414002 C69.8275713,21.1767502 70.7363872,22.9438202 70.7363872,22.9438202 C70.7363872,22.9438202 76.7571305,23.3716508 74.1214347,36.1352636 L74.1214347,36.1352636 C74.93172,36.4191876 75.5034572,37.5432152 74.5648228,40.8971478 C73.6585998,44.1369922 72.8171997,44.9732066 72.1910112,44.9732066 C72.019879,44.9732066 71.8643042,44.9096802 71.7281763,44.8163354 C71.3573898,46.9269663 70.5989628,49.295592 69.1041487,51.3141746 C69.2532411,52.3292999 69.5838375,53.8798617 70.2696629,54.7964564 C70.2696629,54.7964564 75.7601556,57.2817632 82.3785653,58.9127053 C83.025497,59.0708729 83.5894555,59.3055315 84.0847018,59.5972342 Z M105.185825,54.5423509 L105.185825,54.5423509 C105.187122,54.5423509 105.111927,55.031115 104.894123,55.9438202 C104.19274,59.054019 103.168539,62.0410545 101.859118,64.8699222 C97.1698358,75.9598099 86.1707001,94.7260156 61,114.944252 C35.8292999,94.7260156 24.8301642,75.9585134 20.1408816,64.8712187 C18.8314607,62.0423509 17.8072602,59.0553155 17.1058773,55.9451167 C16.8880726,55.0324114 16.8128781,54.5436474 16.8128781,54.5436474 L16.8141746,54.5436474 C16.2826275,51.7770095 16,48.9222126 16,46 C16,21.1469317 36.1469317,1 61,1 C85.8530683,1 106,21.1469317 106,46 C106,48.9209162 105.717373,51.7757131 105.185825,54.5423509 Z M94.6637857,46.2644771 C94.6637857,27.673293 79.5924806,12.6006914 61,12.6006914 C42.4088159,12.6006914 27.3362143,27.6719965 27.3362143,46.2644771 C27.3362143,64.8569576 42.4088159,79.9282627 61,79.9282627 C79.5911841,79.9282627 94.6637857,64.8556612 94.6637857,46.2644771 Z" id="ico_dealer"></path>
            </g>
        </g>
</svg>