<?xml version="1.0" encoding="UTF-8"?>
<svg width="32px" height="23px" viewBox="0 0 32 23" version="1.1" xmlns="http://www.w3.org/2000/svg" xmlns:xlink="http://www.w3.org/1999/xlink">
    <title>ico_email</title>
    <g id="Page-2" stroke="none" stroke-width="1" fill="none" fill-rule="evenodd">
        <g id="1" transform="translate(-1388.000000, -406.000000)" fill="#F1F2F2">
            <g id="contact" transform="translate(1368.000000, 236.000000)">
                <path d="M21.616,192.857143 L31.4377143,183.035429 C31.9394286,183.482286 32.5017143,183.856 33.1131429,184.140571 C33.8651429,184.489143 34.68,184.699429 35.5074286,184.758857 C36.496,184.829714 37.4971429,184.684571 38.424,184.334857 C39.2125714,184.036571 39.9337143,183.593143 40.5622857,183.036571 L50.384,192.857143 L21.616,192.857143 Z M29.8125714,181.428571 L20,191.241143 L20,171.616 L29.8125714,181.428571 Z M52,171.650286 L52,191.241143 L42.2091429,181.450286 C45.5142857,178.225143 48.7542857,174.934857 52,171.650286 Z M50.384,170 L39.2354286,181.148571 C38.7988571,181.579429 38.2891429,181.924571 37.7211429,182.155429 C36.5737143,182.620571 35.2548571,182.597714 34.1257143,182.090286 C33.6548571,181.878857 33.2285714,181.586286 32.8525714,181.234286 C32.6822857,181.069714 32.5108571,180.905143 32.3405714,180.740571 C32.3268571,180.722286 32.3131429,180.704 32.2971429,180.686857 C32.2354286,180.613714 32.1645714,180.548571 32.0857143,180.493714 C28.5302857,177.048 25.0514286,173.523429 21.5725714,170 L50.384,170 Z" id="ico_email"></path>
            </g>
        </g>
    </g>
</svg>