<?xml version="1.0" encoding="UTF-8"?>
<svg width="58px" height="60px" viewBox="0 0 58 60" version="1.1" xmlns="http://www.w3.org/2000/svg" xmlns:xlink="http://www.w3.org/1999/xlink">
    <title>ico_brochure</title>
    <g id="Page-1" stroke="none" stroke-width="1" fill="none" fill-rule="evenodd">
        <g id="2" transform="translate(-184.000000, -1686.000000)" fill="#58595B" fill-rule="nonzero">
            <g id="download-brochure" transform="translate(184.000000, 1684.000000)">
                <path d="M57.8424299,9.36646107 L57.8424299,57.4953367 L29.9396519,62 L29.9396519,12.798823 L55.082376,9.70560755 L57.8424299,9.36646107 Z M27.902778,62 L-2.13162821e-14,57.4953367 L-2.13162821e-14,9.36646107 L2.76005386,9.70560755 L27.902778,12.798823 L27.902778,62 Z M55.082376,5.93908663 L55.082376,8.70013799 L33.1465811,11.3983475 L55.082376,5.93908663 Z M2.76005386,5.93908663 L24.6958488,11.3983475 L2.76005386,8.70013799 L2.76005386,5.93908663 Z M52.0190853,2 L52.0190853,5.67375438 L32.1281442,10.6242955 L52.0190853,2 Z M5.82334458,2 L25.7142857,10.6242955 L5.82334458,5.67375438 L5.82334458,2 Z" id="ico_brochure"></path>
            </g>
        </g>
    </g>
</svg>