<?xml version="1.0" encoding="UTF-8"?>
<svg width="49px" height="34px" viewBox="0 0 49 34" version="1.1" xmlns="http://www.w3.org/2000/svg" xmlns:xlink="http://www.w3.org/1999/xlink">
    <title>ico_motor</title>
    <g id="Page-1" stroke="none" stroke-width="1" fill="none" fill-rule="evenodd">
        <g id="2" transform="translate(-275.000000, -2105.000000)" fill="#333333">
            <g id="final" transform="translate(0.000000, 2062.000000)">
                <g id="motor" transform="translate(189.000000, 43.000000)">
                    <path d="M132.153981,12.180246 L128.140106,12.180246 L128.140106,16.5602735 L125.194626,16.5602735 L119.196235,6.7052116 L110.133599,6.7052116 L110.133599,3.23736128 L116.64204,3.23736128 L116.64204,0.318 L99.6694338,0.318 L99.6694338,3.23736128 L106.239475,3.23736128 L106.239475,6.7052116 L98.2092604,6.7052116 L93.9504623,11.2680688 L91.2750382,11.2680688 L91.2750382,16.5602735 L89.0855172,16.5602735 L89.0855172,10.1735547 L86.348,10.1735547 L86.348,27.144683 L89.0855172,27.144683 L89.0855172,21.3054676 L91.2750382,21.3054676 L91.2750382,24.9536836 L94.0105841,24.9536836 L102.042277,33.8980467 L125.674122,33.8980467 L125.674122,28.9705158 L128.140598,28.9705158 L128.140598,33.8980467 L132.154474,33.8980467 C132.154474,33.8980467 134.34498,33.3525145 134.34498,23.040132 C134.344487,23.0406248 134.525839,12.180246 132.153981,12.180246 Z" id="ico_motor"></path>
                </g>
            </g>
        </g>
    </g>
</svg>