<?xml version="1.0" encoding="UTF-8"?>
<svg width="37px" height="48px" viewBox="0 0 37 48" version="1.1" xmlns="http://www.w3.org/2000/svg" xmlns:xlink="http://www.w3.org/1999/xlink">
    <title>ico_optional</title>
        <g id="2" transform="translate(-887.000000, -1312.000000)" fill="#58595B" fill-rule="nonzero">
            <g id="car-name" transform="translate(873.000000, 919.000000)">
                <g id="stantard-equipment" transform="translate(3.000000, 229.000000)">
                    <path d="M38.7043478,164 C40.2695652,164 41.5217391,165.043478 41.8347826,166.504348 L41.8347826,166.504348 L47.5217391,166.504348 L47.5217391,212 L11,212 L11,166.504348 L17.5217391,166.504348 C17.8347826,165.095652 19.1391304,164 20.6521739,164 L20.6521739,164 Z M17.4695652,169.008696 L13.5043478,169.008696 L13.5043478,209.495652 L44.9652174,209.495652 L44.9652174,169.008696 L41.8347826,169.008696 C41.6782609,170.573913 40.3217391,171.826087 38.7043478,171.826087 L38.7043478,171.826087 L20.6,171.826087 C18.9826087,171.826087 17.626087,170.573913 17.4695652,169.008696 L17.4695652,169.008696 Z M18.5652174,195.721739 C19.4872928,195.721739 20.2347826,196.469229 20.2347826,197.391304 C20.2347826,198.31338 19.4872928,199.06087 18.5652174,199.06087 C17.643142,199.06087 16.8956522,198.31338 16.8956522,197.391304 C16.8956522,196.469229 17.643142,195.721739 18.5652174,195.721739 Z M41.626087,196.973913 L41.626087,197.808696 L21.8,197.808696 L21.8,196.973913 L41.626087,196.973913 Z M18.5652174,188.156522 C19.4872928,188.156522 20.2347826,188.904012 20.2347826,189.826087 C20.2347826,190.748162 19.4872928,191.495652 18.5652174,191.495652 C17.643142,191.495652 16.8956522,190.748162 16.8956522,189.826087 C16.8956522,188.904012 17.643142,188.156522 18.5652174,188.156522 Z M41.626087,189.408696 L41.626087,190.243478 L21.8,190.243478 L21.8,189.408696 L41.626087,189.408696 Z M18.5652174,180.591304 C19.4872928,180.591304 20.2347826,181.338794 20.2347826,182.26087 C20.2347826,183.182945 19.4872928,183.930435 18.5652174,183.930435 C17.643142,183.930435 16.8956522,183.182945 16.8956522,182.26087 C16.8956522,181.338794 17.643142,180.591304 18.5652174,180.591304 Z M41.626087,181.843478 L41.626087,182.678261 L21.8,182.678261 L21.8,181.843478 L41.626087,181.843478 Z" id="ico_optional"></path>
                </g>
            </g>
        </g>
</svg>