<?xml version="1.0" encoding="UTF-8"?>
<svg width="32px" height="32px" viewBox="0 0 32 32" version="1.1" xmlns="http://www.w3.org/2000/svg" xmlns:xlink="http://www.w3.org/1999/xlink">
    <title>ico_twittter</title>
    <g id="Page-1" stroke="none" stroke-width="1" fill="none" fill-rule="evenodd">
        <g id="1" transform="translate(-1316.000000, -3124.000000)" fill="#FFFFFF" fill-rule="nonzero">
            <g id="footer" transform="translate(3.000000, 3072.000000)">
                <path d="M1336.95559,52.0126733 L1321.01903,52.0126733 C1316.60349,52.0126733 1313,55.6161626 1313,60.0317058 L1313,75.9936408 C1313,80.3838073 1316.60349,83.9872966 1321.01903,83.9872966 L1336.98097,83.9872966 C1341.39651,83.9872966 1345,80.3838073 1345,75.9682641 L1345,60.0317058 C1344.97462,55.6161626 1341.37113,52.0126733 1336.95559,52.0126733 Z M1336.93021,63.9904687 C1336.93021,64.1681055 1336.93021,64.3457423 1336.93021,64.5233791 C1336.93021,69.8524829 1332.81919,75.9936408 1325.28232,75.9936408 C1322.97304,75.9936408 1320.81602,75.3338469 1319.01427,74.1918961 C1319.34417,74.2172728 1319.64869,74.2426495 1319.97859,74.2426495 C1321.90722,74.2426495 1323.65821,73.6082323 1325.05393,72.5170349 C1323.25218,72.4916582 1321.75496,71.3243307 1321.22205,69.7255995 C1321.47581,69.7763529 1321.72958,69.8017296 1321.98335,69.8017296 C1322.364,69.8017296 1322.74465,69.7509762 1323.07454,69.6494695 C1321.24742,69.2688192 1319.8517,67.6447113 1319.8517,65.6907066 L1319.8517,65.6399532 C1320.35924,65.9444734 1321.01903,66.1221102 1321.67883,66.1474869 C1320.58763,65.4369397 1319.8517,64.1934821 1319.8517,62.7977645 C1319.8517,62.0618406 1320.05472,61.3766701 1320.40999,60.7676297 C1322.44013,63.2037914 1325.43458,64.8025226 1328.83505,64.9801594 C1328.75892,64.6756392 1328.73354,64.3711189 1328.73354,64.0665987 C1328.73354,61.8334504 1330.56067,60.0317058 1332.81919,60.0317058 C1333.98652,60.0317058 1335.05234,60.5138628 1335.81364,61.30054 C1336.75258,61.1229032 1337.61538,60.7930063 1338.40206,60.3108493 C1338.09754,61.2497867 1337.43775,62.0364639 1336.60032,62.5439976 C1337.43775,62.4424909 1338.22443,62.2394774 1338.96035,61.9095805 C1338.40206,62.7216344 1337.71689,63.4321816 1336.93021,63.9904687 Z" id="ico_twittter"></path>
            </g>
        </g>
    </g>
</svg>