<?xml version="1.0" encoding="UTF-8"?>
<svg width="54px" height="50px" viewBox="0 0 54 50" version="1.1" xmlns="http://www.w3.org/2000/svg" xmlns:xlink="http://www.w3.org/1999/xlink">
    <title>ico_accessories</title>
    <g id="Page-1" stroke="none" stroke-width="1" fill="none" fill-rule="evenodd">
        <g id="2" transform="translate(-462.000000, -1683.000000)" fill="#000000" fill-rule="nonzero">
            <g id="original-accessories" transform="translate(461.128000, 1683.000000)">
                <path d="M14.530667,25.3670001 C20.2329273,25.3670001 24.872,30.706253 24.872,37.2691334 C24.872,43.8320139 20.2329273,49.1712676 14.530667,49.1712676 C13.2089812,49.1712676 11.9457549,48.8813201 10.782848,48.3588938 C5.12975501,48.0606271 0.872,43.3014007 0.872,37.2691334 C0.872,31.2369999 5.12975501,26.4779067 10.782848,26.1794 C11.9457549,25.6569734 13.2089812,25.3670001 14.530667,25.3670001 Z M14.530667,25.6307331 C8.97388752,25.6307331 4.45303435,30.851773 4.45303435,37.2691334 C4.45303435,43.6864938 8.97388803,48.9075327 14.530667,48.9075327 C20.0874073,48.9075327 24.6082671,43.6864938 24.6082671,37.2691334 C24.6082671,30.851773 20.0874073,25.6307331 14.530667,25.6307331 Z M10.1287153,26.5020934 C4.95447515,27.1177469 1.13573328,31.6206003 1.13573328,37.2691334 C1.13573328,42.9178008 4.95450173,47.4207061 10.1287153,48.0362009 C6.62210173,46.1294809 4.18930195,42.0209197 4.18930195,37.2691334 C4.18930195,32.5173471 6.62210173,28.4088134 10.1287153,26.5020934 Z M13.6575418,27.11388 C18.5642078,27.11388 22.556314,31.68108 22.556314,37.294893 C22.556314,42.9086799 18.5642078,47.475906 13.6575418,47.475906 C8.76063576,47.475906 4.92463571,43.003853 4.92463571,37.294893 C4.92463571,31.5859331 8.76063525,27.11388 13.6575418,27.11388 Z M17.9268218,28.6799336 L15.4138081,35.023 C15.4112212,35.0375599 15.2219146,35.7628132 14.6450082,35.7628132 C14.0603413,35.7628132 13.7585011,35.2117736 13.5161284,34.769053 C13.3903899,34.5392267 12.5366795,33.1378669 11.6731441,31.7268715 L11.3691284,31.2303649 C10.6642636,30.0797453 10.0100353,29.0152967 9.80754179,28.6859603 C9.01790419,29.0846329 8.39443816,29.5811542 7.9399629,30.01912 L7.77746163,30.1803069 L13.0715951,35.8407338 C13.0837015,35.8509205 13.5516753,36.280253 13.4280486,36.7258269 C13.3147419,37.1349466 13.1535145,37.3169199 12.8122344,37.4209736 C12.5834935,37.4907713 8.17394072,38.5866835 6.18667312,39.0798639 L5.83406091,39.1673545 C5.62151505,39.2200808 5.45639132,39.2610224 5.35287515,39.28668 C5.47920859,40.0402353 5.67735655,40.7596611 5.93736576,41.4369488 L6.10071501,41.8382008 L12.783142,38.5623066 C12.8972482,38.5077198 13.2794351,38.331667 13.4509815,38.331667 C13.6529011,38.331667 14.2383147,38.5473734 14.2383147,39.2078806 C14.2383147,39.7436929 13.225008,46.1173471 13.0546345,47.1856129 C13.2538085,47.2013193 13.454368,47.2121734 13.6575418,47.2121734 C14.2819416,47.2121734 14.8904479,47.1338266 15.4776214,46.9885202 C15.4528801,46.5793441 15.3678691,45.1704098 15.2805831,43.6859212 L15.2456848,43.0902869 C15.1517163,41.4803185 15.064135,39.9261433 15.0563672,39.5978818 L15.0558084,39.5594532 L15.0550353,39.4225463 C15.0511677,39.0467864 15.0491149,38.8398264 15.3824004,38.49588 C15.6760706,38.1934287 16.0991938,38.2959244 16.3265728,38.4124062 L16.3834878,38.444227 L21.5676217,41.2663339 C21.8141326,40.6212 22.0037182,39.9411036 22.1267171,39.2336371 L22.1924488,38.8059335 L16.582848,37.4228932 C16.3273548,37.3858001 15.8210082,37.1294005 15.8210082,36.44252 C15.8210082,36.1072936 15.9507943,35.8663604 16.0911681,35.6560668 C16.2139413,35.4718271 19.178075,30.8382003 19.6259937,30.1381733 C19.1152475,29.5761199 18.5450347,29.0856134 17.9268218,28.6799336 Z M13.4509815,38.5953999 C13.3847418,38.5953999 13.1769698,38.6732772 12.9893669,38.7574101 L12.8979949,38.7996662 L6.20618173,42.0800139 C6.21730184,42.1041472 6.22959992,42.1273996 6.24084819,42.1514007 C6.27748861,42.1195342 6.32244813,42.0891061 6.37852824,42.0645476 C6.46113987,42.0284615 7.59377577,41.4648508 8.76243904,40.8817551 L9.15193686,40.6873651 L10.0476795,40.2399618 C10.2345543,40.146573 10.4104609,40.0586341 10.5697021,39.9789997 C10.5947327,39.9681466 11.0032443,39.7969232 11.3286673,39.9400542 L11.4150085,39.9872405 L11.4466887,40.0083597 C11.7882079,40.2346272 12.8271687,40.9231872 12.8065815,41.7544402 C12.786741,42.5370269 12.3993814,45.8835865 12.3829019,46.0256133 C12.3749012,46.2629465 12.2366078,46.7315602 11.7761016,46.7315602 C11.554608,46.7315602 10.692875,46.5855335 9.65164784,46.0692677 C10.5997812,46.6530791 11.6590351,47.033853 12.7909819,47.1628671 C12.9388212,46.2377169 13.1288862,45.0343219 13.3132544,43.8435544 L13.3977683,43.2959252 C13.70489,41.2990062 13.9745818,39.4664098 13.9745818,39.2078806 C13.9745818,38.7096404 13.5197549,38.5953999 13.4509815,38.5953999 Z M21.3569548,41.4518808 L21.1709339,41.8607065 L20.4128203,41.6920399 C19.9647409,42.6996937 19.3708749,43.5612131 18.548001,44.3905201 C17.5408212,45.4062794 16.4612212,46.0171599 15.7039153,46.3601206 C15.7185281,46.6032134 15.7300485,46.7944142 15.7376219,46.9194528 C18.1860066,46.2212324 20.2244665,44.3206601 21.3490176,41.7965282 L21.4701811,41.5135324 L21.3569548,41.4518808 Z M10.7279666,40.2003699 L10.6804483,40.2182535 L10.59253,40.2622669 C10.5693032,40.2738873 10.5420147,40.2875372 10.5110026,40.3030471 L10.2829501,40.4170712 C10.0156217,40.5507042 9.63857677,40.7390972 9.22481757,40.945649 L8.80152407,41.156898 L8.44178634,41.3363183 C8.20213693,41.4558053 7.96492526,41.5739932 7.74266889,41.6846062 L7.4220655,41.8440599 C6.91163626,42.0977324 6.53379494,42.2844488 6.48412819,42.3061471 C6.4161284,42.3358794 6.38244819,42.3798532 6.36567523,42.4084929 C6.59537494,42.8636834 6.85462802,43.2948595 7.14159856,43.6976952 L7.3619948,43.9944406 L7.37346179,43.9844939 C9.15418179,46.0361744 11.4065011,46.4678272 11.7761015,46.4678272 C12.0972746,46.4678272 12.1191679,46.0241993 12.1199411,46.0054005 C12.1248218,45.9605742 12.5235147,42.5184925 12.5428486,41.7477467 C12.5533723,41.3255312 12.1939124,40.8545478 11.473757,40.3461542 L11.3011687,40.2281737 L11.2687153,40.2066802 C11.112078,40.1023333 10.8580537,40.1561342 10.7279666,40.2003699 Z M19.2941334,41.127481 C18.9650664,42.0524139 18.5357553,42.8912139 18.010208,43.6169728 C17.2580209,44.6551075 16.3347686,45.357614 15.668875,45.7760935 C15.6752003,45.8814544 15.6812214,45.9817738 15.6869547,46.0772938 C16.4176218,45.7365467 17.4214345,45.1522266 18.3607411,44.204841 C19.1612477,43.3979867 19.7385283,42.5605193 20.173355,41.5813465 C19.9796213,41.4812672 19.6586354,41.3155873 19.2941334,41.127481 Z M16.0626591,40.3658721 L15.9842884,40.4413197 L15.8990345,40.5232136 C15.5678343,40.8391865 15.4574085,41.6312936 15.4421335,41.9175058 C15.5084217,43.0773467 15.5890085,44.4387603 15.6508218,45.4743072 C16.2843952,45.0613474 17.1138884,44.4043344 17.7964486,43.4621734 C18.3138661,42.7480926 18.7363941,41.9205474 19.058261,41.0057993 C18.4377817,40.6857197 17.7496754,40.33108 17.3603952,40.1315866 C16.7171467,39.8019084 16.4229604,40.0219134 16.0626591,40.3658721 Z M15.571941,38.6795063 C15.3425419,38.9159981 15.3180812,39.0366897 15.3178188,39.3098716 L15.3185017,39.4199868 L15.3195413,39.5594532 C15.3195413,39.671587 15.3452218,40.1806263 15.3839995,40.8839863 C15.4466305,40.7153681 15.5279009,40.5535078 15.6334204,40.4235005 L15.7171945,40.3323597 L15.8011677,40.2516132 C16.2050078,39.8611602 16.6238087,39.4574533 17.4806873,39.8969736 C18.2297921,40.2808459 20.0887865,41.2408164 20.434115,41.4191368 L20.4742339,41.4398527 L21.0189808,41.5577991 L21.124769,41.3254525 L16.2516214,38.672413 C16.228955,38.659027 15.8233285,38.4188668 15.571941,38.6795063 Z M45.2275564,0.0111294195 L48.3554506,0.279247781 C49.9130335,0.412756765 50.2947963,1.05349806 50.8059211,2.22124591 C51.1654214,3.04261604 51.6251233,4.44688288 51.8215271,5.63960311 C51.9796143,6.59965571 51.9624351,7.44286949 51.590157,7.80984264 C51.4310433,7.96666519 51.3198953,7.91257344 51.6272666,7.99984946 C53.138247,8.42893738 54.6996649,8.87237148 54.6286484,11.5074946 C54.5698676,13.6886477 54.1880063,17.2742484 53.6436152,20.4549287 C53.2421439,22.8006646 52.7501282,24.9339178 52.2302331,26.1396621 C53.8595716,26.0471058 53.6630856,28.0227809 53.2905776,29.0640081 C53.1478385,29.4629994 52.9275872,30.4380387 52.6951906,31.215311 C52.3818822,32.2632802 52.3617302,32.175339 51.5623351,32.8091823 L42.7356487,39.8078434 C42.2890695,40.1619321 41.6604325,39.965208 41.2165796,39.7100562 C40.5717816,39.3393795 40.4005225,39.1582579 40.3767655,38.483273 C40.3711075,38.3227305 40.3660326,38.1788581 40.3750164,38.0520829 C40.3936656,37.7885796 40.4778457,37.8465391 40.1747119,37.8236033 C39.6171899,37.7814106 39.0890912,37.6917121 38.6364597,37.5689607 C37.1198213,37.1576679 34.3643037,36.1525156 32.0288901,34.7575364 C31.6729701,34.5449387 31.3266827,34.3231108 30.9956695,34.0927507 L30.6622173,34.3571326 C30.2156462,34.7112378 29.5869929,34.514489 29.1431482,34.2593454 C28.5380465,33.9114895 28.3415851,33.6424925 28.3033341,33.0325951 C28.2890126,32.6263362 28.2786163,32.3314635 28.5207687,32.1258212 C28.5535423,32.0979911 28.6392334,32.047603 28.7252448,32.0024704 C28.5756323,31.8010737 28.4429445,31.5960227 28.3297518,31.3875555 C28.0274884,30.8308876 27.8798138,30.2281263 27.8723,29.6162416 C27.8612385,28.7175154 28.1565875,27.7823941 28.6773941,27.0481686 C30.3735692,24.6570537 34.5948197,23.741485 37.2567711,24.0485031 C36.5137507,23.1552624 36.2857392,21.401407 36.4367149,19.3313608 C36.6327164,16.6438787 37.3947392,13.6589946 38.4636322,11.1869268 C39.5925542,8.57602884 41.0774126,6.62143366 42.628155,6.56094484 C41.9375018,5.45531998 42.0673647,3.84164982 42.3892546,2.64032353 C42.769572,1.22077436 43.4972198,-0.137169187 45.2275564,0.0111294195 Z M52.0871162,26.566853 C51.2856928,26.7516782 50.8215647,27.7822792 50.4218343,28.6700178 C50.2171693,29.1245544 50.0281972,29.5442397 49.8052278,29.8297837 C49.0365041,30.8142913 47.8201829,31.6181537 46.9036451,32.5221519 C45.4624412,33.9436309 46.7201421,35.1669076 44.3258657,36.9368501 C43.6550442,37.43275 42.7533782,37.6998172 41.8166638,37.8014805 C41.5225301,37.8334083 41.2245287,37.8490684 40.9289251,37.8504644 C40.7664117,37.9200849 40.7741638,38.1403772 40.7857507,38.4688365 C40.8042521,38.9934124 40.8945501,39.0533674 41.4202674,39.355598 C41.6951606,39.5136195 42.1915943,39.7162562 42.4806365,39.4870704 L51.3984585,32.4161446 C52.0859584,31.8710226 52.0332462,32.0139917 52.2922412,31.1265568 C52.5200391,30.3459834 52.78686,29.253629 52.9040437,28.9260811 C53.1983827,28.1033314 53.4996278,26.3412723 52.0871162,26.566853 Z M7.59546648,30.3717203 C7.49340808,30.4831603 7.40599504,30.5854003 7.33140856,30.6764134 C7.82354165,31.2184666 10.4288481,34.1065734 10.7394347,34.8294534 C10.9153553,35.6148671 10.411328,37.1484669 9.90471485,37.417107 C9.71111475,37.5197755 8.79429844,37.7963502 7.81805721,38.0766519 L7.32805763,38.2163255 C6.43191431,38.4700744 5.57879906,38.703122 5.28000019,38.7843871 C5.28996824,38.8650532 5.30240008,38.9446267 5.31394184,39.0246001 C5.72968685,38.9215036 7.03762334,38.5970711 8.44271417,38.2474622 L8.97262454,38.1155618 C9.39771163,38.0097104 9.82259844,37.9037999 10.225819,37.8031266 L10.9970114,37.6103323 L10.9970114,37.6103323 L11.4492269,37.4969653 C12.1633187,37.3176891 12.6648514,37.1903482 12.7354878,37.168813 C12.9590616,37.1004404 13.0754668,37.0101734 13.1741017,36.6552398 C13.233171,36.4425707 13.0411288,36.1863284 12.9257299,36.0666284 L12.8866881,36.0284931 L7.59546648,30.3717203 Z M19.8080738,30.3428135 L19.8061113,30.3459103 L19.8041289,30.3490269 L19.9967416,30.5898269 L19.5827951,31.2001734 C19.7847991,31.4661468 19.9474089,31.7189732 20.0515939,31.9345199 C20.4341806,32.7254536 21.6438608,35.4720133 21.3897287,38.004307 C21.6628689,38.0748435 21.8536272,38.1237994 21.9024435,38.1363121 L21.9145008,38.1394002 L21.9922657,38.1592396 L22.0721546,38.5046538 L22.221941,38.5415598 C22.2667937,38.1328399 22.2925811,37.7173736 22.2925811,37.2948933 C22.2925811,34.5890532 21.3431995,32.1339334 19.8080738,30.3428135 Z M7.16610144,30.88668 C7.13088009,30.9336347 7.10232759,30.973255 7.08056337,31.0041824 L7.03575489,31.0695271 L7.02884813,31.0800933 L7.01802152,31.07324 C5.86933328,32.7636931 5.18836859,34.9184671 5.18836859,37.2948933 C5.18836859,37.7103332 5.21156856,38.1180938 5.25196824,38.5187865 C6.53268824,38.170227 9.453488,37.3578002 9.78108811,37.1840138 C10.1213011,37.0038533 10.6505817,35.6398538 10.4896218,34.9099334 C10.2115416,34.2681202 7.71306648,31.4906534 7.16610144,30.88668 Z M14.6553018,36.0314534 C15.2723947,36.0314534 15.7743997,36.5775868 15.7743997,37.2489196 C15.7743997,37.9200937 15.2723947,38.4662536 14.6553018,38.4662536 C14.0382079,38.4662536 13.5362344,37.9200937 13.5362344,37.2489196 C13.5362344,36.5775868 14.0382079,36.0314534 14.6553018,36.0314534 Z M16.9902353,34.7451069 C16.6154875,35.32972 16.3466663,35.7483072 16.3106078,35.8023599 C16.1751413,36.0055602 16.0847411,36.1923064 16.0847411,36.44252 C16.0847411,37.0250932 16.5393169,37.1452272 16.6224043,37.1622993 L16.6346078,37.1645731 L21.7849273,38.4338805 L21.7713022,38.374947 C21.2623686,38.2444935 18.5394886,37.543933 17.9584482,37.3534799 C17.2687143,37.1272134 16.9011951,36.0546264 16.9011951,35.3673471 C16.9011951,35.1313466 16.940394,34.9198536 16.9902353,34.7451069 Z M14.6553018,36.2951863 C14.183733,36.2951863 13.7999683,36.723 13.7999683,37.2489196 C13.7999683,37.774707 14.183733,38.2025196 14.6553018,38.2025196 C15.1269011,38.2025196 15.5106353,37.7747069 15.5106353,37.2489196 C15.5106353,36.723 15.1269011,36.2951863 14.6553018,36.2951863 Z M19.4263152,31.4308399 L18.8383147,32.2978001 C19.5639678,33.74812 19.9647999,35.5181202 19.9647999,37.2948933 C19.9647999,37.4063333 19.9614613,37.5187336 19.957968,37.6311064 C20.3753814,37.7410796 20.7908477,37.84924 21.1309539,37.9373463 C21.3613331,35.485267 20.1871408,32.8201202 19.8141326,32.0494002 C19.7265003,31.8682001 19.5925342,31.6562 19.4263152,31.4308399 Z M18.6662078,32.5515868 L17.4214344,34.3868397 C17.4214344,34.3868397 17.164928,34.8056131 17.164928,35.3673471 C17.164928,35.9720936 17.4982085,36.9249206 18.0408741,37.102893 C18.2924223,37.1853739 18.973355,37.3704935 19.6954883,37.5617736 C19.6977812,37.472707 19.701067,37.3834004 19.701067,37.2948933 C19.701067,35.6127868 19.3323414,33.9405466 18.6662078,32.5515868 Z M47.6625227,28.6266754 C48.0336018,29.7971825 46.3031011,31.262127 45.4859929,31.8809918 C43.2871267,33.5464051 39.9256205,35.028685 37.8988017,34.7598111 C35.6670304,34.4637969 32.9658344,33.4061378 31.100831,32.1979627 C29.9925783,31.4800378 28.685023,30.3893833 28.3186,29.0427721 C28.2915911,29.2326065 28.2789612,29.4226215 28.2812852,29.6114294 C28.3081955,31.800507 30.549509,33.3971129 32.2389996,34.4062808 C34.5353246,35.7779054 37.249208,36.7674551 38.7439206,37.1728025 C39.5876025,37.4016105 40.7069576,37.5098268 41.7733543,37.3940884 C42.6442175,37.2995777 43.4756143,37.056366 44.082071,36.6080458 C45.2027811,35.7795683 45.4506715,35.0655707 45.61125,34.3684671 L45.7101804,33.9216961 C45.8352884,33.3761398 46.0104083,32.8281034 46.6165573,32.2302519 C47.51259,31.3464796 48.737353,30.5327219 49.4828452,29.5779742 C49.6124207,29.4120364 49.7371348,29.17399 49.8650022,28.9024473 C49.1693233,29.1826289 48.527728,28.9747777 47.6625227,28.6266754 Z M17.3377288,28.5664936 L17.0322885,28.6709202 C16.9377761,28.8850418 16.5952453,29.6609441 16.2270545,30.4903286 L16.0250148,30.944969 C15.6211918,31.8526372 15.2349447,32.7139686 15.1549549,32.869053 C14.9752003,33.2184396 14.4899677,33.5917734 13.6681019,33.5917734 C13.3882079,33.5917734 13.1582885,33.4887867 12.9758615,33.3548664 C13.3759419,34.0131601 13.675301,34.5105468 13.7474344,34.6424672 C14.0132211,35.1278268 14.2481017,35.4990803 14.6450082,35.4990803 C14.9792563,35.4990803 15.1305523,35.052327 15.1585999,34.9589333 L15.1634663,34.941987 L17.6113819,28.7603866 L17.3377288,28.5664936 Z M46.9372646,28.3441698 C45.6691264,28.5606354 43.369492,29.6761802 41.4189207,31.0598352 C39.9316726,32.1148337 38.6569977,33.3173836 38.2206751,34.3782618 C40.1641432,34.4780774 43.2036282,33.0953668 45.2389955,31.5537971 C45.8790142,31.0690572 47.4631626,29.7462359 47.2920021,28.830043 C47.2576928,28.6464168 47.1440401,28.4819326 46.9372646,28.3441698 Z M29.5835931,29.5797726 C29.4715418,29.842159 29.4406651,30.0965553 29.5088731,30.3355132 C29.9785853,30.8796827 30.6074932,31.3907335 31.3237675,31.8547384 C33.1186742,33.0174934 35.662867,34.0143517 37.7999797,34.3326448 C38.2322046,33.16029 39.5931619,31.8529728 41.1815476,30.7262188 C42.9182895,29.4942457 44.9387687,28.4678738 46.3060081,28.0727749 C45.6681492,27.8014621 44.8182837,27.4231073 43.9012943,27.0148694 C42.7337107,26.5011415 41.4094359,25.9819198 40.3663036,25.4835317 C37.8328355,24.2731887 30.6097761,27.1768162 29.5835931,29.5797726 Z M28.985915,32.3299443 L28.8797352,32.3824512 C28.8407102,32.4024615 28.8036602,32.4230754 28.7854052,32.4385795 C28.6946063,32.5156809 28.7020627,32.7270141 28.7123193,33.0181586 C28.7302951,33.5278462 28.8723117,33.632088 29.346836,33.9048872 C29.621721,34.0629087 30.1181628,34.2655454 30.4072051,34.0363596 L30.6493903,33.8443409 C30.0098562,33.3710976 29.4399753,32.8645222 28.985915,32.3299443 Z M12.9205659,27.9402265 L12.6095417,27.9470534 C11.824842,27.9835233 11.1219104,28.1468626 10.5007301,28.3808511 L10.2395151,28.4852935 L12.6906879,32.6120136 C12.6997018,32.6294006 13.0432748,33.3280405 13.6681019,33.3280405 C14.3722665,33.3280405 14.7827951,33.015747 14.9205819,32.7482797 C15.0564218,32.4847604 16.1467681,30.0224135 16.6086089,28.9775334 C15.5032602,28.3475437 14.3704768,28.0022642 13.2313717,27.9478505 L12.9205659,27.9402265 Z M28.9765534,27.3361105 C28.4116654,28.1595007 28.5776771,28.9577955 29.0930227,29.7778845 C29.117215,29.6590174 29.1554331,29.5394029 29.2066836,29.4193778 C30.1954368,27.1040834 35.4099735,25.1370472 37.9809863,24.8267033 C38.7782135,24.7305748 38.6926209,24.7526074 37.9932302,24.5898558 C35.358953,23.9762384 30.6662329,24.8731498 28.9765534,27.3361105 Z M13.6575418,27.3776135 C12.4057545,27.3776135 11.2266672,27.6828134 10.1671416,28.2304132 C10.8693816,27.9366002 11.6791411,27.7262267 12.5971953,27.6835868 C13.9904479,27.6188666 15.3729278,27.9751601 16.7154672,28.7356668 C16.7634409,28.6270588 16.7964171,28.5523451 16.8089334,28.5239914 L16.8143991,28.5116134 L16.8375681,28.4587066 L17.2937021,28.3028665 C16.1877328,27.7106002 14.9561278,27.3776135 13.6575418,27.3776135 Z M53.2557346,10.0998773 C51.4001256,11.8257548 48.0442116,26.702686 49.1520865,28.3893763 C49.4033705,28.7719028 49.8769669,28.4709779 50.1531576,28.2693348 C50.5269219,27.4494757 50.9716125,26.5793926 51.7249881,26.2563038 C52.2747909,25.1747234 52.8073651,22.9104823 53.2394422,20.3859652 C53.7814765,17.2190234 54.1614573,13.6576889 54.2196632,11.4978702 C54.2336645,10.9784925 54.1571953,9.26151675 53.2557346,10.0998773 Z M52.8261786,9.60870744 C52.6241413,9.67249744 52.4242392,9.77549924 52.2271126,9.9134837 C51.3059269,10.5583227 50.4450822,11.9444988 49.6989166,13.6813145 C49.3367392,14.5243312 49.0029503,15.4475452 48.7032819,16.4076471 C47.9802656,18.7240337 46.1510578,26.6888982 47.4756447,28.10793 C47.8919467,28.2778588 48.3520099,28.4803641 48.7926108,28.5679768 C47.6314818,26.5600864 50.9322446,11.7014513 52.9766615,9.79994605 C53.2606617,9.53581866 53.6086572,9.3616608 52.8261786,9.60870744 Z M40.4057289,13.8937069 C40.2857367,14.8058103 40.1907086,15.7438961 40.0964525,16.6752728 C39.8010542,19.5941579 39.5121269,22.4474546 38.4776746,24.2989248 C39.1722038,24.5202189 39.859991,24.8113881 40.534943,25.0951994 C41.6296707,25.5556075 42.9031057,26.1225156 44.0680943,26.6411625 C45.2072319,27.1483045 46.2414297,27.608729 46.9056735,27.8783994 C46.0505853,25.3639665 47.4299537,19.1237723 48.3036829,16.3135142 L40.4057289,13.8937069 Z M42.5349336,6.97778883 C41.2049269,7.11427052 39.8813912,8.93801737 38.8389486,11.3489147 C37.788828,13.7775825 37.038269,16.7199455 36.8457001,19.3602339 C36.6690376,21.7824061 37.0010116,23.7254225 38.0775253,24.1733978 C39.1054493,22.4005565 39.3939578,19.551144 39.6890604,16.6351823 C39.7262738,16.2674685 39.7635948,15.8987218 39.8025258,15.5308207 L39.8829799,14.7967025 C40.244775,11.6252327 40.8027398,8.61133442 42.5349336,6.97778883 Z M16.7822564,5 C22.9446496,5 28.1497778,8.61965812 29.6754188,13.525641 C30.4232821,14.5128205 30.872,15.7692308 30.872,17.1153846 C30.872,20.4059829 28.2096068,23.0982906 24.889094,23.0982906 C23.1540513,23.0982906 21.5984957,22.3504274 20.4916581,21.1837607 C19.2651624,21.3034188 18.0087521,21.3632479 16.7523419,21.3632479 C15.5856752,21.3632479 14.389094,21.3333333 13.2224274,21.2136752 C12.1455043,22.3803419 10.5899487,23.0982906 8.85490598,23.0982906 C5.56430769,23.0982906 2.872,20.4358974 2.872,17.1153846 C2.872,15.9786325 3.1711453,14.9316239 3.70960684,14.034188 C5.02584615,8.88888889 10.380547,5 16.7822564,5 Z M8.85490598,11.7307692 C5.89336752,11.7307692 3.4702906,14.1538462 3.4702906,17.1153846 C3.4702906,20.0769231 5.89336752,22.5 8.85490598,22.5 C11.8164444,22.5 14.2395214,20.0769231 14.2395214,17.1153846 C14.2395214,14.1538462 11.8164444,11.7307692 8.85490598,11.7307692 Z M24.889094,11.7307692 C21.9275556,11.7307692 19.5044786,14.1538462 19.5044786,17.1153846 C19.5044786,20.0769231 21.9275556,22.5 24.889094,22.5 C27.8506325,22.5 30.2737094,20.0769231 30.2737094,17.1153846 C30.2737094,14.1538462 27.8506325,11.7307692 24.889094,11.7307692 Z M24.889094,11.8504274 C27.7908034,11.8504274 30.1540513,14.2136752 30.1540513,17.1153846 C30.1540513,20.017094 27.7908034,22.3803419 24.889094,22.3803419 C21.9873846,22.3803419 19.6241368,20.017094 19.6241368,17.1153846 C19.6241368,14.2136752 21.9873846,11.8504274 24.889094,11.8504274 Z M8.85490598,11.8504274 C11.7566154,11.8504274 14.1497778,14.2136752 14.1198632,17.1153846 C14.1198632,20.017094 11.7566154,22.3803419 8.85490598,22.3803419 C5.95319658,22.3803419 3.58994872,20.017094 3.58994872,17.1153846 C3.58994872,14.2136752 5.95319658,11.8504274 8.85490598,11.8504274 Z M9.06430769,12.0897436 L9.06430769,12.6282051 L8.6754188,12.6282051 L8.6754188,12.0897436 C8.24464957,12.1136752 7.83302564,12.1758974 7.44054701,12.2917265 L7.14977778,12.3888889 L7.2694359,12.7179487 L7.08994872,12.7777778 L6.9702906,12.4487179 C6.49664387,12.6481481 6.04377113,12.9099003 5.64629566,13.2339744 L5.41473504,13.4358974 L5.7737094,13.7948718 L5.50447863,14.0641026 L5.14550427,13.7051282 C4.84635897,14.0292023 4.58876163,14.3740503 4.3900239,14.756984 L4.27798291,14.991453 L4.57712821,15.1410256 L4.48738462,15.3205128 L4.18823932,15.1709402 C3.98311111,15.6324786 3.86589499,16.1599512 3.81775266,16.6968428 L3.79935043,16.965812 L4.33781197,16.965812 L4.33781197,17.3547009 L3.79935043,17.3547009 C3.82328205,17.7854701 3.88550427,18.197094 4.00133333,18.5895726 L4.09849573,18.8803419 L4.42755556,18.7606838 L4.48738462,18.9401709 L4.15832479,19.0598291 C4.35775499,19.5334758 4.61950712,19.9655745 4.9435812,20.3561254 L5.14550427,20.5854701 L5.50447863,20.2264957 L5.7737094,20.4957265 L5.41473504,20.8547009 C6.31217094,21.6923077 7.53866667,22.2008547 8.85490598,22.2008547 C10.083396,22.2008547 11.2337094,21.7578538 12.1112732,21.0177816 L12.2950769,20.8547009 L11.9361026,20.4957265 L12.2053333,20.2264957 L12.5643077,20.5854701 C12.8514872,20.274359 13.1003761,19.9249573 13.3109744,19.5525812 L13.4617436,19.2692308 L13.1625983,19.1196581 L13.2523419,18.9401709 L13.5514872,19.0897436 C13.7566154,18.6282051 13.8738315,18.1227106 13.9219738,17.5920984 L13.9403761,17.3247863 L13.372,17.3247863 L13.372,16.9358974 L13.9104615,16.9358974 C13.9104615,16.5121083 13.8481396,16.0883191 13.7234957,15.6818416 L13.6412308,15.4401709 L13.3121709,15.5598291 L13.2224274,15.3803419 L13.5514872,15.2606838 C13.346359,14.7478632 13.0752967,14.2789988 12.7383004,13.8729287 L12.5643077,13.6752137 L12.2053333,14.034188 L11.9361026,13.7649573 L12.2950769,13.4059829 C11.9959316,13.1068376 11.6344644,12.8492403 11.2626102,12.6505025 L11.0386667,12.5384615 L10.889094,12.8675214 L10.7096068,12.7777778 L10.889094,12.508547 C10.3207179,12.2692308 9.72242735,12.1196581 9.06430769,12.0897436 Z M25.0087521,12.0299145 L25.0087521,12.3589744 L24.7694359,12.3589744 L24.7694359,12.0299145 C24.314735,12.0538462 23.8791795,12.1160684 23.4627692,12.2318974 L23.1540513,12.3290598 L23.2737094,12.6581197 L23.0942222,12.7179487 L22.9745641,12.3888889 C22.4617436,12.5940171 21.9709011,12.8870574 21.5585515,13.2491715 L21.3591795,13.4358974 L21.5984957,13.6752137 L21.4489231,13.8247863 L21.2096068,13.5854701 C20.9104615,13.9095442 20.6320902,14.2751662 20.4091162,14.6823362 L20.2822564,14.9316239 L20.5814017,15.0811966 L20.4916581,15.2606838 L20.1925128,15.1111111 C19.9873846,15.5982906 19.8481905,16.1514042 19.812607,16.7139369 L19.8036239,16.9957265 L20.1625983,16.9957265 L20.1625983,17.2051282 L19.8036239,17.2051282 C19.8036239,17.6787749 19.8867198,18.1316477 20.0182884,18.5637464 L20.1027692,18.8205128 L20.4318291,18.7008547 L20.4916581,18.8803419 L20.1625983,19 C20.3677265,19.5384615 20.6607668,20.010989 21.0228809,20.4175824 L21.2096068,20.6153846 L21.4489231,20.3760684 L21.5984957,20.525641 L21.3591795,20.7649573 C22.2566154,21.6324786 23.4831111,22.1709402 24.8591795,22.1709402 C26.14351,22.1709402 27.2975461,21.7018803 28.1996796,20.9096904 L28.389094,20.7350427 L28.1497778,20.4957265 L28.2993504,20.3461538 L28.5386667,20.5854701 C28.8627407,20.261396 29.1244929,19.895774 29.3412347,19.488604 L29.4660171,19.2393162 L29.1668718,19.0897436 L29.2566154,18.9102564 L29.5557607,19.0598291 C29.7608889,18.5982906 29.900083,18.0708181 29.9356665,17.5339264 L29.9446496,17.2649573 L29.5856752,17.2649573 L29.5856752,17.0555556 L29.9446496,17.0555556 C29.9207179,16.6008547 29.8584957,16.1652991 29.7426667,15.7488889 L29.6455043,15.4401709 L29.3164444,15.5598291 L29.2566154,15.3803419 L29.5856752,15.2606838 C29.380547,14.7478632 29.1094847,14.2570208 28.7536501,13.8446712 L28.5685812,13.6452991 L28.329265,13.8846154 L28.1796923,13.7350427 L28.4190085,13.4957265 C28.0949345,13.1716524 27.7293124,12.8891263 27.3221425,12.6654598 L27.0728547,12.5384615 L26.9232821,12.8675214 L26.7437949,12.7777778 L26.8933675,12.4487179 C26.3249915,12.1794872 25.6668718,12.0598291 25.0087521,12.0299145 Z M19.0856752,18.7008547 C18.1882393,18.7905983 17.7993504,18.8205128 16.7523419,18.8205128 C15.7352479,18.8205128 15.4660171,18.7606838 14.6284103,18.7008547 C14.6059744,18.857906 14.5498846,19.0149573 14.4980016,19.1593884 L14.4489231,19.2991453 L19.2651624,19.2991453 C19.2053333,19.0897436 19.1455043,18.9102564 19.0856752,18.7008547 Z M8.85490598,15.3504274 C9.84208547,15.3504274 10.6198632,16.1581197 10.6198632,17.1153846 C10.6198632,18.0726496 9.84208547,18.8803419 8.85490598,18.8803419 C7.89764103,18.8803419 7.08994872,18.1025641 7.08994872,17.1153846 C7.08994872,16.1581197 7.8677265,15.3504274 8.85490598,15.3504274 Z M24.889094,15.3504274 C25.846359,15.3504274 26.6540513,16.1581197 26.6540513,17.1153846 C26.6540513,18.0726496 25.8762735,18.8803419 24.889094,18.8803419 C23.9318291,18.8803419 23.1241368,18.1025641 23.1241368,17.1153846 C23.1241368,16.1581197 23.9019145,15.3504274 24.889094,15.3504274 Z M8.85490598,15.7991453 C8.10704274,15.7991453 7.50875214,16.3974359 7.50875214,17.1452991 C7.50875214,17.8931624 8.10704274,18.491453 8.85490598,18.491453 C9.60276923,18.491453 10.2010598,17.8931624 10.2010598,17.1452991 C10.2010598,16.3974359 9.60276923,15.7991453 8.85490598,15.7991453 Z M24.889094,15.7991453 C24.1412308,15.7991453 23.5429402,16.3974359 23.5429402,17.1452991 C23.5429402,17.8931624 24.1412308,18.491453 24.889094,18.491453 C25.6369573,18.491453 26.2352479,17.8931624 26.2352479,17.1452991 C26.2352479,16.3974359 25.6369573,15.7991453 24.889094,15.7991453 Z M24.889094,15.9786325 C25.5169049,15.9786325 26.0258462,16.4875737 26.0258462,17.1153846 C26.0258462,17.7431955 25.5169049,18.2521368 24.889094,18.2521368 C24.2612831,18.2521368 23.7523419,17.7431955 23.7523419,17.1153846 C23.7523419,16.4875737 24.2612831,15.9786325 24.889094,15.9786325 Z M8.85490598,15.9786325 C9.48271685,15.9786325 9.99165812,16.4875737 9.99165812,17.1153846 C9.99165812,17.7431955 9.48271685,18.2521368 8.85490598,18.2521368 C8.22709511,18.2521368 7.71815385,17.7431955 7.71815385,17.1153846 C7.71815385,16.4875737 8.22709511,15.9786325 8.85490598,15.9786325 Z M16.8121709,7.72222222 C13.0429402,7.72222222 9.72242735,9.27777778 7.68823932,11.2521368 C8.07712821,11.1623932 8.46601709,11.1324786 8.88482051,11.1324786 C12.1006325,11.1324786 14.7450398,13.6752291 14.8635791,16.8900294 L14.8677265,17.1153846 L14.8677265,17.3547009 L18.906188,17.3547009 C18.906188,17.2948718 18.8762735,17.2051282 18.9361026,17.1153846 C18.9361026,13.8247863 21.5984957,11.1324786 24.9190085,11.1324786 C25.2480684,11.1324786 25.5472137,11.1324786 25.846359,11.1923077 C23.8121709,9.27777778 20.5215726,7.72222222 16.8121709,7.72222222 Z M22.8848205,16.7264957 L22.914735,17.2948718 L20.7309744,17.1452991 L22.8848205,16.7264957 Z M43.0490064,7.07128946 C41.4892966,8.33730085 40.8462888,10.7706248 40.4617669,13.4831615 L48.4273868,15.9237119 C48.7009415,15.0791761 49.0004457,14.267808 49.3220071,13.5193267 C50.0955511,11.7187866 51.0025467,10.2715552 51.9929422,9.57827416 C52.2358419,9.40824688 52.4836194,9.28248171 52.7356014,9.20641493 C53.1810884,9.07194516 53.5613566,9.19344014 52.7557451,8.81717934 C52.3688581,8.63650123 51.9405504,8.51478453 51.5166031,8.39439815 C51.3276884,8.34075805 51.1395786,8.28733147 50.9553529,8.22943761 C50.2792101,8.59287964 49.7774387,8.64716848 49.0668389,8.63484243 C47.3061676,8.60427775 44.3898774,8.31142516 43.0490064,7.07128946 Z M8.85490598,12.8974359 L9.15405128,15.0811966 L8.55576068,15.0811966 L8.85490598,12.8974359 Z M17.9190085,13.1666667 L17.9190085,13.5854701 L15.2865299,13.5854701 L15.2865299,13.1666667 L17.9190085,13.1666667 Z M16.7822564,7.09401709 C11.2779829,7.09401709 6.61131624,9.06837607 4.72670085,12.7478632 C5.28510541,12.2426401 5.93805466,11.8083254 6.66453866,11.528959 L6.94037607,11.4316239 L6.79080342,11.4316239 C8.79507692,9.12820513 12.5044786,7.57264957 16.7523419,7.57264957 C21.0002051,7.57264957 24.6796923,9.0982906 26.7138803,11.4017094 C27.4318291,11.6111111 28.0600342,11.9700855 28.6284103,12.4188034 C26.6540513,8.94871795 22.1070427,7.09401709 16.7822564,7.09401709 Z M18.9959316,12.1794872 L18.9959316,12.5982906 L14.2096068,12.5982906 L14.2096068,12.1794872 L18.9959316,12.1794872 Z M19.863453,11.2222222 L19.863453,11.6410256 L13.372,11.6410256 L13.372,11.2222222 L19.863453,11.2222222 Z M17.9190085,9.60683761 L17.9190085,10.025641 L15.2865299,10.025641 L15.2865299,9.60683761 L17.9190085,9.60683761 Z M17.9190085,8.7991453 L17.9190085,9.21794872 L15.2865299,9.21794872 L15.2865299,8.7991453 L17.9190085,8.7991453 Z M49.4055959,1.26093873 C49.1580402,1.38887184 48.9346191,1.81683473 48.7562896,2.40150521 C48.5672929,3.02114194 48.4394912,3.80308676 48.3918129,4.59638864 C48.2855592,6.36410573 48.5576357,8.17601923 49.4237114,8.22811009 C49.873017,8.23109641 51.0749263,7.88154069 51.3677953,7.44332935 C51.5648644,7.14844843 51.5448766,6.4797949 51.4173541,5.70536396 C51.2237341,4.52958488 50.7700105,3.14848379 50.4223106,2.36363195 C50.2638293,2.00588076 49.810467,1.05169966 49.4055959,1.26093873 Z M42.7854128,2.74617486 C42.4469596,4.00929565 42.2896525,5.94849352 43.4368624,6.86472746 C44.7032926,7.87617011 47.0635718,8.15160527 48.6454208,8.21240614 C48.0813622,7.50546876 47.8955599,6.02426468 47.9828277,4.57232779 C48.0322551,3.74982441 48.1662322,2.93429294 48.3649436,2.28281049 C48.5300437,1.74153987 48.7454253,1.30569356 49.0023755,1.05601911 C49.2201303,0.844439646 49.4509913,0.89668372 48.9103776,0.774318277 C48.7434462,0.736527138 48.5495141,0.707752659 48.3217654,0.688232985 L45.1938712,0.420114623 C43.6957095,0.291705226 43.1118685,1.52773498 42.7854128,2.74617486 Z" id="ico_accessories"></path>
            </g>
        </g>
    </g>
</svg>