<?xml version="1.0" encoding="UTF-8"?>
<svg width="32px" height="32px" viewBox="0 0 32 32" version="1.1" xmlns="http://www.w3.org/2000/svg" xmlns:xlink="http://www.w3.org/1999/xlink">
    <title>ico_share</title>
        <g id="share" transform="translate(-701.000000, -947.000000)" fill="#333333">
            <g id="budget" transform="translate(180.000000, 915.000000)">
                <path d="M537,32 C545.836556,32 553,39.163444 553,48 C553,56.836556 545.836556,64 537,64 C528.163444,64 521,56.836556 521,48 C521,39.163444 528.163444,32 537,32 Z M542.305342,40 C540.816865,40 539.610684,41.2061802 539.610684,42.6946578 C539.610684,42.9172486 539.637919,43.1335545 539.688722,43.3409567 L539.688722,43.3409567 L532.460021,46.6112081 C531.925279,45.8130237 531.015014,45.2877095 529.981669,45.2877095 C528.335021,45.2877095 527,46.6227304 527,48.2699022 C527,49.9165503 528.335021,51.2515712 529.981669,51.2515712 C531.015014,51.2515712 531.925279,50.726257 532.460021,49.9285964 L532.460021,49.9285964 L539.688722,53.1988478 C539.637919,53.4057263 539.610684,53.6220321 539.610684,53.8451466 C539.610684,55.3331006 540.816865,56.5398045 542.305342,56.5398045 C543.793296,56.5398045 545,55.3331006 545,53.8451466 C545,52.356669 543.793296,51.1504888 542.305342,51.1504888 C541.388792,51.1504888 540.579609,51.6077165 540.093052,52.3069134 L540.093052,52.3069134 L532.864351,49.0361383 C532.929295,48.7915503 532.963862,48.5349162 532.963862,48.2699022 C532.963862,48.0048883 532.929295,47.7477304 532.864351,47.5031425 L532.864351,47.5031425 L540.093052,44.2328911 C540.579609,44.9315642 541.388792,45.3893156 542.305342,45.3893156 C543.793296,45.3893156 545,44.1826117 545,42.6946578 C545,41.2061802 543.793296,40 542.305342,40 Z" id="ico_share"></path>
            </g>
        </g>
</svg>