<?xml version="1.0" encoding="UTF-8"?>
<svg width="32px" height="33px" viewBox="0 0 32 33" version="1.1" xmlns="http://www.w3.org/2000/svg" xmlns:xlink="http://www.w3.org/1999/xlink">
    <title>ico_phone</title>
    <g id="Page-2" stroke="none" stroke-width="1" fill="none" fill-rule="evenodd">
        <g id="1" transform="translate(-1388.000000, -256.000000)" fill="#F1F2F2">
            <g id="contact" transform="translate(1368.000000, 236.000000)">
                <path d="M30.3103523,33.8165992 C28.8644836,31.8118276 30.2822772,31.3402695 31.6543188,30.0441348 C33.4927193,28.3081565 33.3876975,28.0606795 30.8604167,25.5333988 C29.5419259,24.214388 27.6307381,22.0604024 26.4947355,21.0070654 C25.0265107,19.645942 24.6168219,19.6948135 23.0846482,21.03826 C20.8651539,22.9848017 20.0431768,25.0264869 20.0083428,27.9540981 C19.9064405,36.3917116 32.0094171,48.271127 39.9437581,51.3115586 C41.5939513,51.9442886 42.7575091,52.1013013 44.0619623,52.085704 C46.9890536,52.0498303 49.0307388,51.228373 50.9772805,49.0088788 C52.3212469,47.4767051 52.3701184,47.0670163 51.0084751,45.5987914 C49.955658,44.4627889 47.8812186,42.4668558 46.4821417,41.2325903 C43.8228039,38.886758 43.7079039,38.6008077 41.9714057,40.4392082 C40.6757909,41.8112497 40.2037129,43.2290433 38.1994612,41.7826547 C36.7016016,40.7022824 31.3751273,35.2921027 30.3108723,33.8171191 L30.3103523,33.8165992 Z" id="ico_phone"></path>
            </g>
        </g>
    </g>
</svg>