<?xml version="1.0" encoding="UTF-8"?>
<svg width="32px" height="23px" viewBox="0 0 32 23" version="1.1" xmlns="http://www.w3.org/2000/svg" xmlns:xlink="http://www.w3.org/1999/xlink">
    <title>ico_video</title>
    <g id="Page-2" stroke="none" stroke-width="1" fill="none" fill-rule="evenodd">
        <g id="1" transform="translate(-1388.000000, -479.000000)" fill="#FFFFFF" fill-rule="nonzero">
            <g id="contact" transform="translate(1368.000000, 236.000000)">
                <path d="M40.0902344,243.060364 C42.8801172,243.060364 45.1417187,245.322004 45.1417187,248.111848 L45.1417187,248.111848 L45.1417187,251.715559 L49.656914,248.65927 C50.6539453,247.984348 52,248.698645 52,249.902668 L52,249.902668 L52,259.10759 C52,260.311614 50.6539844,261.025872 49.656914,260.350989 L49.656914,260.350989 L45.1417187,257.294739 L45.1417187,260.898411 C45.1417187,263.688254 42.8801172,265.949895 40.0902734,265.949895 L40.0902734,265.949895 L25.0514844,265.949895 C22.2616406,265.949895 20,263.688254 20,260.898411 L20,260.898411 L20,248.111848 C20,245.322004 22.2616406,243.060364 25.0515235,243.060364 L25.0515235,243.060364 Z M32.24,249.511614 C28.5455859,249.511614 25.3275391,251.522903 23.6,254.505129 C25.3275391,257.487356 28.5455859,259.498606 32.24,259.498606 C35.9344531,259.498606 39.1525,257.487356 40.88,254.505129 C39.1525,251.522903 35.9344531,249.511614 32.24,249.511614 Z M32.24,251.307634 C34.0059224,251.307634 35.4374854,252.739197 35.4374854,254.50512 C35.4374854,256.271042 34.0059224,257.702605 32.24,257.702605 C30.4740776,257.702605 29.0425146,256.271042 29.0425146,254.50512 C29.0425146,252.739197 30.4740776,251.307634 32.24,251.307634 Z" id="ico_video" transform="translate(36.000000, 254.505129) scale(-1, 1) translate(-36.000000, -254.505129) "></path>
            </g>
        </g>
    </g>
</svg>