<?xml version="1.0" encoding="UTF-8"?>
<svg width="32px" height="32px" viewBox="0 0 32 32" version="1.1" xmlns="http://www.w3.org/2000/svg" xmlns:xlink="http://www.w3.org/1999/xlink">
    <title>ico_magnifying</title>
    <g id="Page-1" stroke="none" stroke-width="1" fill="none" fill-rule="evenodd">
        <g id="1" transform="translate(-469.000000, -2646.000000)">
            <g id="gallery" transform="translate(15.000000, 2105.000000)">
                <g id="ico_magnifying" transform="translate(454.000000, 541.000000)">
                    <circle id="Oval" fill="#BB162B" cx="16" cy="16" r="16"></circle>
                    <path d="M24.8132285,23.9016376 L19.9450267,19.032701 C22.1500859,16.3987827 22.2296775,12.5863567 20.1364683,9.86267685 C18.0432591,7.13899701 14.3391984,6.23527065 11.2270952,7.68894484 C8.1149919,9.14261904 6.43033069,12.563436 7.17498143,15.9170322 C7.91963217,19.2706283 10.8936837,21.6566871 14.3284642,21.6562167 C14.4544768,21.6562167 14.5856328,21.6562167 14.7142171,21.6562167 C16.3051999,21.5779429 17.8265701,20.9797843 19.0449366,19.9535036 L23.9028516,24.8121519 C24.1546451,25.062616 24.561435,25.062616 24.8132285,24.8121519 C25.0622572,24.5597452 25.0622572,24.1540443 24.8132285,23.9016376 L24.8132285,23.9016376 Z M14.6396382,20.3624634 C11.3061871,20.534346 8.46457359,17.9709804 8.29271692,14.6370261 C8.12086026,11.3030718 10.683839,8.4610294 14.0172902,8.2891468 L14.3361793,8.2891468 C17.6738914,8.20533627 20.4475732,10.8435531 20.5313711,14.1817689 C20.615169,17.5199848 17.9773503,20.2940853 14.6396382,20.3778958 L14.6396382,20.3624634 Z" id="Shape" fill="#FFFFFF" fill-rule="nonzero"></path>
                </g>
            </g>
        </g>
    </g>
</svg>