<?xml version="1.0" encoding="UTF-8"?>
<svg width="32px" height="32px" viewBox="0 0 32 32" version="1.1" xmlns="http://www.w3.org/2000/svg" xmlns:xlink="http://www.w3.org/1999/xlink">
    <title>ico_instagram</title>
    <g id="Page-1" stroke="none" stroke-width="1" fill="none" fill-rule="evenodd">
        <g id="1" transform="translate(-1278.000000, -3124.000000)" fill="#FFFFFF" fill-rule="nonzero">
            <g id="footer" transform="translate(3.000000, 3072.000000)">
                <path d="M1284.40909,52 C1279.24432,52 1275,56.2386371 1275,61.4090909 L1275,74.5909091 C1275,79.7556815 1279.23864,84 1284.40909,84 L1297.59091,84 C1302.75568,84 1307,79.7613644 1307,74.5909091 L1307,61.4090909 C1307,56.2443185 1302.76136,52 1297.59091,52 L1284.40909,52 Z M1284.40909,54.9090909 L1297.59091,54.9090909 C1301.1875,54.9090909 1304.09091,57.8125004 1304.09091,61.4090909 L1304.09091,74.5909091 C1304.09091,78.1874996 1301.1875,81.0909091 1297.59091,81.0909091 L1284.40909,81.0909091 C1280.8125,81.0909091 1277.90909,78.1874996 1277.90909,74.5909091 L1277.90909,61.4090909 C1277.90909,57.8125004 1280.8125,54.9090909 1284.40909,54.9090909 Z M1299.59091,58.0909091 C1298.85795,58.0909091 1298.27273,58.6761367 1298.27273,59.4090909 C1298.27273,60.1420451 1298.85795,60.7272727 1299.59091,60.7272727 C1300.32386,60.7272727 1300.90909,60.1420451 1300.90909,59.4090909 C1300.90909,58.6761367 1300.32386,58.0909091 1299.59091,58.0909091 Z M1291,59.2727273 C1286.19886,59.2727273 1282.27273,63.198864 1282.27273,68 C1282.27273,72.801136 1286.19886,76.7272727 1291,76.7272727 C1295.80114,76.7272727 1299.72727,72.801136 1299.72727,68 C1299.72727,63.198864 1295.80114,59.2727273 1291,59.2727273 Z M1291,62.1818182 C1294.23295,62.1818182 1296.81818,64.7670458 1296.81818,68 C1296.81818,71.2329542 1294.23295,73.8181818 1291,73.8181818 C1287.76705,73.8181818 1285.18182,71.2329542 1285.18182,68 C1285.18182,64.7670458 1287.76705,62.1818182 1291,62.1818182 Z" id="ico_instagram"></path>
            </g>
        </g>
    </g>
</svg>