<?xml version="1.0" encoding="UTF-8"?>
<svg width="55px" height="72px" viewBox="0 0 55 72" version="1.1" xmlns="http://www.w3.org/2000/svg" xmlns:xlink="http://www.w3.org/1999/xlink">
    <title>ico_finance</title>
    <g id="Page-1" stroke="none" stroke-width="1" fill="none" fill-rule="evenodd">
        <g id="2" transform="translate(-465.000000, -1520.000000)" fill="#58595B" fill-rule="nonzero">
            <g id="finance-request" transform="translate(465.442000, 1519.750000)">
                <path d="M50.2393526,0.25 C52.4234913,0.25 54.2006012,2.02710983 54.2006012,4.21208092 L54.2006012,4.21208092 L54.2006012,68.2879191 C54.2006012,70.4728902 52.4243237,72.25 50.2393526,72.25 L50.2393526,72.25 L3.96124855,72.25 C1.77710983,72.25 1.7408297e-13,70.4728902 1.7408297e-13,68.2879191 L1.7408297e-13,68.2879191 L1.7408297e-13,4.21208092 C1.7408297e-13,2.02710983 1.77627746,0.25 3.96124855,0.25 L3.96124855,0.25 Z M50.2393526,1.49855491 L3.96124855,1.49855491 C2.46547977,1.49855491 1.24855491,2.71547977 1.24855491,4.21208092 L1.24855491,4.21208092 L1.24855491,68.2879191 C1.24855491,69.7845202 2.46547977,71.0014451 3.96124855,71.0014451 L3.96124855,71.0014451 L50.2393526,71.0014451 C51.7351214,71.0014451 52.9520462,69.7845202 52.9520462,68.2879191 L52.9520462,68.2879191 L52.9520462,4.21208092 C52.9520462,2.71547977 51.7351214,1.49855491 50.2393526,1.49855491 L50.2393526,1.49855491 Z M43.6203468,57.7617688 C43.6228439,57.7617688 43.625341,57.7626012 43.6278382,57.7626012 L48.582104,57.7626012 L48.582104,65.1856763 L38.6569249,65.1856763 L38.6569249,57.7626012 L43.6164971,57.762185 L43.6164971,57.762185 Z M32.6072601,57.7617688 C32.6097572,57.7617688 32.6122543,57.7626012 32.6139191,57.7626012 L37.568185,57.7626012 L37.568185,65.1856763 L27.6438382,65.1856763 L27.6438382,57.7626012 L32.6034104,57.762185 L32.6034104,57.762185 Z M21.5941734,57.7617688 C21.5966705,57.7617688 21.5991676,57.7626012 21.6024971,57.7626012 L26.556763,57.7626012 L26.556763,65.1856763 L16.6307514,65.1856763 L16.6307514,57.7626012 L21.5903237,57.762185 L21.5903237,57.762185 Z M10.5810867,57.7617688 C10.5835838,57.7617688 10.5860809,57.7626012 10.588578,57.7626012 L15.5428439,57.7626012 L15.5428439,65.1856763 L5.61766474,65.1856763 L5.61766474,57.7626012 L10.577237,57.762185 L10.577237,57.762185 Z M36.3204624,59.0111561 L35.363237,59.0111561 C35.9500578,59.667896 36.3179653,60.525237 36.3179653,61.4741387 C36.3179653,62.4230405 35.9500578,63.2803815 35.3624046,63.9371214 L35.3624046,63.9371214 L36.3204624,63.9371214 L36.3204624,59.0111561 Z M29.8504509,59.0111561 L28.8923931,59.0111561 L28.8923931,63.9371214 L29.8512832,63.9371214 C29.2636301,63.2803815 28.8948902,62.4230405 28.8948902,61.4741387 C28.8948902,60.525237 29.2627977,59.667896 29.8504509,59.0111561 L29.8504509,59.0111561 Z M32.6155838,59.0111561 L32.5989364,59.0111561 C31.2446705,59.0161503 30.1434451,60.1182081 30.1434451,61.4741387 C30.1434451,62.8325665 31.2488324,63.9371214 32.6072601,63.9371214 C33.9648555,63.9371214 35.0702428,62.8325665 35.0702428,61.4741387 C35.0702428,60.1182081 33.9690173,59.0161503 32.6155838,59.0111561 L32.6155838,59.0111561 Z M43.6286705,59.0111561 L43.6120231,59.0111561 C42.2569249,59.0161503 41.1565318,60.1182081 41.1565318,61.4741387 C41.1565318,62.8325665 42.2619191,63.9371214 43.6203468,63.9371214 C44.9779422,63.9371214 46.0833295,62.8325665 46.0833295,61.4741387 C46.0833295,60.1182081 44.982104,59.0161503 43.6286705,59.0111561 L43.6286705,59.0111561 Z M21.6024971,59.0111561 L21.5858497,59.0111561 C20.2307514,59.0161503 19.1303584,60.1182081 19.1303584,61.4741387 C19.1303584,62.8325665 20.2357457,63.9371214 21.5941734,63.9371214 C22.9517688,63.9371214 24.0571561,62.8325665 24.0571561,61.4741387 C24.0571561,60.1182081 22.9559306,59.0161503 21.6024971,59.0111561 L21.6024971,59.0111561 Z M25.3073757,59.0111561 L24.3493179,59.0111561 C24.9369711,59.667896 25.3048786,60.525237 25.3048786,61.4741387 C25.3048786,62.4230405 24.9369711,63.2803815 24.3493179,63.9371214 L24.3493179,63.9371214 L25.3073757,63.9371214 L25.3073757,59.0111561 Z M18.8373642,59.0111561 L17.8793064,59.0111561 L17.8793064,63.9371214 L18.8381965,63.9371214 C18.249711,63.2803815 17.8818035,62.4230405 17.8818035,61.4741387 C17.8818035,60.525237 18.249711,59.667896 18.8373642,59.0111561 L18.8373642,59.0111561 Z M47.3335491,59.0111561 L46.3754913,59.0111561 C46.9631445,59.667896 47.331052,60.525237 47.331052,61.4741387 C47.331052,62.4230405 46.9631445,63.2803815 46.3754913,63.9371214 L46.3754913,63.9371214 L47.3335491,63.9371214 L47.3335491,59.0111561 Z M14.2951214,59.0111561 L13.3370636,59.0111561 C13.9238844,59.667896 14.2926243,60.525237 14.2926243,61.4741387 C14.2926243,62.4230405 13.9247168,63.2803815 13.3370636,63.9371214 L13.3370636,63.9371214 L14.2951214,63.9371214 L14.2951214,59.0111561 Z M7.82427746,59.0111561 L6.86621965,59.0111561 L6.86621965,63.9371214 L7.82510983,63.9371214 C7.23745665,63.2803815 6.86871676,62.4230405 6.86871676,61.4741387 C6.86871676,60.525237 7.23662428,59.667896 7.82427746,59.0111561 L7.82427746,59.0111561 Z M40.8635376,59.0111561 L39.9054798,59.0111561 L39.9054798,63.9371214 L40.8643699,63.9371214 C40.2758844,63.2803815 39.9079769,62.4230405 39.9079769,61.4741387 C39.9079769,60.525237 40.2758844,59.667896 40.8635376,59.0111561 L40.8635376,59.0111561 Z M10.5894104,59.0111561 L10.572763,59.0111561 C9.21849711,59.0161503 8.11727168,60.1182081 8.11727168,61.4741387 C8.11727168,62.8325665 9.22265896,63.9371214 10.5810867,63.9371214 C11.9386821,63.9371214 13.0440694,62.8325665 13.0440694,61.4741387 C13.0440694,60.1182081 11.9428439,59.0161503 10.5894104,59.0111561 L10.5894104,59.0111561 Z M37.5698497,48.8354335 L37.5698497,56.2585087 L32.611422,56.2589249 L32.611422,56.2589249 C32.6039306,56.259341 32.6014335,56.2585087 32.5989364,56.2585087 L27.6438382,56.2585087 L27.6438382,48.8354335 L37.5698497,48.8354335 Z M26.556763,48.8354335 L26.556763,56.2585087 L21.5983353,56.2589249 L21.5983353,56.2589249 C21.5908439,56.259341 21.5883468,56.2585087 21.5858497,56.2585087 L16.6307514,56.2585087 L16.6307514,48.8354335 L26.556763,48.8354335 Z M15.5436763,48.8354335 L15.5436763,56.2585087 L10.5852486,56.2589249 L10.5852486,56.2589249 C10.5777572,56.259341 10.5752601,56.2585087 10.572763,56.2585087 L5.61766474,56.2585087 L5.61766474,48.8354335 L15.5436763,48.8354335 Z M43.6203468,48.8346012 C43.6228439,48.8346012 43.625341,48.8354335 43.6278382,48.8354335 L48.582104,48.8354335 L48.582104,56.2585087 L38.6569249,56.2585087 L38.6569249,48.8354335 L43.6164971,48.8350173 L43.6164971,48.8350173 Z M21.5941734,50.0839884 C20.2357457,50.0839884 19.1303584,51.1893757 19.1303584,52.5478035 C19.1303584,53.9037341 20.2307514,55.0049595 21.5858497,55.0099538 L21.5858497,55.0099538 L21.6024971,55.0099538 C22.956763,55.0049595 24.0571561,53.9037341 24.0571561,52.5478035 C24.0571561,51.1893757 22.9517688,50.0839884 21.5941734,50.0839884 Z M29.8521156,50.0839884 L28.8932254,50.0839884 L28.8932254,55.0099538 L29.8504509,55.0099538 C29.2627977,54.3532139 28.8957225,53.4967052 28.8957225,52.5478035 C28.8957225,51.5989017 29.2636301,50.7407283 29.8521156,50.0839884 L29.8521156,50.0839884 Z M36.3204624,50.0839884 L35.3624046,50.0839884 C35.9500578,50.7407283 36.3187977,51.5989017 36.3187977,52.5478035 C36.3187977,53.4967052 35.9508902,54.3532139 35.363237,55.0099538 L35.363237,55.0099538 L36.3204624,55.0099538 L36.3204624,50.0839884 Z M32.6072601,50.0839884 C31.2488324,50.0839884 30.1434451,51.1893757 30.1434451,52.5478035 C30.1434451,53.9037341 31.2446705,55.0049595 32.5989364,55.0099538 L32.5989364,55.0099538 L32.6155838,55.0099538 C33.9690173,55.0049595 35.0702428,53.9037341 35.0702428,52.5478035 C35.0702428,51.1893757 33.9648555,50.0839884 32.6072601,50.0839884 Z M47.3335491,50.0839884 L46.3754913,50.0839884 C46.9631445,50.7407283 47.331052,51.5980694 47.331052,52.5469711 C47.331052,53.4958728 46.9631445,54.3532139 46.3754913,55.0099538 L46.3754913,55.0099538 L47.3335491,55.0099538 L47.3335491,50.0839884 Z M40.8635376,50.0839884 L39.9054798,50.0839884 L39.9054798,55.0099538 L40.8643699,55.0099538 C40.2758844,54.3532139 39.9079769,53.4958728 39.9079769,52.5469711 C39.9079769,51.5980694 40.2758844,50.7407283 40.8635376,50.0839884 L40.8635376,50.0839884 Z M25.3082081,50.0839884 L24.3493179,50.0839884 C24.9369711,50.7407283 25.305711,51.5989017 25.305711,52.5478035 C25.305711,53.4967052 24.9378035,54.3532139 24.3501503,55.0099538 L24.3501503,55.0099538 L25.3082081,55.0099538 L25.3082081,50.0839884 Z M7.8259422,50.0839884 L6.86705202,50.0839884 L6.86705202,55.0099538 L7.82427746,55.0099538 C7.23662428,54.3532139 6.86954913,53.4967052 6.86954913,52.5478035 C6.86954913,51.5989017 7.23745665,50.7407283 7.8259422,50.0839884 L7.8259422,50.0839884 Z M14.2951214,50.0839884 L13.3362312,50.0839884 C13.9238844,50.7407283 14.2926243,51.5989017 14.2926243,52.5478035 C14.2926243,53.4967052 13.9247168,54.3532139 13.3370636,55.0099538 L13.3370636,55.0099538 L14.2951214,55.0099538 L14.2951214,50.0839884 Z M10.5810867,50.0839884 C9.22265896,50.0839884 8.11727168,51.1893757 8.11727168,52.5478035 C8.11727168,53.9037341 9.21849711,55.0049595 10.572763,55.0099538 L10.572763,55.0099538 L10.5894104,55.0099538 C11.9428439,55.0049595 13.0440694,53.9037341 13.0440694,52.5478035 C13.0440694,51.1893757 11.9386821,50.0839884 10.5810867,50.0839884 Z M43.6286705,50.0839884 L43.6120231,50.0839884 C42.2569249,50.0889827 41.1565318,51.1910405 41.1565318,52.5469711 C41.1565318,53.9053988 42.2619191,55.0099538 43.6203468,55.0099538 C44.9779422,55.0099538 46.0833295,53.9053988 46.0833295,52.5469711 C46.0833295,51.1910405 44.982104,50.0889827 43.6286705,50.0839884 L43.6286705,50.0839884 Z M18.8381965,50.0839884 L17.8793064,50.0839884 L17.8793064,55.0099538 L18.8373642,55.0099538 C18.249711,54.3532139 17.8818035,53.4967052 17.8818035,52.5478035 C17.8818035,51.5989017 18.249711,50.7407283 18.8381965,50.0839884 L18.8381965,50.0839884 Z M26.556763,39.9082659 L26.556763,47.331341 L21.6108208,47.331341 L21.6108208,47.331341 L21.5941734,47.3330058 C21.5883468,47.3330058 21.5833526,47.331341 21.577526,47.331341 L21.577526,47.331341 L16.6307514,47.331341 L16.6307514,39.9082659 L26.556763,39.9082659 Z M15.5428439,39.9082659 L15.5428439,47.331341 L10.5960694,47.331341 L10.5960694,47.331341 L10.5802543,47.3330058 L10.5802543,47.3330058 L10.5644393,47.331341 L5.61766474,47.331341 L5.61766474,39.9082659 L15.5428439,39.9082659 Z M37.568185,39.9082659 L37.568185,47.331341 L32.6222428,47.331341 L32.6222428,47.331341 L32.6064277,47.3330058 L32.6064277,47.3330058 L32.5906127,47.331341 L27.6438382,47.331341 L27.6438382,39.9082659 L37.568185,39.9082659 Z M43.6240925,39.9086821 L43.6278382,39.9090983 L48.582104,39.9090983 L48.582104,47.3321734 L38.6569249,47.3321734 L38.6569249,39.9090983 L43.6120231,39.9090983 C43.6153526,39.9090983 43.6178497,39.9082659 43.6203468,39.9082659 L43.6240925,39.9086821 Z M36.3204624,41.1576532 L35.3615723,41.1576532 C35.9500578,41.8143931 36.3187977,42.6725665 36.3187977,43.6223006 C36.3187977,44.5703699 35.9508902,45.4268786 35.3640694,46.0836185 L35.3640694,46.0836185 L36.3204624,46.0836185 L36.3204624,41.1576532 Z M47.3335491,41.1576532 L46.3754913,41.1576532 C46.9631445,41.8143931 47.331052,42.6717341 47.331052,43.6206358 C47.331052,44.5695376 46.9631445,45.4268786 46.3754913,46.0836185 L46.3754913,46.0836185 L47.3335491,46.0836185 L47.3335491,41.1576532 Z M14.2951214,41.1576532 L13.3353988,41.1576532 C13.9238844,41.8143931 14.2926243,42.6725665 14.2926243,43.6223006 C14.2926243,44.5703699 13.9247168,45.4268786 13.337896,46.0836185 L13.337896,46.0836185 L14.2951214,46.0836185 L14.2951214,41.1576532 Z M29.8512832,41.1576532 L28.8923931,41.1576532 L28.8923931,46.0836185 L29.8487861,46.0836185 C29.2619653,45.4268786 28.8940578,44.5703699 28.8940578,43.6223006 C28.8940578,42.6725665 29.2627977,41.8143931 29.8512832,41.1576532 L29.8512832,41.1576532 Z M7.82510983,41.1576532 L6.86621965,41.1576532 L6.86621965,46.0836185 L7.82261272,46.0836185 C7.23579191,45.4268786 6.86788439,44.5703699 6.86788439,43.6223006 C6.86788439,42.6725665 7.23662428,41.8143931 7.82510983,41.1576532 L7.82510983,41.1576532 Z M18.8390289,41.1576532 L17.8793064,41.1576532 L17.8793064,46.0836185 L18.8365318,46.0836185 C18.249711,45.4268786 17.8818035,44.5703699 17.8818035,43.6223006 C17.8818035,42.6725665 18.2505434,41.8143931 18.8390289,41.1576532 L18.8390289,41.1576532 Z M25.3082081,41.1576532 L24.3484855,41.1576532 C24.9369711,41.8143931 25.305711,42.6725665 25.305711,43.6223006 C25.305711,44.5703699 24.9378035,45.4268786 24.3509827,46.0836185 L24.3509827,46.0836185 L25.3082081,46.0836185 L25.3082081,41.1576532 Z M10.5810867,41.1576532 C9.22182659,41.1576532 8.11727168,42.2638728 8.11727168,43.6214682 C8.11727168,44.9740694 9.21350289,46.0736301 10.5652717,46.0827861 L10.5652717,46.0827861 L10.5969017,46.0827861 C11.9478382,46.0736301 13.0440694,44.9740694 13.0440694,43.6214682 C13.0440694,42.2630405 11.9386821,41.1576532 10.5810867,41.1576532 Z M21.5941734,41.1576532 C20.2349133,41.1576532 19.1303584,42.2638728 19.1311903,43.6214682 C19.1311903,44.9740694 20.227422,46.0736301 21.5783584,46.0827861 L21.5783584,46.0827861 L21.6108208,46.0827861 C22.9609249,46.0736301 24.0571561,44.9740694 24.0571561,43.6214682 C24.0571561,42.2630405 22.9517688,41.1576532 21.5941734,41.1576532 Z M32.6072601,41.1576532 C31.248,41.1576532 30.1434451,42.2638728 30.1434451,43.6214682 C30.1434451,44.9740694 31.2396763,46.0736301 32.5914451,46.0827861 L32.5914451,46.0827861 L32.6230751,46.0827861 C33.9740116,46.0736301 35.0702428,44.9740694 35.0702428,43.6214682 C35.0702428,42.2630405 33.9648555,41.1576532 32.6072601,41.1576532 Z M40.8635376,41.1568208 L39.9054798,41.1568208 L39.9054798,46.0827861 L40.8643699,46.0827861 C40.2758844,45.4260462 39.9079769,44.5687052 39.9079769,43.6198035 C39.9079769,42.6709017 40.2758844,41.8135607 40.8635376,41.1568208 L40.8635376,41.1568208 Z M43.6286705,41.1568208 L43.6120231,41.1568208 C42.2569249,41.161815 41.1565318,42.2638728 41.1565318,43.6198035 C41.1565318,44.9782312 42.2619191,46.0827861 43.6203468,46.0827861 C44.9779422,46.0827861 46.0833295,44.9782312 46.0833295,43.6198035 C46.0833295,42.2647052 44.982104,41.161815 43.6286705,41.1568208 L43.6286705,41.1568208 Z M48.582104,6.70169942 L48.582104,36.1517803 L5.61766474,36.1517803 L5.61766474,6.70169942 L48.582104,6.70169942 Z M47.3335491,7.95025434 L6.86621965,7.95025434 L6.86621965,34.9032254 L47.3335491,34.9032254 L47.3335491,7.95025434 Z M33.1349827,20.3434104 C36.3312832,20.3434104 38.9324393,22.9437341 38.9324393,26.1408671 C38.9324393,29.338 36.3312832,31.9383237 33.1349827,31.9383237 C29.9386821,31.9383237 27.3383584,29.338 27.3383584,26.1408671 C27.3383584,22.9437341 29.9386821,20.3434104 33.1349827,20.3434104 Z M32.6028266,11.2116158 L33.6685931,11.8621129 L21.598836,31.6370546 L20.5330695,30.9865574 L32.6028266,11.2116158 Z M33.1349827,21.5911329 C30.627052,21.5911329 28.5869133,23.6312717 28.5869133,26.1400347 C28.5869133,28.6487977 30.627052,30.6889364 33.1349827,30.6889364 C35.6429133,30.6889364 37.6838844,28.6487977 37.6838844,26.1400347 C37.6838844,23.6312717 35.6429133,21.5911329 33.1349827,21.5911329 Z M21.0647861,10.9151561 C24.2610867,10.9151561 26.8622428,13.5154798 26.8622428,16.7126127 C26.8622428,19.9089133 24.2610867,22.509237 21.0647861,22.509237 C17.8684855,22.509237 15.2681618,19.9089133 15.2681618,16.7126127 C15.2681618,13.5154798 17.8684855,10.9151561 21.0647861,10.9151561 Z M21.0647861,12.163711 C18.5568555,12.163711 16.5167168,14.2038497 16.5167168,16.7126127 C16.5167168,19.2205434 18.5568555,21.2606821 21.0647861,21.2606821 C23.5727168,21.2606821 25.6136879,19.2205434 25.6136879,16.7126127 C25.6136879,14.2038497 23.5727168,12.163711 21.0647861,12.163711 Z" id="ico_finance"></path>
            </g>
        </g>
    </g>
</svg>