<?xml version="1.0" encoding="UTF-8"?>
<svg width="72px" height="72px" viewBox="0 0 72 72" version="1.1" xmlns="http://www.w3.org/2000/svg" xmlns:xlink="http://www.w3.org/1999/xlink">
    <title>ico-testdrive</title>
    <g id="Page-1" stroke="none" stroke-width="1" fill="none" fill-rule="evenodd">
        <g id="2" transform="translate(-180.000000, -1520.000000)" fill="#58595B" fill-rule="nonzero">
            <g id="test-drive" transform="translate(180.000000, 1520.000000)">
                <path d="M36,0 C55.8729302,0.0224844522 71.9775155,16.1270698 72,36 C72,55.882251 55.882251,72 36,72 C16.117749,72 0,55.882251 0,36 C0,16.117749 16.117749,0 36,0 Z M36,2.4 C17.4432324,2.4 2.4,17.4432324 2.4,36 C2.4,54.5567676 17.4432324,69.6 36,69.6 C54.5479952,69.5788385 69.5788385,54.5479952 69.6,36 C69.6,17.4432324 54.5567676,2.4 36,2.4 Z M36,7.2 C51.8981251,7.21851543 64.7814846,20.1018749 64.8,36 C64.8,51.9058008 51.9058008,64.8 36,64.8 C20.0941992,64.8 7.2,51.9058008 7.2,36 C7.2,20.0941992 20.0941992,7.2 36,7.2 Z M61.3932,28.8 L52.404,31.7916 C48.7603381,33.0104448 44.7921882,32.8194873 41.2824,31.2564 C37.9207549,29.7632031 34.0840451,29.7632031 30.7224,31.2564 L30.7224,31.2564 L30.2676,31.458 C27.051909,32.8823322 23.446473,33.1668048 20.0472,32.2644 L20.0472,32.2644 L10.3692,29.6832 C10.1165864,30.7107204 9.92663644,31.75264 9.8004,32.8032 L9.8004,32.8032 L11.2116,33.2736 C24.0415339,37.5327146 33.1855597,48.9141485 34.5804,62.3604 C35.0496,62.3856 35.52,62.4 36,62.4 C36.48,62.4 36.9504,62.3856 37.4196,62.3604 C38.8144403,48.9141485 47.9584661,37.5327146 60.7884,33.2736 L60.7884,33.2736 L62.1996,32.8032 C62.0351638,31.4498839 61.7655482,30.1114346 61.3932,28.8 L61.3932,28.8 Z M9.618,35.2716 C9.612,35.514 9.6,35.76 9.6,36 C9.6172055,49.0821156 19.1993878,60.1846313 32.1384,62.1144 C30.6683516,49.8068683 22.2210386,39.4561395 10.458,35.5488 L10.458,35.5488 Z M62.388,35.2716 L61.548,35.5488 C49.7803536,39.4547648 41.329459,49.8087824 39.8604,62.1204 C52.8029952,60.1873119 62.3883493,49.0840769 62.406,36 C62.406,35.7516 62.394,35.5116 62.388,35.2716 L62.388,35.2716 Z M36,32.4 C39.9764502,32.4 43.2,35.6235498 43.2,39.6 C43.1960311,43.5748051 39.9748051,46.7960311 36,46.8 C32.0235498,46.8 28.8,43.5764502 28.8,39.6 C28.8,35.6235498 32.0235498,32.4 36,32.4 Z M36,34.8 C33.3490332,34.8 31.2,36.9490332 31.2,39.6 C31.2,42.2509668 33.3490332,44.4 36,44.4 C38.6509668,44.4 40.8,42.2509668 40.8,39.6 C40.8,36.9490332 38.6509668,34.8 36,34.8 Z M36,9.6 C24.7464446,9.61460563 14.7352426,16.7506747 11.0508,27.384 L11.0508,27.384 L20.6664,29.9484 C23.5356675,30.7107416 26.5792504,30.4702693 29.2932,29.2668 L29.2932,29.2668 L29.748,29.0652 C33.7290162,27.2976134 38.2721838,27.2976134 42.2532,29.0652 C45.2162067,30.385658 48.5664505,30.5479254 51.6432,29.52 L51.6432,29.52 L60.6336,26.52 C56.7035281,16.3348258 46.9171001,9.61285406 36,9.6 Z" id="ico-testdrive"></path>
            </g>
        </g>
    </g>
</svg>