<?xml version="1.0" encoding="UTF-8"?>
<svg width="48px" height="48px" viewBox="0 0 48 48" version="1.1" xmlns="http://www.w3.org/2000/svg" xmlns:xlink="http://www.w3.org/1999/xlink">
    <title>ico_emissions</title>
    <g id="Page-1" stroke="none" stroke-width="1" fill="none" fill-rule="evenodd">
        <g id="2" transform="translate(-1109.000000, -2105.000000)" fill="#333333" fill-rule="nonzero">
            <g id="final" transform="translate(0.000000, 2062.000000)">
                <g id="emissions" transform="translate(1059.000000, 43.000000)">
                    <path d="M65.6376,22.9034667 C66.0792,24.0261333 66.4626667,25.1861333 66.7810667,26.3706667 C66.8552,26.3706667 66.9229333,26.376 66.9981333,26.376 C72.0978667,11.0426667 57.0728,2.376 50.412,0 C53.5485333,9.61173333 50.0722667,24.7477333 64.5186667,26.2464 C63.9890667,23.3712 63.0029333,20.536 61.7538667,17.824 C60.0413333,14.1306667 57.8093333,10.6474667 55.2546667,7.40853333 C58.1192,10.3776 60.7165333,13.6448 62.8509333,17.2464 C63.9128,19.048 64.8621333,20.9312 65.6376,22.9034667 Z M96.772,2.02613333 C88.0258667,15.0586667 57.1010667,19.5232 68.7224,47.2058667 C71.3789333,43.4512 73.9554667,39.6266667 76.4354667,35.7456 C78.0674667,33.184 79.6536,30.5936 81.1677333,27.9573333 C82.6754667,25.3194667 84.1197333,22.64 85.3992,19.8714667 C84.4392,22.768 83.3005333,25.6101333 82.0904,28.4192 C80.8765333,31.2282667 79.5816,34.0037333 78.2376,36.7552 C76.3810667,40.5445333 74.4354667,44.2885333 72.4162667,48 C101.339467,38.1584 98.9741333,13.0373333 96.772,2.02613333 Z" id="ico_emissions"></path>
                </g>
            </g>
        </g>
    </g>
</svg>