<svg width="25" height="25" fill="none" xmlns="http://www.w3.org/2000/svg"><path d="m12.69 22.79.01.007a4.477 4.477 0 0 0 5.584-.615l.627-.629a1.5 1.5 0 0 0 0-2.122l-2.646-2.651a1.497 1.497 0 0 0-1.63-.325 1.496 1.496 0 0 0-.486.325 1.494 1.494 0 0 1-2.115 0l-4.23-4.243a1.502 1.502 0 0 1 0-2.121v0a1.5 1.5 0 0 0 0-2.122L5.16 5.643a1.494 1.494 0 0 0-2.115 0l-.628.629a4.505 4.505 0 0 0-.612 5.6l.006.01A40.548 40.548 0 0 0 12.69 22.79v0ZM11.573 8.5a4.48 4.48 0 0 1 3.173 1.318A4.506 4.506 0 0 1 16.06 13M11.573 4.75c2.182 0 4.274.87 5.817 2.416A8.262 8.262 0 0 1 19.8 13M11.573 1c3.173 0 6.217 1.264 8.46 3.515A12.017 12.017 0 0 1 23.54 13" stroke="#fff" stroke-width="1.5" stroke-linecap="round" stroke-linejoin="round"/></svg>