<svg width="24" height="24" fill="none" xmlns="http://www.w3.org/2000/svg"><path d="M1.5 5.25v16.5a1.5 1.5 0 0 0 1.5 1.5h1.5M22.5 5.25v16.5a1.5 1.5 0 0 1-1.5 1.5h-1.5M12 21.45a2.7 2.7 0 1 0 0-5.4 2.7 2.7 0 0 0 0 5.4ZM12 16.05v-1.8M9.66 17.4l-1.56-.9M9.66 20.1 8.1 21M12 21.45v1.8M14.34 20.1l1.56.9M14.34 17.4l1.56-.9M15.75 5.25h-7.5a1.5 1.5 0 0 0 0 3h7.5a1.5 1.5 0 0 0 0-3ZM7.5 8.05v1.7M16.5 8.05v1.7M8.25 5.25l.8-3.35A1.51 1.51 0 0 1 10.51.75h3A1.51 1.51 0 0 1 15 1.9l.8 3.35M1.5 11.25h21" stroke="#000" stroke-width="1.5" stroke-linecap="round" stroke-linejoin="round"/></svg>