<svg width="24" height="24" fill="none" xmlns="http://www.w3.org/2000/svg"><path d="M6.5 24A6.508 6.508 0 0 1 0 17.5v-11C0 2.916 2.916 0 6.5 0h11C21.084 0 24 2.916 24 6.5v11c0 3.584-2.916 6.5-6.5 6.5h-11Zm0-23A5.506 5.506 0 0 0 1 6.5v11C1 20.533 3.467 23 6.5 23h11c3.033 0 5.5-2.467 5.5-5.5v-11C23 3.467 20.533 1 17.5 1h-11Z" fill="#fff"/><path d="M12 18.5A6.508 6.508 0 0 1 5.5 12c0-3.584 2.916-6.5 6.5-6.5s6.5 2.916 6.5 6.5-2.916 6.5-6.5 6.5Zm0-12A5.506 5.506 0 0 0 6.5 12c0 3.033 2.467 5.5 5.5 5.5s5.5-2.467 5.5-5.5-2.467-5.5-5.5-5.5Zm7 .5c-1.103 0-2-.897-2-2s.897-2 2-2 2 .897 2 2-.897 2-2 2Zm0-3a1.001 1.001 0 0 0 0 2 1.001 1.001 0 0 0 0-2Z" fill="#fff"/></svg>