<svg width="24" height="24" fill="none" xmlns="http://www.w3.org/2000/svg"><path d="M1.5 23a.5.5 0 0 1-.5-.5v-13a.5.5 0 0 1 .5-.5h5a.5.5 0 0 1 .5.5v13a.5.5 0 0 1-.5.5h-5ZM6 22V10H2v12h4ZM4 8C2.346 8 1 6.654 1 5s1.346-3 3-3 3 1.346 3 3-1.346 3-3 3Zm0-5c-1.103 0-2 .897-2 2s.897 2 2 2 2-.897 2-2-.897-2-2-2Zm13.5 20a.5.5 0 0 1-.5-.5v-7c0-.827-.673-1.5-1.5-1.5s-1.5.673-1.5 1.5v7a.5.5 0 0 1-.5.5h-5a.5.5 0 0 1-.5-.5v-13a.5.5 0 0 1 .5-.5h5a.5.5 0 0 1 .5.5v.506a6.777 6.777 0 0 1 3.483-1.016c3.404 0 5.517 2.627 5.517 6.855V22.5a.5.5 0 0 1-.5.5h-5Zm4.5-1v-6.155c0-3.666-1.686-5.855-4.51-5.855a5.82 5.82 0 0 0-3.667 1.376.497.497 0 0 1-.533.073.503.503 0 0 1-.29-.454V10H9v12h4v-6.5c0-1.378 1.122-2.5 2.5-2.5s2.5 1.122 2.5 2.5V22h4Z" fill="#fff"/></svg>