<svg width="24" height="24" fill="none" xmlns="http://www.w3.org/2000/svg"><g clip-path="url(#a)" stroke="#fff" stroke-width="1.5" stroke-linecap="round" stroke-linejoin="round"><path d="M20 8.5c0 4.221-2.933 6.649-5.131 9a26.116 26.116 0 0 0-2.369 3 25.822 25.822 0 0 0-2.363-2.993C7.939 15.157 5 12.725 5 8.5a7.5 7.5 0 0 1 15 0v0ZM16.25 22 20 23.5M5 17.5l1.875.75M8.75 22 5 23.5M20 17.5l-1.875.75"/><path d="M9.5 8.5a3 3 0 1 0 6 0 3 3 0 0 0-6 0Z"/></g><defs><clipPath id="a"><path fill="#fff" d="M0 0h24v24H0z"/></clipPath></defs></svg>