<svg width="17" height="17" fill="none" xmlns="http://www.w3.org/2000/svg"><path d="M3.5 13.5v-5M3.5 8.501H4a1.5 1.5 0 0 1 0 3h-.5M7.5 13.501a2 2 0 0 0 2-2v-1a2 2 0 0 0-2-2v5ZM11.5 13.501v-4a1 1 0 0 1 1-1h1M11.5 11.5H13" stroke="#000" stroke-linecap="round" stroke-linejoin="round"/><path d="M15.707 4.207a1 1 0 0 1 .293.707v9.587A1.5 1.5 0 0 1 14.5 16h-12A1.5 1.5 0 0 1 1 14.501v-12A1.5 1.5 0 0 1 2.5 1h9.585a1 1 0 0 1 .708.293l2.914 2.914Z" stroke="#000" stroke-linecap="round" stroke-linejoin="round"/><path d="M12 1v3a1 1 0 0 0 1 1h3" stroke="#000" stroke-linecap="round" stroke-linejoin="round"/></svg>