<svg width="24" height="24" fill="none" xmlns="http://www.w3.org/2000/svg"><path d="M18.24 16.81a2.769 2.769 0 1 0 0-5.537 2.769 2.769 0 0 0 0 5.538ZM13.92 22.312a4.32 4.32 0 0 1 8.64 0h-8.64ZM5.32 10.08h8.64M5.32 13.68h6.48M5.32 17.28h6.48" stroke="#000" stroke-width="1.44" stroke-linecap="round" stroke-linejoin="round"/><path d="M10.6 22.32H2.44A1.44 1.44 0 0 1 1 20.88V5.76a1.44 1.44 0 0 1 1.44-1.44h3.6a3.6 3.6 0 0 1 7.2 0h3.6a1.44 1.44 0 0 1 1.44 1.44V8.4" stroke="#000" stroke-width="1.44" stroke-linecap="round" stroke-linejoin="round"/><path d="M9.64 4.32a.36.36 0 0 0 0-.72" stroke="#000" stroke-width="1.44"/></svg>