<svg width="24" height="24" fill="none" xmlns="http://www.w3.org/2000/svg"><path d="M5 19.251v1a.905.905 0 0 0 .59.887l6.91 2.113v-8.833l-6.473-2.373A.816.816 0 0 0 5 12.919v1.844M20.013 19.1v1.157a.9.9 0 0 1-.588.887L12.5 23.251v-8.833l6.486-2.373a.816.816 0 0 1 1.027.874v1.988" stroke="#000" stroke-width="1.5" stroke-linecap="round" stroke-linejoin="round"/><path d="M6.487 18.358c0 .5-.563.9-1.251.893-1.378-.006-2.491-.816-2.486-1.81v-.9c0-.993 1.125-1.793 2.5-1.787.689 0 1.245.408 1.243.9l-.006 2.704ZM17.757 18.358c0 .5.563.9 1.253.893 1.38-.006 2.495-.816 2.49-1.81v-.9c0-.993-1.127-1.793-2.507-1.787-.689 0-1.247.408-1.244.9l.008 2.704ZM8.387 4.876a4.125 4.125 0 1 0 8.25 0 4.125 4.125 0 0 0-8.25 0v0Z" stroke="#000" stroke-width="1.5" stroke-linecap="round" stroke-linejoin="round"/></svg>