<svg width="25" height="25" fill="none" xmlns="http://www.w3.org/2000/svg"><path d="M18.383 14.91c-.07-.12-.27-.2-.559-.34-.289-.14-1.735-.85-1.994-.95-.26-.1-.469-.15-.658.15-.19.3-.499.73-.668.92-.17.19-.34.22-.638.07a9.181 9.181 0 0 1-4.129-3.58c-.17-.29 0-.45.13-.59.489-.49.499-.42.618-.66a.53.53 0 0 0 0-.51c-.15-.17-.698-1.59-.947-2.17-.25-.58-1.506-.69-1.994-.15-5.186 5.48 7.449 14.87 10.68 9.15a1.413 1.413 0 0 0 .159-1.32M12.33 1a11.172 11.172 0 0 0-7.916 3.25 11.236 11.236 0 0 0-3.312 7.91 11.021 11.021 0 0 0 2.134 6.54L1.84 22.85l4.308-1.37a11.206 11.206 0 0 0 15.77-3.584 11.283 11.283 0 0 0 1.62-5.736 11.236 11.236 0 0 0-3.305-7.902A11.172 11.172 0 0 0 12.33 1v0Z" stroke="#fff" stroke-width="1.5" stroke-linecap="round" stroke-linejoin="round"/></svg>