<svg width="42" height="48" fill="none" xmlns="http://www.w3.org/2000/svg"><path d="M21 1.148a22.76 22.76 0 0 1 12.224 3.54c9.5 6.022 10.2 18.46 2.63 27.554A118.668 118.668 0 0 1 21.642 46.62a1 1 0 0 1-1.284 0A118.606 118.606 0 0 1 6.146 32.244c-7.568-9.096-6.87-21.534 2.63-27.556A22.76 22.76 0 0 1 21 1.148v0Z" stroke="#000" stroke-width="2" stroke-linecap="round" stroke-linejoin="round"/><path d="M31 19.148a2 2 0 0 1-2 2H13a2 2 0 0 1-2-2V17.62c0-.31.072-.617.212-.894L13 13.148h16l1.788 3.578c.14.277.212.583.212.894v1.528ZM13 25.148v-4M29 25.148v-4M13 13.148l.722-4.33a2 2 0 0 1 1.972-1.67h10.612a2 2 0 0 1 1.972 1.67l.722 4.33M11.054 17.148H16M26 17.148h4.984M7 11.148v22.108M7 25.148h28M35 11.148v22.108M16 30.912a3 3 0 1 1-.238 4.232M21 33.148h6" stroke="#000" stroke-width="2" stroke-linecap="round" stroke-linejoin="round"/></svg>