<svg width="24" height="24" fill="none" xmlns="http://www.w3.org/2000/svg"><g clip-path="url(#a)" fill="#fff"><path d="M3.937 20a3.914 3.914 0 0 1-2.784-1.156A3.91 3.91 0 0 1 0 16.06V6.939c0-1.052.409-2.041 1.152-2.785A3.913 3.913 0 0 1 3.937 3h16.125A3.944 3.944 0 0 1 24 6.939v9.121A3.943 3.943 0 0 1 20.062 20H3.937Zm0-16c-.785 0-1.522.306-2.077.861A2.919 2.919 0 0 0 1 6.939v9.121A2.941 2.941 0 0 0 3.936 19h16.126A2.941 2.941 0 0 0 23 16.062V6.939A2.942 2.942 0 0 0 20.063 4H3.937Z"/><path d="M9.5 15.94a.501.501 0 0 1-.5-.5V6.78a.501.501 0 0 1 .769-.422l6.769 4.331a.498.498 0 0 1 0 .842l-6.769 4.33a.492.492 0 0 1-.269.078Zm.5-1.414 5.341-3.416L10 7.693v6.833Z"/></g><defs><clipPath id="a"><path fill="#fff" d="M0 0h24v24H0z"/></clipPath></defs></svg>