<svg width="134" height="44" fill="none" xmlns="http://www.w3.org/2000/svg"><path d="M133.5 37.909a5.424 5.424 0 01-5.422 5.424H5.923A5.425 5.425 0 01.5 37.909V5.923A5.424 5.424 0 015.923.5h122.155a5.423 5.423 0 015.422 5.423V37.91z" fill="#1A1919" stroke="#fff"/><path fill-rule="evenodd" clip-rule="evenodd" d="M34.943 28.973c-.709 1.573-1.049 2.274-1.962 3.664-1.274 1.94-3.07 4.356-5.296 4.377-1.978.018-2.485-1.288-5.17-1.273-2.683.015-3.244 1.295-5.222 1.278-2.225-.021-3.927-2.203-5.202-4.143-3.563-5.425-3.936-11.791-1.738-15.176 1.562-2.405 4.025-3.813 6.343-3.813 2.358 0 3.841 1.294 5.792 1.294 1.891 0 3.045-1.296 5.772-1.296 2.061 0 4.245 1.122 5.802 3.063-5.1 2.795-4.271 10.078.881 12.025z" fill="#FFFFFE"/><path fill-rule="evenodd" clip-rule="evenodd" d="M26.191 11.718c.99-1.271 1.743-3.068 1.47-4.904-1.618.112-3.512 1.142-4.617 2.484-1.004 1.22-1.832 3.027-1.51 4.784 1.768.054 3.596-1.001 4.657-2.364zm20.82 8.371c.173.67.359 1.367.598 2.12l1.376 3.984h-3.916l1.357-4.01c.206-.65.403-1.353.585-2.094zm-1.21-2.47l-5.106 15.026h2.338l1.524-4.614H49.5l1.567 4.614h2.402l-5.127-15.027H45.8zm13.708 5.777c2.027 0 2.934 1.877 2.934 3.738 0 2.4-1.158 3.89-3.02 3.89a2.756 2.756 0 01-2.679-2.11 2.9 2.9 0 01-.08-.736V26.35c0-.166.036-.366.072-.561.011-.062.023-.124.032-.185.34-1.3 1.465-2.208 2.74-2.208zm.566-1.882c-1.548 0-2.788.598-3.614 1.734l-.09-1.495h-2.08l.012.191c.062.931.087 1.956.087 3.428v11.582h2.273v-5.405c.706.844 1.832 1.335 3.108 1.335 1.33 0 2.553-.52 3.445-1.464.996-1.053 1.521-2.566 1.521-4.374 0-1.597-.456-2.978-1.32-3.992a4.325 4.325 0 00-3.342-1.54zm11.142 1.882c2.025 0 2.933 1.877 2.933 3.738 0 2.4-1.159 3.89-3.02 3.89a2.756 2.756 0 01-2.679-2.11 2.906 2.906 0 01-.08-.736V26.35c0-.167.037-.368.073-.563l.033-.183c.337-1.3 1.463-2.208 2.74-2.208zm.566-1.882c-1.549 0-2.789.598-3.615 1.734l-.09-1.495h-2.08l.012.191c.062.932.088 1.956.088 3.428v11.582h2.273v-5.405c.706.844 1.831 1.335 3.107 1.335 1.329 0 2.553-.52 3.447-1.464.994-1.053 1.52-2.566 1.52-4.374 0-1.597-.457-2.978-1.322-3.992a4.323 4.323 0 00-3.34-1.54zm14.667 2.471c-2.122-.822-2.802-1.468-2.802-2.662 0-1.005.799-2.019 2.584-2.019 1.473 0 2.415.512 2.669.67l.192.119.642-1.897-.127-.075c-.38-.223-1.466-.742-3.31-.742-2.9 0-4.925 1.711-4.925 4.161 0 1.976 1.268 3.357 3.99 4.347 1.93.721 2.648 1.46 2.648 2.726 0 1.434-1.108 2.323-2.89 2.323-1.16 0-2.355-.338-3.277-.929l-.197-.126-.61 1.94.112.075c.858.573 2.474.988 3.842.988 3.908 0 5.293-2.383 5.293-4.423 0-2.103-1.11-3.4-3.835-4.476zm7.927-4.821l-2.23.7v1.889h-1.633v1.817h1.633v5.566c0 1.345.257 2.288.787 2.884.508.557 1.289.864 2.2.864.859 0 1.47-.17 1.757-.272l.127-.044-.109-1.82-.218.066c-.287.088-.582.122-1.057.122-.881 0-1.257-.557-1.257-1.866v-5.5h2.742v-1.817h-2.742v-2.589zm8.311 4.145c2.045 0 2.976 1.993 2.976 3.847 0 2.279-1.271 3.933-3.02 3.933h-.022c-1.724 0-2.975-1.626-2.975-3.867 0-1.948.94-3.913 3.041-3.913zm.065-1.795c-3.18 0-5.402 2.374-5.402 5.772 0 3.296 2.15 5.598 5.228 5.598h.021c2.603 0 5.403-1.813 5.403-5.794 0-1.618-.501-3.009-1.449-4.021-.954-1.017-2.269-1.555-3.801-1.555zm12.213.106l-.136-.035c-.2-.05-.364-.071-.565-.071-1.19 0-2.257.7-2.851 1.83l-.067-1.59h-2.04l.013.19c.061.9.086 1.91.086 3.274l-.021 7.427h2.273v-5.794c0-.316.022-.614.063-.881.256-1.392 1.196-2.292 2.392-2.292.233 0 .416.02.61.039l.243.025v-2.123zm4.96 1.602c.692 0 1.254.214 1.669.636.654.666.769 1.647.783 2.117h-5.185c.211-1.313 1.032-2.753 2.733-2.753zm.152-1.73c-3.027 0-5.141 2.419-5.141 5.881 0 3.334 2.103 5.49 5.358 5.49 1.712 0 2.903-.376 3.6-.69l.137-.063-.437-1.694-.19.077c-.619.252-1.443.51-2.848.51-.988 0-3.266-.327-3.405-3.297l7.338.022.029-.145c.046-.231.069-.543.069-.95 0-2.371-1.181-5.14-4.51-5.14zm-78.351-7.839c.258.042.633.042 1.032.042 2.18.01 3.365-1.097 3.365-3.017.012-1.7-1.044-2.744-3.2-2.744a6.5 6.5 0 00-1.197.095v5.624zm-1.032-6.3a16.525 16.525 0 012.181-.147c1.466 0 2.51.296 3.201.876.715.58 1.126 1.414 1.126 2.564 0 1.16-.41 2.11-1.138 2.764-.75.665-1.97 1.024-3.505 1.024-.739 0-1.337-.021-1.865-.084V7.354zm10.2 6.437c.984 0 1.723-.833 1.723-1.994 0-.865-.48-1.952-1.7-1.952-1.208 0-1.735 1.013-1.735 1.984 0 1.118.703 1.962 1.7 1.962h.012zm-.036.697c-1.524 0-2.72-1.013-2.72-2.627 0-1.71 1.255-2.713 2.814-2.713 1.63 0 2.732 1.066 2.732 2.617 0 1.9-1.466 2.723-2.814 2.723h-.012zm4.458-5.223l.762 2.585c.152.57.305 1.108.41 1.636h.036c.129-.518.316-1.066.504-1.625l.926-2.596h.868l.88 2.553c.21.602.374 1.15.503 1.668h.036c.093-.518.246-1.056.434-1.657l.808-2.564h1.02l-1.828 5.107h-.939l-.867-2.437a16.5 16.5 0 01-.505-1.689h-.023a14.05 14.05 0 01-.516 1.7l-.914 2.426h-.938l-1.712-5.107h1.055zm8.22 1.382c0-.538-.012-.96-.047-1.383h.915l.058.834h.024c.281-.475.937-.95 1.875-.95.786 0 2.005.422 2.005 2.174v3.05h-1.03v-2.944c0-.823-.342-1.52-1.315-1.52-.668 0-1.196.433-1.383.95-.047.116-.07.285-.07.433v3.08h-1.032v-3.724zm6.507 3.724h1.032V6.88h-1.032v7.491zm5.088-.58c.985 0 1.724-.833 1.724-1.994 0-.865-.48-1.952-1.7-1.952-1.208 0-1.736 1.013-1.736 1.984 0 1.118.704 1.962 1.7 1.962h.012zm-.035.697c-1.523 0-2.72-1.013-2.72-2.627 0-1.71 1.254-2.713 2.815-2.713 1.629 0 2.73 1.066 2.73 2.617 0 1.9-1.465 2.723-2.813 2.723h-.011zm7.118-2.723c-1.126-.02-2.404.159-2.404 1.15 0 .613.446.887.962.887.75 0 1.23-.422 1.395-.855a.853.853 0 00.047-.295v-.887zm1.008 1.383c0 .443.023.875.082 1.223h-.927l-.093-.643h-.035c-.305.401-.927.76-1.735.76-1.149 0-1.736-.728-1.736-1.467 0-1.235 1.22-1.91 3.412-1.9v-.105c0-.422-.128-1.192-1.29-1.181-.54 0-1.09.136-1.488.379l-.235-.622c.469-.264 1.16-.444 1.876-.444 1.747 0 2.169 1.066 2.169 2.09v1.91zm5.523-1.805a1.54 1.54 0 00-.048-.4c-.151-.581-.715-1.066-1.488-1.066-1.067 0-1.7.844-1.7 1.962 0 1.045.574 1.899 1.676 1.899.692 0 1.325-.422 1.512-1.107a1.44 1.44 0 00.048-.401v-.887zm1.031-4.463v6.172c0 .454.013.97.047 1.32h-.926l-.047-.887h-.023c-.317.57-.997 1.002-1.923 1.002-1.372 0-2.44-1.044-2.44-2.595-.01-1.71 1.174-2.744 2.545-2.744.88 0 1.466.37 1.712.77h.024V6.88h1.031zm6.543 6.911c.985 0 1.723-.833 1.723-1.994 0-.865-.48-1.952-1.7-1.952-1.207 0-1.734 1.013-1.734 1.984 0 1.118.703 1.962 1.7 1.962h.011zm-.035.697c-1.524 0-2.72-1.013-2.72-2.627 0-1.71 1.255-2.713 2.814-2.713 1.63 0 2.732 1.066 2.732 2.617 0 1.9-1.466 2.723-2.814 2.723h-.012zm4.128-3.841c0-.538-.012-.96-.048-1.383h.915l.059.834h.023c.282-.475.938-.95 1.876-.95.786 0 2.005.422 2.005 2.174v3.05h-1.032v-2.944c0-.823-.339-1.52-1.313-1.52-.668 0-1.196.433-1.384.95-.046.116-.07.285-.07.433v3.08h-1.031v-3.724zm10.235-2.606v1.224h1.477v.707h-1.477v2.754c0 .633.2.992.774.992.281 0 .446-.021.598-.064l.047.707a3.1 3.1 0 01-.914.127c-.481 0-.868-.148-1.115-.39-.281-.285-.398-.74-.398-1.34V9.97h-.879v-.707h.879v-.94l1.008-.284zm2.639-1.161h1.031v3.186h.024c.164-.263.421-.506.739-.654a2.18 2.18 0 011.055-.264c.762 0 1.981.422 1.981 2.185v3.038h-1.031v-2.933c0-.833-.34-1.52-1.314-1.52-.668 0-1.184.423-1.383.93-.059.126-.071.263-.071.443v3.08h-1.031V6.88zm10.107 4.431c.011-.58-.27-1.509-1.419-1.509-1.056 0-1.501.866-1.583 1.51h3.002zm-3.014.665c.024 1.256.904 1.773 1.935 1.773.738 0 1.196-.116 1.572-.254l.187.655c-.364.147-.997.327-1.9.327-1.735 0-2.79-1.045-2.79-2.575 0-1.55 1.02-2.764 2.673-2.764 1.853 0 2.333 1.466 2.333 2.406 0 .19-.011.337-.035.443l-3.975-.01z" fill="#FFFFFE"/></svg>