<svg width="77" height="81" fill="none" xmlns="http://www.w3.org/2000/svg"><path d="M11.186 57.38v10.01H8.93v-7.036l-3.017 5.033-3.031-5.033v7.035H.642V57.38h2.903l2.368 4.076 2.312-4.075h2.96zm1.904 0v10.01h2.242V57.38h-2.241zm5.922 2.086h-2.707V57.38h7.67v2.086h-2.708v7.923h-2.255v-7.923zm5.795 7.794v-2.085a16.49 16.49 0 002.976.282c1.154 0 1.733-.156 1.733-.79 0-.734-.495-.832-2.114-1.578-1.58-.72-2.751-1.355-2.751-3.047 0-2.086 1.27-2.806 3.78-2.806 1.282 0 2.213.114 2.79.185v2.086c-.564-.057-1.592-.198-2.735-.198-1.353 0-1.621.141-1.621.692 0 .563.733.845 1.832 1.339 1.652.747 3.004 1.368 3.004 3.27 0 1.988-1.24 2.92-3.918 2.92-1.058 0-2.046-.115-2.976-.27zm8.234-3.254V57.38h2.242v6.54c0 1.143.677 1.538 1.747 1.538 1.073 0 1.763-.395 1.763-1.538v-6.54h2.242v6.626c0 2.425-1.593 3.524-4.005 3.524-2.411 0-3.989-1.099-3.989-3.524zM47.154 65.5c.903 0 1.269-.325 1.269-1.2 0-.774-.34-1.098-1.172-1.098h-2.057v2.297h1.96zm-.155-4.076c.902 0 1.227-.478 1.227-1.14 0-.805-.396-1.016-1.227-1.016h-1.805v2.156h1.805zm-4.046-4.046h4.37c2.045 0 3.172.747 3.172 2.58 0 1.453-.832 1.903-1.592 2.2.901.268 1.846.762 1.846 2.438 0 1.75-1.058 2.793-3.271 2.793h-4.525V57.378zm9.15.002v10.01h2.242V57.38h-2.242zm3.877 9.88v-2.085c.465.085 1.593.282 2.974.282 1.156 0 1.733-.156 1.733-.79 0-.734-.491-.832-2.112-1.578-1.58-.72-2.751-1.355-2.751-3.047 0-2.086 1.27-2.806 3.78-2.806 1.282 0 2.213.114 2.79.185v2.086c-.564-.057-1.592-.198-2.734-.198-1.354 0-1.623.141-1.623.692 0 .563.734.845 1.835 1.339 1.65.747 3.002 1.368 3.002 3.27 0 1.988-1.242 2.92-3.92 2.92a17.93 17.93 0 01-2.974-.27zm16.129-9.88v10.01h-2.241v-3.977h-3.555v3.976h-2.24V57.38h2.24v3.948h3.555V57.38h2.24zm1.834 0v10.01h2.242V57.38h-2.242zM21.697 70.85v10.009h-2.255v-7.035l-3.018 5.033-3.03-5.033v7.035H11.15v-10.01h2.905l2.368 4.074 2.313-4.073h2.96zm7.839 5.005c0-2.044-.352-3.073-1.988-3.073-1.635 0-1.987 1.029-1.987 3.073 0 2.059.352 3.101 1.987 3.101 1.636 0 1.988-1.042 1.988-3.101zm-6.302 0c0-3.582 1.368-5.146 4.314-5.146 2.947 0 4.315 1.564 4.315 5.146 0 3.581-1.368 5.145-4.315 5.145-2.946 0-4.314-1.564-4.314-5.145zm11.704-2.917H32.23v-2.086h7.67v2.086h-2.707v7.923h-2.255v-7.923zm11.63 2.917c0-2.044-.352-3.073-1.989-3.073-1.634 0-1.987 1.029-1.987 3.073 0 2.059.353 3.101 1.987 3.101 1.637 0 1.99-1.042 1.99-3.101zm-6.302 0c0-3.582 1.368-5.146 4.313-5.146 2.947 0 4.315 1.564 4.315 5.146 0 3.581-1.367 5.145-4.315 5.145-2.945 0-4.313-1.564-4.313-5.145zm14.1-.521c1.013 0 1.325-.507 1.325-1.269 0-.775-.312-1.282-1.325-1.282h-1.679v2.551h1.679zm-3.92-4.482h4.06c2.144 0 3.512.802 3.512 3.213 0 1.551-.776 2.553-2.06 2.862l2.467 3.934h-2.621l-2.115-3.582h-1.002v3.582h-2.24v-10.01zm8.911 9.882v-2.087c.465.084 1.593.282 2.974.282 1.156 0 1.735-.156 1.735-.79 0-.734-.493-.83-2.115-1.58-1.579-.718-2.75-1.352-2.75-3.044 0-2.086 1.268-2.806 3.78-2.806 1.282 0 2.213.112 2.79.183v2.088c-.564-.057-1.593-.198-2.734-.198-1.354 0-1.623.14-1.623.691 0 .564.734.846 1.833 1.34 1.65.746 3.003 1.367 3.003 3.27 0 1.988-1.24 2.917-3.92 2.917-1.057 0-2.044-.112-2.973-.266z" fill="#fff"/><path d="M28.672 16.607l9.588 16.608 9.589-16.608L38.26 0l-9.589 16.607zm28.765 16.608H38.259l9.59 16.608h19.176l-9.588-16.608z" fill="#ED1C24"/><path d="M19.082 33.215H38.26l-9.59 16.608H9.494l9.588-16.608z" fill="#ED1C24"/></svg>