<svg width="133" height="44" fill="none" xmlns="http://www.w3.org/2000/svg"><path d="M132.5 37.626a5.38 5.38 0 0 1-5.378 5.38H5.879A5.38 5.38 0 0 1 .5 37.626V5.879A5.38 5.38 0 0 1 5.88.5h121.242a5.379 5.379 0 0 1 5.378 5.38v31.746Z" fill="#1A1919" stroke="#fff"/><mask id="a" style="mask-type:alpha" maskUnits="userSpaceOnUse" x="9" y="8" width="16" height="30"><path d="m10.466 8.861 14.366 14.246-14.488 14.366c-.224-.076-.368-.297-.368-.623V9.637" fill="#fff"/></mask><g mask="url(#a)"><path fill-rule="evenodd" clip-rule="evenodd" d="m28.823 19.15-5.997-3.462-11.568-6.68c-.642-.37-1.282-.146-1.282.63V36.85c0 .58.457.831 1.015.51.558-.324 11.835-6.834 11.835-6.834l5.997-3.462 5.764-3.328c.676-.391.611-.927.04-1.234-.57-.308-5.804-3.352-5.804-3.352Z" fill="url(#b)"/></g><mask id="c" style="mask-type:alpha" maskUnits="userSpaceOnUse" x="10" y="8" width="19" height="16"><path d="M10.466 8.861c.227-.064.51-.016.792.148L11.245 9l4.947 2.856.512.296.253.146.326.188.337.195 5.206 3.006 5.997 3.462-3.99 3.957" fill="#fff"/></mask><g mask="url(#c)"><path fill-rule="evenodd" clip-rule="evenodd" d="m28.823 19.15-5.997-3.462-11.568-6.68c-.642-.37-1.282-.146-1.282.63V36.85c0 .58.457.831 1.015.51.558-.324 11.835-6.834 11.835-6.834l5.997-3.462 5.764-3.328c.676-.391.611-.927.04-1.234-.57-.308-5.804-3.352-5.804-3.352Z" fill="url(#d)"/></g><mask id="e" style="mask-type:alpha" maskUnits="userSpaceOnUse" x="10" y="23" width="19" height="15"><path d="m24.832 23.107 3.99 3.957-5.996 3.462-.38.22-.144.082-5.358 3.094-.347.2-4.65 2.685-.15.087-.082.047-.73.422c-.243.138-.466.168-.64.11" fill="#fff"/></mask><g mask="url(#e)"><path fill-rule="evenodd" clip-rule="evenodd" d="m28.822 19.15-5.997-3.463-11.567-6.68c-.643-.37-1.282-.146-1.282.63v27.212c0 .58.457.831 1.015.51.558-.324 11.834-6.835 11.834-6.835l5.997-3.462 5.765-3.327c.676-.391.61-.927.04-1.234-.57-.308-5.805-3.352-5.805-3.352Z" fill="url(#f)"/></g><mask id="g" style="mask-type:alpha" maskUnits="userSpaceOnUse" x="24" y="19" width="12" height="9"><path d="M28.822 19.151c.116.068 5.241 3.048 5.805 3.352.571.307.636.843-.04 1.234l.004-.003-.73.421c-.076.045-.158.092-.243.14l-.464.268-.068.04-1.863 1.076-.167.096-.89.514-.211.122-.2.115-.27.156-.566.327-.023.013-.038.022-.013.008-.023.013-3.99-3.957" fill="#fff"/></mask><g mask="url(#g)"><path fill-rule="evenodd" clip-rule="evenodd" d="m28.823 19.151-5.997-3.462-11.568-6.68c-.642-.37-1.282-.146-1.282.63V36.85c0 .58.457.831 1.015.51.558-.324 11.835-6.834 11.835-6.834l5.997-3.463 5.764-3.327c.676-.391.611-.927.04-1.234-.57-.308-5.804-3.352-5.804-3.352Z" fill="url(#h)"/></g><path fill-rule="evenodd" clip-rule="evenodd" d="M103.319 21.088c-.875 0-1.508.242-1.899.727s-.592 1.256-.602 2.314v.29c0 1.203.201 2.064.602 2.583.402.519 1.045.778 1.931.778.74 0 1.32-.3 1.74-.899.419-.599.629-1.425.629-2.479 0-1.068-.21-1.888-.629-2.458-.42-.571-1.011-.856-1.772-.856Zm.188 7.778a3.707 3.707 0 0 1-1.528-.308 2.874 2.874 0 0 1-1.161-.95h-.094c.062.5.094.975.094 1.422v3.526h-1.297V20.142h1.055l.179 1.172h.063c.334-.469.722-.807 1.165-1.016.443-.208.951-.313 1.524-.313 1.136 0 2.013.389 2.631 1.166.617.776.926 1.865.926 3.267 0 1.407-.314 2.5-.941 3.28-.629.779-1.5 1.168-2.616 1.168ZM108.771 28.71h1.298V16.544h-1.298v12.164ZM114.598 27.795c.808 0 1.442-.221 1.904-.664.46-.443.692-1.063.692-1.861v-.774l-1.299.055c-1.031.036-1.775.196-2.232.48-.455.285-.683.727-.683 1.326 0 .469.141.826.426 1.07.284.246.681.368 1.192.368Zm2.932.915-.259-1.22h-.062c-.427.537-.854.9-1.279 1.09-.424.191-.954.286-1.59.286-.849 0-1.515-.219-1.997-.657-.483-.438-.724-1.06-.724-1.868 0-1.73 1.384-2.637 4.151-2.72l1.455-.047v-.532c0-.672-.145-1.17-.434-1.49-.289-.32-.753-.48-1.388-.48-.714 0-1.522.219-2.423.657l-.399-.993a6.08 6.08 0 0 1 1.388-.54 6.002 6.002 0 0 1 1.512-.195c1.022 0 1.779.226 2.271.68.493.453.739 1.18.739 2.181v5.848h-.961ZM119.245 20.142h1.391l1.876 4.886c.412 1.115.667 1.92.766 2.416h.063c.068-.267.21-.721.426-1.365s.924-2.623 2.122-5.937h1.392l-3.682 9.756c-.365.964-.791 1.648-1.279 2.053-.487.403-1.085.605-1.793.605-.397 0-.788-.044-1.173-.133v-1.04c.286.063.607.095.961.095.892 0 1.527-.5 1.908-1.502l.477-1.219-3.455-8.615ZM78.715 25.49c.412-.412.447-.985.447-1.308 0-1.29-.77-3.297-2.257-3.297-.467 0-.968.232-1.255.591-.304.377-.394.86-.394 1.326 0 1.2.698 3.19 2.24 3.19.448 0 .931-.215 1.219-.502Zm-.52 3.406c-.143-.019-.233-.019-.412-.019-.16 0-1.13.037-1.882.288-.394.142-1.541.573-1.541 1.846 0 1.271 1.237 2.187 3.155 2.187 1.719 0 2.634-.826 2.634-1.937 0-.915-.591-1.397-1.954-2.365Zm1.273-7.958c.412.341 1.272 1.057 1.272 2.42 0 1.325-.753 1.954-1.506 2.544-.233.233-.502.485-.502.88 0 .393.269.608.467.77l.645.5c.789.664 1.505 1.273 1.505 2.51 0 1.685-1.631 3.387-4.713 3.387-2.599 0-3.853-1.236-3.853-2.563 0-.645.321-1.558 1.38-2.186 1.11-.681 2.617-.77 3.423-.825-.252-.323-.538-.663-.538-1.218 0-.304.09-.483.18-.7a6.488 6.488 0 0 1-.575.037c-1.899 0-2.974-1.416-2.974-2.814 0-.824.376-1.738 1.146-2.401 1.022-.842 2.24-.986 3.21-.986h3.69l-1.147.645h-1.11ZM70.421 27.16c.43-.574.538-1.289.538-1.987 0-1.575-.751-4.58-2.97-4.58-.59 0-1.18.233-1.61.609-.698.625-.824 1.412-.824 2.183 0 1.77.877 4.686 3.042 4.686.698 0 1.414-.34 1.825-.912Zm-2.236 1.448c-2.844 0-4.365-2.218-4.365-4.223 0-2.344 1.914-4.347 4.635-4.347 2.629 0 4.275 2.057 4.275 4.223 0 2.11-1.627 4.347-4.545 4.347ZM60.724 27.16c.43-.574.537-1.289.537-1.987 0-1.575-.752-4.58-2.971-4.58-.59 0-1.18.233-1.61.609-.698.625-.823 1.412-.823 2.183 0 1.77.876 4.686 3.042 4.686.698 0 1.413-.34 1.825-.912Zm-2.237 1.448c-2.845 0-4.366-2.218-4.366-4.223 0-2.344 1.915-4.347 4.635-4.347 2.63 0 4.276 2.057 4.276 4.223 0 2.11-1.628 4.347-4.545 4.347ZM52.754 28.328l-2.572.594c-1.044.162-1.98.305-2.968.305-4.966 0-6.854-3.652-6.854-6.512 0-3.49 2.68-6.727 7.268-6.727.972 0 1.906.144 2.752.378 1.349.378 1.978.845 2.374 1.115l-1.493 1.421-.63.143.45-.72c-.611-.592-1.727-1.69-3.85-1.69-2.842 0-4.983 2.16-4.983 5.308 0 3.38 2.447 6.565 6.368 6.565 1.153 0 1.745-.234 2.285-.45v-2.896l-2.716.144 1.438-.774h3.814l-.467.45c-.127.108-.144.144-.18.287-.019.162-.036.684-.036.864v2.195Z" fill="#F9F8F7"/><path fill-rule="evenodd" clip-rule="evenodd" d="M85.153 27.81c-.594-.053-.718-.16-.718-.863V16.765l.01-.116c.072-.629.252-.737.81-1.061h-2.573l-1.35.648h1.375v.008-.007 11.106c0 .359-.072.413-.486.953h3.184l.666-.395c-.305-.037-.612-.055-.918-.09ZM90.794 22.651c.339-.124.518-.232.518-.482 0-.714-.804-1.536-1.77-1.536-.715 0-2.053.554-2.053 2.483 0 .304.035.625.054.948l3.251-1.413Zm1.679 5.325c-.196.107-.392.233-.588.321-.591.268-1.198.34-1.735.34-.57 0-1.464-.037-2.376-.697-1.267-.894-1.821-2.43-1.821-3.77 0-2.769 2.25-4.126 4.09-4.126.644 0 1.305.16 1.842.5.892.589 1.124 1.357 1.249 1.768l-4.198 1.698-1.375.107c.446 2.269 1.982 3.59 3.68 3.59.91 0 1.572-.321 2.179-.625l-.947.894ZM94.197 20.166v1.178h-.143v-1.178h-.39v-.122h.922v.122h-.39ZM95.803 21.344v-1.189h-.006l-.363 1.189h-.112l-.366-1.189h-.004v1.189h-.13v-1.3h.222l.332 1.05h.004l.326-1.05h.226v1.3h-.129Z" fill="#F9F8F7"/><path fill-rule="evenodd" clip-rule="evenodd" d="M42.642 10.907c-.318-.96-.477-1.48-.477-1.558h-.045c0 .072-.164.592-.494 1.558h1.017Zm1.291 1.578h-.894c0-.122-.085-.47-.254-1.044h-1.29c-.176.564-.263.912-.263 1.044h-.84c0-.072.216-.668.651-1.787.435-1.12.653-1.736.653-1.85h1.055c0 .107.197.714.591 1.823.394 1.109.591 1.714.591 1.814ZM47.535 12.485h-.69c0-.076-.256-.479-.768-1.209-.536-.77-.842-1.295-.916-1.578h-.045c.046.408.07.776.07 1.106 0 .46.013 1.02.039 1.681h-.687c.028-.577.042-1.21.042-1.902 0-.68-.014-1.258-.042-1.734h.83c0 .098.23.492.69 1.181.489.732.77 1.228.843 1.49h.042a10.543 10.543 0 0 1-.067-1.118c0-.505-.014-1.023-.04-1.553h.699a31.48 31.48 0 0 0-.04 1.734c0 .7.014 1.335.04 1.902ZM50.82 10.66c0-.357-.103-.658-.312-.903-.209-.245-.527-.367-.955-.367-.08 0-.19.008-.33.025.019.372.028.761.028 1.167 0 .445.01.887.028 1.324.121.025.242.037.363.037.4 0 .697-.125.89-.373.192-.249.289-.552.289-.91Zm.763-.12c0 .53-.169.99-.508 1.386-.339.395-.814.592-1.425.592-.275 0-.655-.011-1.14-.034.025-.562.037-1.196.037-1.902 0-.677-.012-1.256-.036-1.734H49c.08 0 .199-.003.357-.009.158-.005.262-.008.31-.008.672 0 1.16.168 1.462.503.303.335.454.737.454 1.207ZM54.27 9.915c0-.37-.24-.556-.716-.556-.175 0-.33.013-.464.039.02.289.031.665.031 1.128.102.004.189.006.26.006.592 0 .888-.206.888-.617Zm1.047 2.57h-.827c-.216-.66-.382-1.066-.498-1.221-.115-.155-.301-.232-.558-.232-.108 0-.211.001-.31.003 0 .479.008.962.025 1.45h-.776c.024-.563.036-1.197.036-1.903 0-.677-.012-1.256-.036-1.734h.483c.056 0 .172-.003.35-.009.178-.005.342-.008.493-.008.855 0 1.282.292 1.282.877 0 .464-.244.787-.732.97v.041c.189.052.353.2.495.44.142.241.332.683.573 1.325ZM58.55 10.68c0-.389-.1-.704-.299-.946a.92.92 0 0 0-.737-.363c-.272 0-.503.122-.693.366-.19.244-.285.552-.285.924 0 .388.1.703.3.946.2.243.446.364.736.364.272 0 .503-.122.693-.367.19-.245.285-.553.285-.923Zm.77-.08c0 .572-.174 1.046-.524 1.421-.35.377-.783.565-1.3.565a1.64 1.64 0 0 1-1.234-.518c-.331-.346-.497-.785-.497-1.317 0-.572.175-1.046.525-1.422.35-.376.783-.564 1.299-.564.492 0 .903.172 1.235.516.331.345.497.784.497 1.319ZM60.9 12.485h-.79a45.83 45.83 0 0 0 0-3.636h.79c-.024.469-.036 1.047-.036 1.734 0 .702.012 1.337.036 1.902ZM64.186 10.66c0-.357-.104-.658-.313-.903-.209-.245-.527-.367-.955-.367-.08 0-.19.008-.33.025.019.372.028.761.028 1.167 0 .445.01.887.028 1.324.121.025.242.037.363.037.4 0 .697-.125.89-.373.193-.249.29-.552.29-.91Zm.762-.12c0 .53-.169.99-.508 1.386-.339.395-.814.592-1.424.592-.276 0-.656-.011-1.14-.034.024-.562.036-1.196.036-1.902 0-.677-.012-1.256-.036-1.734h.489c.08 0 .199-.003.357-.009.158-.005.262-.008.31-.008.673 0 1.16.168 1.463.503.302.335.453.737.453 1.207ZM69.03 10.907c-.32-.96-.479-1.48-.479-1.558h-.044c0 .072-.165.592-.495 1.558h1.017Zm1.29 1.578h-.894c0-.122-.085-.47-.255-1.044h-1.29c-.175.564-.263.912-.263 1.044h-.84c0-.072.217-.668.652-1.787.435-1.12.652-1.736.652-1.85h1.056c0 .107.197.714.59 1.823.395 1.109.592 1.714.592 1.814ZM72.857 9.954c0-.399-.264-.598-.793-.598-.132 0-.272.014-.419.042.02.352.03.75.03 1.196.047.003.101.005.163.005.68 0 1.02-.215 1.02-.645Zm.72-.154c0 .445-.164.774-.495.986-.33.213-.736.319-1.216.319-.088 0-.15-.002-.187-.006 0 .35.01.812.03 1.386h-.785c.024-.538.037-1.172.037-1.903 0-.67-.013-1.248-.037-1.734h.487c.068 0 .2-.003.396-.009.196-.005.365-.008.508-.008.354 0 .653.08.897.24.244.16.366.403.366.73ZM76.208 9.954c0-.399-.264-.598-.793-.598-.133 0-.272.014-.42.042.021.352.031.75.031 1.196.047.003.101.005.162.005.68 0 1.02-.215 1.02-.645Zm.72-.154c0 .445-.165.774-.495.986-.33.213-.736.319-1.217.319-.087 0-.15-.002-.187-.006 0 .35.01.812.03 1.386h-.784c.024-.538.036-1.172.036-1.903 0-.67-.012-1.248-.036-1.734h.486c.069 0 .201-.003.397-.009.195-.005.364-.008.508-.008.354 0 .653.08.897.24.244.16.365.403.365.73ZM81.635 10.68c0-.389-.1-.704-.3-.946a.92.92 0 0 0-.737-.363c-.272 0-.503.122-.693.366-.19.244-.284.552-.284.924 0 .388.1.703.3.946.2.243.445.364.736.364.272 0 .503-.122.693-.367.19-.245.285-.553.285-.923Zm.77-.08c0 .572-.174 1.046-.525 1.421-.35.377-.783.565-1.299.565a1.64 1.64 0 0 1-1.234-.518c-.331-.346-.497-.785-.497-1.317 0-.572.175-1.046.525-1.422.35-.376.783-.564 1.299-.564.491 0 .903.172 1.234.516.332.345.498.784.498 1.319ZM86.192 12.485h-.69c0-.076-.256-.479-.768-1.209-.536-.77-.842-1.295-.916-1.578h-.045c.046.408.07.776.07 1.106 0 .46.013 1.02.039 1.681h-.687a39.745 39.745 0 0 0 0-3.636h.83c0 .098.23.492.69 1.181.49.732.77 1.228.843 1.49h.042a10.547 10.547 0 0 1-.067-1.118c0-.505-.013-1.023-.04-1.553h.699c-.026.461-.04 1.04-.04 1.734 0 .7.014 1.335.04 1.902Z" fill="#FCFBFA"/><defs><linearGradient id="b" x1="17.404" y1="8.376" x2="17.404" y2="37.838" gradientUnits="userSpaceOnUse"><stop stop-color="#87C8B2"/><stop offset="1" stop-color="#2C729D"/></linearGradient><linearGradient id="d" x1="9.976" y1="15.688" x2="28.823" y2="15.688" gradientUnits="userSpaceOnUse"><stop stop-color="#53B8A0"/><stop offset="1" stop-color="#DBE596"/></linearGradient><linearGradient id="f" x1="19.399" y1="23.106" x2="19.399" y2="37.944" gradientUnits="userSpaceOnUse"><stop stop-color="#7D4589"/><stop offset="1" stop-color="#DA3E3E"/></linearGradient><linearGradient id="h" x1="30.255" y1="19.151" x2="30.255" y2="27.064" gradientUnits="userSpaceOnUse"><stop stop-color="#F7C374"/><stop offset="1" stop-color="#E88172"/></linearGradient></defs></svg>